<svg xmlns="http://www.w3.org/2000/svg" width="106" height="28" viewBox="0 0 106 28">
    <g fill="none" fill-rule="evenodd">
        <g fill="#011733" fill-rule="nonzero">
            <g>
                <path d="M11.193.15c-.358.083-.759.303-.938.524l-.318.36v7.19c0 6.75.014 7.246.277 8.35.29 1.16.814 2.305 1.476 3.175.732.952 2.485 2.015 4.141 2.498 2.043.593 2.553.621 11.373.676l8.516.055 2.222 2.264c2.291 2.333 2.595 2.54 3.437 2.346.538-.124 1.09-.648 1.352-1.31.331-.843.124-1.188-1.973-3.327l-1.836-1.877v-6.956c0-7.73-.028-7.978-.966-9.717-.442-.842-1.767-2.333-2.278-2.567-.151-.07-.455-.235-.69-.373-.538-.331-1.808-.76-3.105-1.077-.925-.22-1.988-.262-10.545-.33-6.942-.056-9.689-.028-10.145.096zm19.24 3.16c2.623.428 3.851 1.38 4.528 3.506.22.69.248 1.339.207 6.832l-.042 6.073-7.467.042c-7.315.027-9.288-.042-10.544-.4-1.008-.277-2.016-1.008-2.526-1.809-.828-1.31-.842-1.394-.884-8.046-.027-3.34-.013-6.142.014-6.239.055-.138 1.643-.18 7.702-.18 6.404 0 7.84.042 9.013.222zM.94.206C.732.288.442.55.276.799 0 1.254 0 1.433 0 11.578v10.324l.483.455c.732.69 1.56.76 2.388.221.718-.469.718-.372.718-11.207V1.337L3.27.867C2.761.109 1.905-.14.94.206zm52.24-.014c-.69.055-1.325.152-1.394.193-.082.042-.469.152-.87.221-1.269.249-2.98 1.173-3.947 2.153-.483.47-.924 1.008-1.007 1.187-.07.166-.193.414-.248.525-.36.621-.47.91-.594 1.56-.083.4-.207.966-.276 1.27-.055.303-.11 2.166-.11 4.14 0 1.974.055 3.837.11 4.14.069.304.193.856.262 1.243.36 1.697 2.002 3.864 3.478 4.582.98.47 1.615.732 1.795.732.082 0 .441.082.8.193 1.311.386 3.064.497 8.047.497 4.955 0 7.715-.18 8.405-.552.138-.083.373-.138.497-.138.304 0 1.877-.76 2.636-1.27 1.077-.732 2.209-2.319 2.526-3.547.07-.276.193-.746.262-1.05.18-.703.194-8.93.014-9.633-.083-.276-.193-.718-.248-.966-.456-1.712-1.877-3.41-3.547-4.224C68.458.812 68.417.8 67.078.453c-1.09-.262-1.587-.29-6.9-.33-3.148-.028-6.295 0-6.999.068zm12.422 3.12c2.347.496 3.423 1.352 4.182 3.298.235.635.263 1.063.263 4.83 0 3.769-.028 4.197-.263 4.832-.69 1.753-1.642 2.622-3.533 3.188-.828.248-1.353.262-7.04.262-5.962 0-6.169-.014-7.066-.303-1.27-.415-1.6-.608-2.263-1.312-.663-.69-.897-1.118-1.215-2.208-.317-1.132-.317-7.784 0-8.916.607-2.098 1.698-3.092 3.989-3.63C54.063 3.02 64.11 2.979 65.6 3.31zM86.608.177c-3.064.249-5.383 1.187-6.225 2.512-.648 1.036-.8 1.712-.8 3.644.014 3.961 1.145 5.7 4.127 6.308.386.083 4.154.18 8.557.234 7.715.097 7.88.11 8.488.4.345.166.718.387.842.47.663.538.911 1.629.745 3.354-.082.98-.138 1.104-.607 1.573-.345.345-.773.58-1.394.773-.842.262-1.325.276-8.143.276-7.191 0-7.246 0-7.867-.303-.842-.415-1.035-.58-1.367-1.243-.607-1.159-1.56-1.545-2.663-1.09-.732.304-.87.566-.856 1.518.027 1.74 1.214 2.995 3.437 3.672 1.835.538 3.05.62 9.799.62 6.75 0 7.591-.055 9.316-.62 1.05-.345 1.491-.594 2.195-1.187 1.284-1.105 1.808-2.499 1.808-4.817 0-2.982-.883-4.665-2.954-5.645-1.545-.732-2.401-.8-10.324-.87-8.295-.069-8.212-.069-9.04-1.145-.455-.566-.455-.594-.455-2.07 0-1.27.041-1.574.29-1.988.386-.677.966-.98 2.29-1.256.967-.194 1.974-.221 7.178-.18 5.3.042 6.128.083 6.763.29.786.262 1.435.828 1.78 1.546.318.662.966 1.035 1.808 1.035 1.684 0 2.167-1.629 1.035-3.464-.566-.911-1.739-1.587-3.616-2.084-.952-.249-1.546-.276-6.97-.318-3.257-.027-6.487 0-7.177.055z" transform="translate(-1117.000000, -1851.000000) translate(1117.000000, 1851.000000)"/>
            </g>
        </g>
    </g>
</svg>
