<svg xmlns="http://www.w3.org/2000/svg" width="107" height="47" viewBox="0 0 107 47">
    <g fill="none" fill-rule="evenodd">
        <g fill="#011733">
            <g>
                <path d="M11.665 27.819c-.225.785-.428 1.547-.606 2.274-.225.915-.432 1.747-.618 2.493-.185.73-.314 1.319-.387 1.748-.149.762-.646 1.243-1.44 1.4-.683.135-1.417.079-2.175-.168-.745-.244-1.424-.668-2.018-1.26-.622-.622-.938-1.404-.938-2.325 0-.75.187-1.933.572-3.62.374-1.645.915-3.597 1.609-5.8.688-2.188 1.522-4.597 2.479-7.162.823-2.203 1.744-4.421 2.745-6.608.328-.717 1.005-1.21 1.786-1.3 1.767-.207 3.301-.156 4.6.151.782.185 1.203 1.04.875 1.775-.838 1.878-1.611 3.752-2.3 5.575-.56 1.477-1.096 2.938-1.6 4.36-.05.14.092.27.227.208.673-.311 1.34-.678 1.99-1.097 1.065-.686 2.036-1.507 2.885-2.438.846-.929 1.54-1.978 2.062-3.118.516-1.128.778-2.354.778-3.646 0-1.662-.459-2.889-1.363-3.646-.915-.767-2.205-1.156-3.832-1.156-1.734 0-3.319.413-4.712 1.227-1.428.833-2.663 1.86-3.672 3.05-1.015 1.198-1.815 2.478-2.377 3.805-.556 1.316-.839 2.47-.839 3.43 0 .687-.362 1.184-1.019 1.398-.576.188-1.21.16-1.862-.084-.628-.234-1.208-.696-1.728-1.373-.522-.68-.787-1.6-.787-2.737 0-.992.375-2.16 1.145-3.572.75-1.376 1.86-2.716 3.297-3.982 1.435-1.264 3.247-2.36 5.386-3.259C11.98 1.458 14.468 1 17.22 1c1.569 0 3.14.184 4.673.548 1.545.367 2.945.925 4.16 1.66 1.232.742 2.243 1.675 3.005 2.772.777 1.117 1.17 2.426 1.17 3.891 0 1.58-.345 3.06-1.027 4.4-.676 1.328-1.605 2.54-2.762 3.604-1.147 1.055-2.506 1.987-4.04 2.768-1.265.643-2.61 1.192-4.006 1.634-.089.028-.12.074-.117.167.03.698.08 1.387.15 2.052.078.762.183 1.506.311 2.211.125.693.277 1.369.448 2.008.134.494.282.976.442 1.432.102.291.209.575.318.844.218.54.459 1.055.715 1.533.251.47.524.915.81 1.325.278.399.577.775.89 1.117.303.333.624.64.954.913.322.266.661.506 1.008.714.338.203.692.379 1.053.524.356.143.725.257 1.095.34.37.084.754.14 1.14.164.387.024.789.019 1.19-.017.407-.036.823-.104 1.238-.202.424-.1.856-.232 1.286-.395.44-.167.885-.369 1.325-.599.168-.088.337-.181.506-.279.548-.317 1.246-.166 1.615.35s.286 1.228-.19 1.646c-.233.206-.468.405-.7.598-.564.463-1.13.893-1.682 1.278-.525.365-1.058.704-1.584 1.005-.264.152-.54.302-.821.445-.541.275-1.089.517-1.627.721-.538.203-1.078.37-1.605.498-.526.127-1.055.22-1.573.273-.368.038-.738.057-1.098.057-.146 0-.291-.003-.437-.01-.5-.02-.998-.08-1.48-.176-.24-.047-.48-.104-.715-.17-.227-.064-.46-.139-.694-.224-.45-.165-.893-.367-1.319-.601-.418-.23-.828-.496-1.218-.791-.315-.239-.624-.5-.918-.778-.354-.335-.697-.705-1.023-1.1-.321-.39-.629-.811-.916-1.253-.286-.441-.557-.91-.807-1.396-.25-.485-.485-1.001-.7-1.533-.213-.525-.412-1.085-.591-1.662-.177-.567-.34-1.168-.482-1.787-.142-.617-.266-1.258-.368-1.904-.092-.572-.17-1.165-.23-1.767-.02-.184-.277-.207-.327-.03M107 4.5c0 2.485-2.24 4.5-5 4.5-2.761 0-5-2.015-5-4.5S99.239 0 102 0c2.76 0 5 2.015 5 4.5" transform="translate(-817.000000, -1996.000000) translate(817.000000, 1996.000000)"/>
                <g>
                    <path d="M58.26 7.23c-.146.823-.38 1.772-.694 2.82-.315 1.046-.718 2.15-1.194 3.27-.518 1.129-1.054 2.185-1.593 3.137-.533.941-1.063 1.751-1.574 2.407-.498.64-.96 1.112-1.372 1.406-.31.221-.483.245-.542.245-.028 0-.05-.005-.074-.015-.051-.023-.225-.142-.3-.705-.07-.515-.033-1.19.11-2.01.148-.845.381-1.802.695-2.845.312-1.04.715-2.144 1.198-3.279.48-1.125 1.003-2.176 1.558-3.122.553-.945 1.092-1.747 1.602-2.383.494-.62.957-1.086 1.374-1.383.312-.222.484-.246.543-.246.028 0 .051.005.072.014.051.023.225.143.302.705.07.516.033 1.183-.11 1.984m-21.053 0c-.148.823-.381 1.772-.695 2.82-.316 1.052-.72 2.155-1.194 3.27-.519 1.13-1.055 2.187-1.592 3.137-.534.942-1.064 1.752-1.575 2.407-.497.64-.959 1.112-1.373 1.406-.31.221-.482.245-.54.245-.029 0-.051-.005-.075-.015-.051-.023-.225-.142-.3-.705-.07-.512-.033-1.189.11-2.01.147-.842.38-1.8.695-2.845.312-1.041.715-2.144 1.199-3.279.48-1.128 1.003-2.178 1.556-3.122.555-.946 1.094-1.748 1.602-2.383.497-.622.96-1.088 1.375-1.384.312-.221.484-.245.543-.245.028 0 .051.005.072.014.052.023.226.143.302.705.07.514.032 1.182-.11 1.984m-22.78-.05c-.09.835-.268 1.79-.526 2.838-.259 1.045-.615 2.145-1.056 3.272-.44 1.12-.91 2.175-1.395 3.133-.476.936-.957 1.734-1.43 2.373-.462.622-.896 1.085-1.29 1.377-.292.217-.453.24-.509.24-.025 0-.047-.004-.07-.015-.054-.023-.236-.146-.331-.717-.09-.522-.097-1.197-.025-2.005.073-.822.24-1.765.498-2.805.257-1.04.613-2.141 1.056-3.271.447-1.135.916-2.19 1.396-3.134.474-.936.956-1.744 1.433-2.402.46-.636.892-1.106 1.286-1.399.292-.216.453-.24.51-.24.026 0 .047.005.068.014.055.025.246.152.363.731.104.514.112 1.19.023 2.01m65.064 6.097c-.23-.354-.67-.583-1.125-.583-.43 0-.818.201-1.06.552-.28.402-.623.88-1.023 1.418-.439.591-.912 1.159-1.407 1.685-.492.524-.972.98-1.426 1.355-.469.388-.772.469-.944.469-.12 0-.344 0-.395-.59-.053-.617.04-1.42.273-2.385.24-.992.585-2.094 1.03-3.274.452-1.2.906-2.348 1.35-3.41.46-1.102.855-2.02 1.208-2.803.351-.78.572-1.287.656-1.51.281-.642.178-1.275-.298-1.831-.437-.51-1.021-.868-1.737-1.063-.698-.19-1.46-.201-2.254-.033-.85.182-1.524.671-2.004 1.455-.422.688-.971 1.77-1.632 3.213-.664 1.447-1.305 3.054-1.906 4.776-.364 1.045-.7 2.106-1.005 3.175-.507 1.777-1.549 3.357-2.985 4.527-.515.418-1.056.813-1.619 1.18-.248.162-.499.312-.75.45-.08.043-.163-.052-.108-.124.434-.57.861-1.185 1.278-1.842.858-1.353 1.64-2.975 2.324-4.818.724-1.952 1.178-3.732 1.35-5.291.172-1.58.112-2.957-.18-4.095-.303-1.176-.832-2.1-1.573-2.749-.768-.67-1.717-1.01-2.82-1.01-1.3 0-2.495.344-3.552 1.02-.722.461-1.39.977-1.997 1.54-.05.046-.092.04-.129-.017-.134-.214-.315-.415-.543-.603-.513-.422-1.13-.704-1.835-.84-.707-.133-1.426-.085-2.127.144-.75.245-1.309.752-1.662 1.507-.678 1.454-1.393 3.152-2.128 5.045-.732 1.89-1.446 3.866-2.123 5.873-.075.223-.15.445-.223.668-.572 1.712-1.645 3.214-3.082 4.312-.378.29-.77.567-1.173.83-.249.162-.5.312-.751.45-.08.043-.162-.052-.107-.124.434-.569.86-1.184 1.277-1.842.858-1.352 1.64-2.973 2.325-4.818.723-1.952 1.177-3.732 1.35-5.291.172-1.58.112-2.958-.18-4.095-.302-1.175-.831-2.1-1.573-2.749-.768-.67-1.717-1.01-2.819-1.01-1.301 0-2.497.344-3.553 1.02-.723.461-1.391.977-1.997 1.54-.05.046-.092.04-.128-.018-.135-.213-.317-.414-.545-.602-.512-.422-1.13-.704-1.835-.84-.707-.134-1.427-.085-2.126.144-.749.245-1.308.752-1.663 1.507-.678 1.457-1.394 3.154-2.127 5.045-.688 1.776-1.357 3.62-1.991 5.486-.48 1.408-1.196 2.54-2.266 3.576-.277.268-.546.51-.806.725-.47.388-.773.469-.945.469-.12 0-.344 0-.394-.59-.053-.616.039-1.418.272-2.385.239-.992.586-2.093 1.03-3.274.447-1.189.902-2.336 1.35-3.41.452-1.082.858-2.025 1.208-2.803.359-.795.573-1.29.655-1.51.283-.642.18-1.275-.296-1.831-.438-.511-1.033-.869-1.77-1.064-.718-.19-1.478-.2-2.253-.031-.83.182-1.494.671-1.972 1.453-.096.154-.196.325-.302.515-.037.067-.139.052-.155-.023-.09-.427-.238-.83-.439-1.206-.3-.559-.746-1.017-1.324-1.363C14.7.3 13.956.12 13.074.12c-2.08 0-4.19.957-6.27 2.842-2.041 1.851-3.734 4.804-5.031 8.78C1.164 13.66.807 15.432.71 17.01c-.096 1.597.033 2.975.384 4.096.362 1.155.94 2.067 1.718 2.71.803.665 1.767 1.002 2.866 1.002.814 0 1.59-.14 2.307-.416.695-.267 1.34-.611 1.915-1.021.443-.316.856-.673 1.23-1.065.268-.28.738-.167.848.203.124.415.295.784.515 1.105.543.792 1.403 1.194 2.555 1.194 1.277 0 2.567-.477 3.834-1.417.59-.438 1.168-.915 1.727-1.429.126-.115.324.008.274.171-.326 1.082-.619 2.083-.883 3.023-.445 1.58-.807 2.942-1.076 4.046-.36 1.481-.407 1.884-.407 2.07 0 .907.283 1.681.843 2.3.54.596 1.165 1.023 1.861 1.27.458.162.905.245 1.328.245.235 0 .465-.026.687-.075.499-.113 1.132-.444 1.317-1.384l.003-.018c.073-.495.213-1.165.416-1.992.21-.859.466-1.836.76-2.905.29-1.064.622-2.248 1.014-3.622.18-.634.375-1.3.582-1.99.042-.141.232-.163.306-.036.092.158.194.312.307.462.635.848 1.648 1.278 3.012 1.28.274.013.549.02.817.02 2.006 0 3.889-.343 5.598-1.02 1.632-.644 3.128-1.432 4.46-2.345.131-.09.302.035.256.187-.382 1.255-.728 2.43-1.03 3.508-.448 1.59-.81 2.952-1.077 4.045-.36 1.484-.406 1.885-.406 2.07 0 .907.283 1.681.842 2.3.54.597 1.166 1.024 1.862 1.27.458.162.904.245 1.327.245.234 0 .466-.026.688-.075.499-.113 1.132-.444 1.316-1.384l.003-.018c.073-.496.214-1.167.417-1.992.21-.859.465-1.836.759-2.905.292-1.068.624-2.253 1.015-3.622.18-.636.375-1.3.581-1.99.042-.142.233-.164.307-.037.091.158.194.313.307.463.634.847 1.647 1.278 3.011 1.28.274.013.549.02.818.02 2.005 0 3.888-.343 5.597-1.02 1.913-.755 3.642-1.706 5.139-2.826.254-.19.502-.384.744-.578.11-.09.275-.01.273.132l-.002.19c0 1.192.252 2.164.748 2.889.544.792 1.404 1.194 2.556 1.194 1.274 0 2.573-.476 3.859-1.415 1.222-.892 2.377-1.946 3.431-3.134 1.04-1.17 1.954-2.338 2.717-3.468.77-1.144 1.29-1.926 1.586-2.392.237-.371.244-.784.02-1.132" transform="translate(-817.000000, -1996.000000) translate(817.000000, 1996.000000) translate(26.000000, 11.000000)"/>
                </g>
            </g>
        </g>
    </g>
</svg>
