<svg xmlns="http://www.w3.org/2000/svg" width="57" height="57" viewBox="0 0 57 57">
    <g fill="none" fill-rule="evenodd">
        <g>
            <g transform="translate(-140.000000, -6953.000000) translate(140.000000, 6953.000000)">
                <rect width="57" height="57" fill="#F4F4F4" rx="4"/>
                <g fill="#F0798A" fill-rule="nonzero">
                    <path d="M30.766.241c-.005-.09-.057-.171-.138-.213-.081-.041-.179-.037-.256.012l-4.226 2.677c-.078.045-.126.128-.126.218s.048.173.126.218l1.3.664.17.088L24.662 9.3c-.37.695-.992 1.226-1.742 1.486-.843.28-1.768.175-2.525-.287-.276-.157-.568-.284-.873-.377l1.025-2.502c.077-.187-.014-.4-.204-.476l-.861-.345c-.092-.036-.194-.035-.285.004-.09.038-.162.11-.198.201L17.81 9.91c-1.444.107-2.762.85-3.588 2.024l-.638.906c-.034.052-.07.096-.108.143-.278-.68-.278-1.442 0-2.123.512-1.19.49-2.538-.06-3.712-.55-1.142-1.535-2.024-2.74-2.453L4.857 2.53l.078-.224.487-1.36c.03-.085.013-.18-.046-.248-.059-.07-.15-.102-.24-.086l-4.928.895c-.09.015-.164.078-.194.163s-.011.18.05.247l3.27 3.774c.06.068.152.1.242.083.089-.017.163-.079.193-.163l.487-1.357.067-.18 5.815 2.164c.748.265 1.368.8 1.734 1.496.4.786.424 1.707.067 2.512-.489 1.137-.464 2.425.067 3.543-.557.083-1.124-.034-1.6-.33l-3.053-1.87c-.084-.052-.185-.069-.281-.047-.096.022-.18.081-.232.164l-.494.778c-.096.168-.044.381.12.487l3.048 1.89c.643.4 1.389.613 2.15.612.471-.002.938-.084 1.381-.242.348.332.743.611 1.174.828l1.002.503c1.123.558 1.602 1.89 1.088 3.022l-1.485 3.246c-.044.089-.05.192-.015.285.034.094.105.17.197.21l.847.367c.09.04.192.042.284.006.092-.035.166-.104.206-.193l1.485-3.246c.88-1.937.062-4.215-1.856-5.171l-1-.5c-.164-.081-.32-.178-.467-.289.169-.165.323-.344.46-.535l.639-.91c.373-.528.904-.927 1.519-1.14-.459 2.007.65 4.04 2.599 4.767.941.379 1.663 1.152 1.968 2.11l1.318 4.103-.226.077-1.385.466c-.085.031-.147.104-.163.192-.016.089.016.179.085.237l3.784 3.271c.068.06.164.078.25.05.086-.029.15-.1.17-.189l.976-4.874c.017-.088-.015-.179-.084-.238s-.164-.077-.25-.048l-1.385.466-.182.058-1.248-3.843c-.449-1.507-1.55-2.74-3.008-3.367-1.314-.525-1.96-1.994-1.452-3.3.234.065.459.16.669.281 1.122.667 2.477.835 3.732.463 1.227-.377 2.254-1.218 2.855-2.34l2.97-5.392.213.11 1.3.664c.08.043.178.04.255-.01.077-.048.121-.134.116-.224L30.766.24z" transform="translate(13.000000, 15.000000)"/>
                </g>
            </g>
        </g>
    </g>
</svg>
