<svg xmlns="http://www.w3.org/2000/svg" xmlns:xlink="http://www.w3.org/1999/xlink" width="57" height="57" viewBox="0 0 57 57">
    <defs>
        <rect id="b62i6i2k0a" width="57" height="57" x="0" y="0" rx="4"/>
    </defs>
    <g fill="none" fill-rule="evenodd">
        <g>
            <g>
                <g transform="translate(-1022.000000, -6953.000000) translate(1022.000000, 6953.000000)">
                    <use fill="#F1F1F1" xlink:href="#b62i6i2k0a"/>
                </g>
                <g fill-rule="nonzero">
                    <g>
                        <path fill="#C0E1FA" d="M16.607.248C17.925.248 19 1.326 19 2.65v25.945C19 29.922 17.925 31 16.603 31H2.397C1.075 31 0 29.922 0 28.596V2.651C0 1.326 1.075.248 2.397.248z" transform="translate(-1022.000000, -6953.000000) translate(1022.000000, 6953.000000) translate(18.000000, 13.000000)"/>
                        <path fill="#000" d="M7.825 2.651h3.35c.265 0 .473-.213.473-.478s-.212-.478-.473-.478h-3.35c-.265 0-.482.213-.482.478s.221.478.482.478zM9.502 5.116c-4.122 0-7.478 3.364-7.478 7.502 0 3.99 6.529 12.584 6.806 12.949.174.217.408.334.672.334.265 0 .507-.117.668-.339.277-.365 6.806-8.958 6.806-12.948.004-4.134-3.351-7.498-7.474-7.498zm0 19.742c-.789-1.052-6.52-8.806-6.52-12.24 0-3.607 2.922-6.541 6.52-6.541 3.59 0 6.52 2.934 6.52 6.541 0 3.434-5.73 11.188-6.52 12.24z" transform="translate(-1022.000000, -6953.000000) translate(1022.000000, 6953.000000) translate(18.000000, 13.000000)"/>
                        <path fill="#000" d="M9.502 8.685c-2.05 0-3.715 1.677-3.715 3.729 0 2.06 1.67 3.73 3.715 3.73 2.046 0 3.715-1.674 3.715-3.73 0-2.052-1.664-3.73-3.715-3.73zm0 6.498c-1.526 0-2.761-1.24-2.761-2.77 0-1.525 1.235-2.768 2.761-2.768 1.517 0 2.762 1.243 2.762 2.769 0 1.53-1.245 2.769-2.762 2.769z" transform="translate(-1022.000000, -6953.000000) translate(1022.000000, 6953.000000) translate(18.000000, 13.000000)"/>
                    </g>
                </g>
            </g>
        </g>
    </g>
</svg>
