<svg xmlns="http://www.w3.org/2000/svg" width="57" height="57" viewBox="0 0 57 57">
    <g fill="none" fill-rule="evenodd">
        <g>
            <g transform="translate(-130.000000, -4741.000000) translate(130.000000, 4741.000000)">
                <rect width="57" height="57" fill="#F4F4F4" rx="4"/>
                <g fill="#BEA362" fill-rule="nonzero">
                    <path d="M1.892 31.164H.44c-.264 0-.44.175-.44.436 0 .262.176.436.44.436h1.452c.176.61.66 1.133 1.276 1.264v1.22c0 .262.176.436.44.436s.44-.174.44-.435v-1.177c.616-.175 1.144-.654 1.276-1.264h5.236c.176.61.66 1.133 1.276 1.264v1.22c0 .262.176.436.44.436s.44-.174.44-.436v-1.22c.616-.175 1.144-.654 1.276-1.264h5.236c.176.61.66 1.133 1.276 1.264v1.22c0 .262.176.436.44.436s.44-.174.44-.436v-1.22c.616-.175 1.144-.654 1.276-1.264h5.236c.176.61.66 1.133 1.276 1.264v1.22c0 .262.176.436.44.436s.44-.174.44-.436v-1.22c.616-.175 1.144-.654 1.276-1.264h1.232c.264 0 .44-.175.44-.436 0-.262-.176-.436-.44-.436h-1.232c-.176-.61-.66-1.133-1.276-1.264v-6.059c.616-.174 1.144-.653 1.276-1.264h1.232c.264 0 .44-.174.44-.435 0-.262-.176-.436-.44-.436h-1.232c-.176-.61-.66-1.134-1.276-1.264V14.47c.616-.175 1.144-.654 1.276-1.264h1.232c.264 0 .44-.175.44-.436 0-.262-.176-.436-.44-.436h-1.232c-.176-.61-.66-1.133-1.276-1.264V5.056c.616-.174 1.144-.654 1.276-1.264h1.232c.264 0 .44-.174.44-.436 0-.261-.176-.436-.44-.436h-1.232c-.176-.61-.66-1.133-1.276-1.264V.436c0-.262-.176-.436-.44-.436s-.44.174-.44.436v1.22c-.616.175-1.144.654-1.276 1.264h-5.148c-.176-.61-.66-1.133-1.276-1.264V.436c0-.262-.176-.436-.44-.436s-.44.174-.44.436v1.22c-.616.175-1.144.654-1.276 1.264h-5.28c-.176-.61-.66-1.133-1.276-1.264V.436c0-.262-.176-.436-.44-.436s-.44.174-.44.436v1.22c-.616.175-1.144.654-1.276 1.264h-5.28c-.176-.61-.66-1.133-1.276-1.264V.436c0-.262-.176-.436-.44-.436s-.44.174-.44.436v1.22c-.616.175-1.144.654-1.276 1.264H.44c-.264 0-.44.175-.44.436 0 .262.176.436.44.436h1.452c.176.61.66 1.133 1.276 1.264v6.015c-.616.174-1.144.654-1.276 1.264H.44c-.264 0-.44.174-.44.436 0 .261.176.436.44.436h1.452c.176.61.66 1.133 1.276 1.264v6.015c-.616.174-1.144.653-1.276 1.264H.44c-.264 0-.44.174-.44.436 0 .261.176.435.44.435h1.452c.176.61.66 1.134 1.276 1.264V29.9c-.616.175-1.144.654-1.276 1.264zm1.716 1.352c-.484 0-.924-.393-.924-.916 0-.48.396-.915.924-.915s.924.392.924.915-.44.916-.924.916zm1.716-9.895h5.236c.176.61.66 1.134 1.276 1.264V29.9c-.616.175-1.144.654-1.276 1.264H5.324c-.176-.61-.66-1.133-1.276-1.264v-6.015c.616-.13 1.144-.653 1.276-1.264zm0-9.414h5.236c.176.61.66 1.133 1.276 1.264v6.015c-.616.174-1.144.653-1.276 1.264H5.324c-.176-.61-.66-1.134-1.276-1.264V14.47c.616-.175 1.144-.654 1.276-1.264zm0-9.459h5.236c.176.61.66 1.134 1.276 1.264v6.015c-.616.175-1.144.654-1.276 1.264H5.324c-.176-.61-.66-1.133-1.276-1.264V5.056c.616-.174 1.144-.654 1.276-1.308zm8.712 0h5.236c.176.61.66 1.134 1.276 1.264v6.015c-.616.175-1.144.654-1.276 1.264h-5.236c-.176-.61-.66-1.133-1.276-1.264V5.056c.616-.174 1.144-.654 1.276-1.308zm8.712 0h5.236c.176.61.66 1.134 1.276 1.264v6.015c-.616.175-1.144.654-1.276 1.264h-5.236c-.176-.61-.66-1.133-1.276-1.264V5.056c.616-.174 1.1-.654 1.276-1.308zm5.236 18.002h-5.236c-.176-.61-.66-1.134-1.276-1.264V14.47c.616-.175 1.144-.654 1.276-1.264h5.236c.176.61.66 1.133 1.276 1.264v6.015c-.616.13-1.1.653-1.276 1.264zm0 9.414h-5.236c-.176-.61-.66-1.133-1.276-1.264v-6.015c.616-.174 1.144-.653 1.276-1.264h5.236c.176.61.66 1.134 1.276 1.264V29.9c-.616.175-1.1.654-1.276 1.264zm-8.668 0h-5.28c-.176-.61-.66-1.133-1.276-1.264v-6.015c.616-.174 1.144-.653 1.276-1.264h5.236c.176.61.66 1.134 1.276 1.264V29.9c-.616.175-1.1.654-1.232 1.264zM12.32 11.856c.484 0 .924.392.924.915s-.396.915-.924.915-.924-.392-.924-.915.396-.915.924-.915zm1.716 1.35h5.236c.176.61.66 1.134 1.276 1.265v6.015c-.616.174-1.144.653-1.276 1.264h-5.236c-.176-.61-.66-1.134-1.276-1.264V14.47c.616-.175 1.144-.654 1.276-1.264zm6.996-1.35c.484 0 .924.392.924.915s-.396.915-.924.915c-.484 0-.924-.392-.924-.915s.396-.915.924-.915zm0 11.245c-.484 0-.924-.392-.924-.915s.396-.916.924-.916c.484 0 .924.393.924.916s-.44.915-.924.915zm-8.712-1.83c.484 0 .924.392.924.915s-.396.915-.924.915-.924-.392-.924-.915.396-.916.924-.916zm0 11.245c-.484 0-.924-.393-.924-.916 0-.48.396-.915.924-.915s.924.392.924.915-.44.916-.924.916zm8.712 0c-.484 0-.924-.393-.924-.916 0-.48.396-.915.924-.915.484 0 .924.392.924.915s-.44.916-.924.916zm9.592-.916c0 .48-.396.916-.924.916-.484 0-.924-.393-.924-.916 0-.48.396-.915.924-.915.528.044.924.436.924.915zm0-9.414c0 .479-.396.915-.924.915-.484 0-.924-.392-.924-.915s.396-.916.924-.916.924.436.924.916zm0-9.415c0 .48-.396.915-.924.915-.484 0-.924-.392-.924-.915s.396-.915.924-.915.924.392.924.915zm-.88-10.33c.484 0 .924.392.924.915s-.396.915-.924.915c-.484 0-.924-.392-.924-.915s.396-.915.924-.915zm-8.712 0c.484 0 .924.392.924.915s-.396.915-.924.915c-.484 0-.924-.392-.924-.915s.396-.915.924-.915zm-8.712 0c.484 0 .924.392.924.915s-.396.915-.924.915-.924-.392-.924-.915.396-.915.924-.915zm-9.636.872c0-.48.396-.916.924-.916s.924.393.924.916-.396.915-.924.915-.924-.392-.924-.915zm0 9.458c0-.48.396-.915.924-.915s.924.392.924.915-.396.915-.924.915-.924-.436-.924-.915zm0 9.415c0-.48.396-.916.924-.916s.924.393.924.916-.396.915-.924.915-.924-.436-.924-.915z" transform="translate(12.000000, 11.000000)"/>
                </g>
            </g>
        </g>
    </g>
</svg>
