<svg xmlns="http://www.w3.org/2000/svg" width="26" height="25" viewBox="0 0 26 25">
    <g fill-rule="nonzero">
        <g>
            <path d="M8.624 15.635H6.29v-2.093h2.37c1.968 0 2.1 2.093-.035 2.093zm7.084-2.788h3.163c-.122-1.787-2.861-2.06-3.163 0zM8.576 9.375H6.29v2.083h2.504c1.754 0 2.03-2.083-.217-2.083zm16.58-4.167v14.584c0 2.876-2.346 5.208-5.24 5.208H5.24C2.346 25 0 22.668 0 19.792V5.208C0 2.332 2.346 0 5.24 0h14.675c2.895 0 5.241 2.332 5.241 5.208zM14.674 8.333h5.241V7.292h-5.24v1.041zm-3.723 3.77c2-1.015 1.926-4.74-1.9-4.797H4.193V17.7H8.71c4.74 0 4.66-4.723 2.24-5.598zm9.944.626c-.287-1.836-1.601-3.073-3.755-3.073-2.195 0-3.514 1.396-3.514 4.112 0 2.74 1.433 3.94 3.58 3.94 2.149 0 3.257-1.182 3.565-2.083h-2.213c-.771.89-3.032.543-2.9-1.41h5.303c.01-.66-.012-1.134-.066-1.486z" transform="translate(-779.000000, -724.000000) translate(779.000000, 724.000000)"/>
        </g>
    </g>
</svg>
