<svg xmlns="http://www.w3.org/2000/svg" width="26" height="25" viewBox="0 0 26 25">
    <g>
        <path d="M12.578 0C9.162 0 8.734.014 7.392.075 6.053.135 5.14.347 4.34.656c-.827.32-1.529.747-2.228 1.442-.7.695-1.13 1.392-1.45 2.214-.312.795-.524 1.704-.585 3.034C.014 8.68 0 9.106 0 12.5c0 3.395.014 3.82.076 5.154.06 1.33.273 2.239.584 3.034.322.822.752 1.52 1.451 2.214.7.695 1.4 1.122 2.228 1.442.8.309 1.714.52 3.053.58 1.342.062 1.77.076 5.186.076s3.844-.014 5.186-.075c1.339-.06 2.253-.272 3.053-.581.827-.32 1.529-.747 2.228-1.442.7-.695 1.13-1.392 1.45-2.214.312-.795.524-1.704.586-3.034.06-1.334.075-1.76.075-5.154 0-3.395-.014-3.82-.075-5.154-.062-1.33-.274-2.239-.585-3.034-.322-.822-.752-1.52-1.45-2.214-.7-.695-1.402-1.122-2.229-1.442-.8-.309-1.714-.52-3.053-.58C16.422.013 15.994 0 12.578 0zm0 2.252c3.359 0 3.756.013 5.083.073 1.226.056 1.892.26 2.335.43.587.227 1.006.498 1.447.936.44.437.712.853.94 1.437.173.44.378 1.102.434 2.32.06 1.319.073 1.714.073 5.052 0 3.338-.013 3.733-.073 5.051-.056 1.219-.261 1.88-.434 2.321-.228.584-.5 1-.94 1.437-.44.438-.86.709-1.447.935-.443.172-1.109.375-2.335.43-1.326.061-1.724.074-5.083.074s-3.756-.013-5.083-.073c-1.226-.056-1.892-.26-2.335-.43-.587-.227-1.006-.498-1.446-.936-.44-.437-.713-.853-.941-1.437-.173-.44-.377-1.102-.433-2.32-.06-1.319-.074-1.714-.074-5.052 0-3.338.013-3.733.074-5.051.056-1.219.26-1.88.433-2.321.228-.584.5-1 .94-1.437.44-.438.86-.709 1.447-.935.443-.172 1.11-.375 2.335-.43 1.327-.061 1.725-.074 5.083-.074z" transform="translate(-941.000000, -724.000000) translate(941.312500, 724.000000)"/>
        <path d="M12.578 16.667c-2.315 0-4.193-1.866-4.193-4.167 0-2.301 1.878-4.167 4.193-4.167 2.316 0 4.193 1.866 4.193 4.167 0 2.301-1.877 4.167-4.193 4.167zm0-10.586c-3.567 0-6.459 2.874-6.459 6.419 0 3.545 2.892 6.419 6.46 6.419 3.566 0 6.458-2.874 6.458-6.419 0-3.545-2.892-6.419-6.459-6.419zM20.802 5.827c0 .829-.676 1.5-1.51 1.5-.833 0-1.509-.671-1.509-1.5 0-.828.676-1.5 1.51-1.5.833 0 1.509.672 1.509 1.5" transform="translate(-941.000000, -724.000000) translate(941.312500, 724.000000)"/>
    </g>
</svg>
