<svg xmlns="http://www.w3.org/2000/svg" width="130" height="29" viewBox="0 0 130 29">
    <g fill="none" fill-rule="evenodd">
        <g fill="#011733">
            <g>
                <path d="M126.576.044c.993-.062 1.985-.043 2.98-.036-2.982 6.225-5.854 12.499-8.777 18.751-.808.012-1.616.01-2.422-.007-1.344-3.148-2.896-6.21-4.296-9.334.969-.018 1.937-.028 2.906-.002.84 1.925 1.827 3.783 2.596 5.737 2.343-5.035 4.755-10.038 7.013-15.109M51.671 2.715c1.92.02 3.84.014 5.761.002-.028 1.712-.016 3.424-.012 5.136-1.923-.029-3.848-.005-5.77-.014.026-1.707-.006-3.417.021-5.124M25.759 13.31c-1.283.613-1.918 2-2.199 3.323 2.56-.012 5.121-.01 7.682 0-.166-1.029-.513-2.09-1.304-2.812-1.096-1.058-2.846-1.089-4.18-.512zm-3.064-3.256c3.922-2.225 9.619-1.463 12.27 2.374 1.626 2.27 2.086 5.15 2.07 7.885-4.503.038-9.006-.005-13.508.021.206 1.393.805 2.858 2.09 3.58 1.822 1.064 4.704.762 5.625-1.357 1.846-.06 3.697-.046 5.545.005-.582 2.128-2.117 3.917-4.068 4.922-2.1 1.146-4.603 1.374-6.936.978-2.45-.393-4.75-1.781-6.135-3.858-1.506-2.196-1.921-4.993-1.566-7.597.37-2.856 2.066-5.558 4.613-6.953zM83.685 13.321c-1.628.569-2.374 2.338-2.61 3.92-.19 1.995-.164 4.24 1.135 5.891 1.384 1.803 4.443 1.753 5.83-.019 1.164-1.443 1.324-3.407 1.214-5.188-.089-1.565-.62-3.251-1.942-4.203-1.047-.714-2.448-.827-3.627-.4zm-.66-4.262c3.093-.556 6.52.094 8.893 2.244 4.059 3.6 4.231 10.595.467 14.467-2.973 3.102-7.971 3.682-11.793 1.927-2.956-1.333-4.968-4.354-5.313-7.547-.144-1.849-.064-3.772.71-5.488 1.155-2.934 3.946-5.085 7.037-5.603zM103.589 10.133c1.901-1.5 4.627-1.66 6.825-.757 1.569.67 2.753 2.061 3.287 3.668.617 1.647.434 3.43.458 5.15.012 3.291-.024 6.583.02 9.875-1.916.036-3.831-.005-5.747.019-.007-3.769.002-7.54-.005-11.307-.005-.98-.362-2.025-1.177-2.62-1.218-.84-3.019-.674-4.067.371-.824.837-1.196 2.043-1.176 3.201-.008 3.455.01 6.907-.008 10.362-1.891-.036-3.785 0-5.677-.017 0-6.226.014-12.452-.007-18.678 1.848.018 3.7-.022 5.55.024-.022.86-.029 1.718-.046 2.58.573-.64 1.063-1.365 1.77-1.87M0 9.409c1.988-.01 3.973-.01 5.958 0 1.191 4.016 2.481 8.005 3.618 12.036 1.378-3.961 2.442-8.032 3.73-12.027 1.923-.03 3.846-.009 5.768-.014-2.195 6.217-4.351 12.448-6.509 18.677-1.992.012-3.984-.027-5.974.024C4.328 21.898 2.304 15.602 0 9.409M38.34 9.406c1.835-.01 3.671.003 5.508-.006-.017 1.047-.005 2.097-.058 3.145.482-.525.816-1.165 1.312-1.68 1.24-1.353 3.253-1.917 5.02-1.449-.017 1.645-.017 3.287 0 4.932-1.417-.166-2.975-.103-4.176.755-1.283.902-1.856 2.527-1.839 4.047-.015 2.975-.005 5.953-.003 8.928-1.922.012-3.843-.014-5.763.015.022-6.23.022-12.458 0-18.687M51.65 9.414c1.927-.026 3.855.002 5.782-.014-.034 6.228-.012 12.46-.012 18.69-1.923-.016-3.848-.01-5.77-.004.018-6.224.018-12.449 0-18.672M58.99 9.395c5.203.023 10.405-.005 15.608.017-.053 1.426.003 2.852-.024 4.28-.177.358-.494.627-.745.934-2.68 2.963-5.297 5.984-7.996 8.933 3.062.06 6.123.007 9.185.029-.007 1.503.002 3.004-.007 4.507-5.34-.024-10.679-.021-16.018 0-.007-1.443.007-2.889-.007-4.332 2.788-3.136 5.586-6.265 8.412-9.367.082-.163.422-.32.247-.528-2.876.084-5.758 0-8.635.046-.031-1.506-.012-3.014-.02-4.52" transform="translate(-505.000000, -1851.000000) translate(505.000000, 1851.000000)"/>
            </g>
        </g>
    </g>
</svg>
