<svg xmlns="http://www.w3.org/2000/svg" xmlns:xlink="http://www.w3.org/1999/xlink" width="185" height="22" viewBox="0 0 185 22">
    <defs>
        <path id="q4z1ej4bia" d="M0 0L185 0 185 20.925 0 20.925z"/>
    </defs>
    <g fill="none" fill-rule="evenodd">
        <g>
            <g>
                <g transform="translate(-478.000000, -2008.000000) translate(478.000000, 2008.000000) translate(0.000004, 0.432870)">
                    <mask id="4dqp3eiqpb" fill="#fff">
                        <use xlink:href="#q4z1ej4bia"/>
                    </mask>
                    <path fill="#1B1A19" d="M112.942 3.049c-.293 0-.458.207-.734.23-.202.047-.33.024-.533.047-.22 0-.348.023-.57.023-.183 0-.293-.023-.476-.023-.184-.023-.313-.07-.515-.07-.22 0-.348.07-.57.093-.22.023-.348 0-.568.023-.24.046-.368.184-.607.184-.129-.023-.22-.093-.367-.115-.183-.07-.294-.138-.477-.185-.295-.069-.478 0-.79 0-.369 0-.588-.046-.974-.046-.276-.023-.441-.068-.699 0-.183.023-.422-.068-.458.162-.037.161.055.252.129.368.072.139.164.161.256.277.147.138.257.23.368.414.11.207.183.345.22.577.074.275.036.46.055.713.02.276.054.46.091.76.038.345.074.552.093.921.018.207.018.368.018.599 0 .184 0 .3-.018.484-.037.253-.148.368-.184.598-.037.277-.019.46-.019.738-.018.276-.036.483-.055.783-.018.23-.073.368-.073.598.018.253.128.392.166.622.055.231.092.392.092.645 0 .323-.092.506-.13.806-.073.369-.147.6-.165.968-.037.46.055.76.074 1.244.018.483-.056.782.036 1.243.02.114.074.161.074.277 0 .184-.092.275-.166.437-.109.277-.202.437-.348.69-.037.093-.073.163-.129.23-.11.117-.239.117-.33.231-.092.138-.166.254-.147.438 0 .115.055.207.128.277.147.16.313 0 .514 0 .166 0 .276.045.46 0 .129-.023.202-.116.33-.139.129-.023.221-.045.35-.023.183 0 .275.115.44.139.368.068.588.023.956.023h.495c.11 0 .184.045.277 0 .109-.047.201-.162.22-.3.018-.16-.056-.277-.13-.415-.128-.298-.367-.321-.514-.598-.092-.138-.128-.253-.183-.415-.073-.16-.093-.3-.129-.484-.036-.23-.036-.391-.036-.621v-.323c0-.184.072-.276.072-.46-.017-.207-.072-.347-.146-.53-.054-.139-.165-.207-.165-.368 0-.116.074-.162.092-.277.055-.161.055-.276.055-.437 0-.161-.036-.3 0-.484.018-.116.073-.185.11-.323.037-.115.074-.207.091-.345.056-.3 0-.484 0-.806 0-.161-.037-.3.02-.461.072-.184.22-.23.366-.3.148-.069.24-.069.368-.069.275 0 .423.116.643.255.257.16.423.321.606.575.129.207.165.414.294.621.129.208.22.346.385.484.128.115.221.23.367.23.092 0 .184-.046.24-.115.092-.139.037-.276.037-.46 0-.185-.073-.277-.056-.461 0-.139.056-.184.056-.322s-.056-.208-.093-.346c-.073-.415-.019-.715 0-1.151.037-.392.129-.6.129-.99 0-.231.037-.393-.055-.577-.093-.184-.221-.253-.386-.253-.22 0-.293.253-.44.46-.092.116-.129.208-.22.346-.11.138-.185.254-.331.345-.166.092-.313.07-.496.116-.166.023-.276.023-.441.046-.166 0-.276.046-.442.023-.146-.023-.312-.023-.385-.185-.037-.091-.037-.184-.055-.298-.019-.162-.11-.254-.128-.439-.02-.185.037-.322.037-.506.017-.161.017-.254 0-.414 0-.139-.057-.23-.093-.369-.036-.207-.091-.322-.11-.553 0-.184-.018-.323.055-.507.037-.16.148-.207.202-.345.037-.115.055-.185.073-.3.037-.253-.055-.414-.036-.69.018-.161.018-.3.092-.46.073-.163.147-.255.256-.323.111-.07.204-.07.295-.116.091-.045.147-.093.22-.138.092-.069.146-.115.239-.162.147-.045.257-.022.404-.022.129 0 .221-.023.368-.023.239 0 .404.045.643.115.348.092.568.162.881.368.13.093.202.185.349.255.073.045.128.068.202.114.11.115.11.253.184.369.073.115.147.184.202.322.055.115.111.184.147.322.036.138 0 .254.036.392.056.184.111.3.203.438.074.115.13.23.238.253.112.046.202 0 .294-.046.129-.092.22-.184.257-.346.056-.207-.074-.346-.092-.553-.036-.23-.054-.368-.073-.575-.018-.185-.037-.3-.018-.484.018-.16.091-.253.11-.438.019-.16 0-.254.019-.414.018-.139.054-.254.073-.392.018-.138.056-.23.056-.368-.02-.184-.038-.322-.149-.437-.109-.116-.257-.093-.404-.116zM39.4 10.709c0 .14 0 .256-.052.373-.089.186-.266.162-.443.208-.16.024-.266.024-.425.024-.106 0-.177 0-.284-.024-.124-.022-.247 0-.353-.116-.107-.116-.107-.302-.125-.488-.018-.163-.018-.255-.036-.418 0-.186-.017-.325 0-.534.036-.232.125-.372.178-.58.035-.141.054-.258.089-.42.07-.209.16-.325.247-.533.054-.14.125-.21.16-.349.035-.14.018-.232.07-.35.019-.091.054-.138.107-.185.07-.046.16-.046.248-.023.106.023.195.046.266.162.035.093.07.164.052.28 0 .046-.052.07-.088.138-.035.094-.09.163-.09.28 0 .14.09.21.143.325.035.093.089.14.107.232.053.185-.018.326 0 .488.017.21.053.35.088.535.053.232.106.372.123.627.018.116.036.21.018.348zm4.516 7.739c-.16-.14-.301-.14-.443-.28-.16-.163-.265-.3-.354-.533-.071-.186-.053-.326-.106-.512-.07-.21-.124-.373-.248-.535-.07-.093-.177-.093-.23-.232-.07-.163-.018-.302-.036-.488 0-.162-.035-.256-.052-.419-.036-.162-.089-.278-.143-.464-.035-.093-.052-.186-.088-.28-.035-.138-.07-.231-.106-.37-.035-.14-.07-.233-.107-.372-.052-.163-.088-.279-.141-.441-.072-.233-.123-.373-.195-.605-.071-.232-.124-.395-.195-.605-.089-.255-.23-.371-.265-.65-.036-.231 0-.372 0-.604-.018-.186 0-.301-.054-.464-.017-.07-.052-.117-.088-.186-.053-.116-.07-.21-.106-.326-.052-.186-.052-.325-.089-.488-.035-.162-.088-.255-.106-.419-.035-.184.018-.324-.035-.487-.017-.14-.09-.209-.124-.325-.107-.302-.054-.535-.16-.837-.052-.186-.141-.278-.194-.464-.053-.163-.072-.303-.089-.465-.035-.255-.035-.441-.089-.697-.053-.256-.123-.418-.194-.65-.071-.21-.142-.326-.212-.535-.054-.186-.107-.325-.142-.511-.053-.186-.072-.303-.09-.465-.035-.256.037-.418-.035-.65-.018-.14-.052-.256-.158-.326-.107-.07-.213-.047-.337 0-.124.07-.213.163-.283.302-.16.278-.036.558-.054.906 0 .163 0 .303-.017.488 0 .14 0 .232-.018.372-.035.21-.071.349-.142.535-.035.092-.105.162-.14.278-.055.14-.055.28-.09.419-.053.231-.089.371-.16.58-.052.14-.106.233-.158.35-.054.186-.107.301-.16.463-.035.164-.071.256-.124.418-.053.14-.089.256-.142.396-.017.116-.035.186-.053.302-.053.21-.053.372-.124.581-.053.21-.106.349-.194.51-.054.117-.124.188-.177.303-.071.186-.071.326-.107.534-.035.186-.071.302-.105.465-.037.162-.054.28-.09.44-.07.234-.194.35-.3.582-.07.187-.141.325-.213.513-.072.208-.124.324-.177.533-.036.187-.07.326-.107.511l-.088.535c-.018.208.018.372-.07.557-.071.187-.23.187-.355.349-.105.186-.141.348-.23.534-.07.163-.141.256-.213.396-.159.372-.266.604-.407.998-.087.186-.106.325-.213.488-.105.187-.23.234-.371.35-.195.162-.3.3-.513.441-.143.092-.284.069-.39.231-.071.117-.124.233-.106.396.017.302.302.279.53.395.266.115.462.093.745.139.283.024.442.07.725.047.177 0 .302-.047.479-.047.265 0 .407.093.672.07.142 0 .302.092.39-.046.054-.07.071-.14.089-.232.035-.187.018-.35-.035-.512-.054-.14-.125-.232-.195-.325-.107-.116-.195-.163-.302-.256-.105-.14-.195-.208-.265-.394-.089-.14-.124-.279-.142-.465-.017-.21.053-.35.089-.58.053-.326.088-.536.195-.838.052-.186.141-.28.193-.465.072-.209.09-.37.144-.604.034-.14.052-.255.105-.395.053-.162.124-.256.178-.418.053-.185.07-.326.105-.512.053-.209.053-.348.143-.534.087-.185.176-.302.317-.394.142-.094.249-.117.408-.14.124-.023.195 0 .336 0 .089-.023.142-.023.23-.046.178 0 .284-.047.443-.047.212-.023.337-.046.53-.023.16 0 .267 0 .41.047.105.023.176.046.282.115.054.047.089.094.124.14.07.092.124.163.177.28.07.138.123.232.16.393.035.187-.018.303.018.466.035.162.087.255.159.372.035.092.07.139.106.208.07.163.036.325.07.488.036.14.054.21.107.35.035.115.088.185.141.277.071.186.213.232.232.442.033.14-.02.232-.02.372.02.232.072.372.143.58.035.117.07.186.106.303.035.14.053.256.071.395.017.186.017.302.017.464 0 .14-.017.233-.053.349-.052.21-.124.326-.264.442-.143.14-.285.116-.444.209-.124.07-.319.07-.319.256-.017.115.035.184.088.255.16.278.426.046.675.023.105 0 .175-.023.264-.023.266-.023.408-.047.673-.047.283 0 .442.024.726.024.337 0 .531.023.85.023.16 0 .266.07.408 0 .123-.047.23-.116.283-.279.052-.116.07-.232.052-.348-.034-.163-.14-.233-.247-.325zM32.014 4.83c-.018-.326.035-.557-.089-.836-.053-.14-.106-.233-.195-.326-.194-.233-.371-.302-.637-.372-.195-.068-.336-.068-.53-.068-.16 0-.267.045-.427.068-.123 0-.194.024-.336.024-.195-.024-.3-.163-.513-.21-.177-.022-.301 0-.496-.022-.23-.024-.371-.094-.62-.094-.248.024-.407.116-.654.163-.16.023-.284.046-.444.046-.195 0-.3-.068-.496-.046-.158 0-.265.093-.424.14-.177.046-.266.116-.443.116-.23 0-.372-.14-.602-.21-.212-.046-.337-.068-.549-.115-.195-.024-.301-.094-.496-.094-.194 0-.424 0-.531.116-.07.14-.142.256-.124.419.018.232.213.279.354.442.195.209.355.325.55.533.14.163.265.21.354.419.07.163.07.302.088.488.053.326.053.535.088.86.036.21.07.325.089.534.035.255.07.418.053.697-.035.233-.142.371-.213.604-.052.233-.07.397-.105.628-.035.278-.107.44-.09.697.018.163.09.256.09.418 0 .116-.054.185-.072.302-.017.163-.053.256-.035.418.018.21.178.279.212.488.036.163.07.303.036.465-.036.162-.16.21-.213.371-.088.28-.035.49-.017.791.017.208.07.348.07.581 0 .278-.088.442-.088.72 0 .186.035.325.035.488.018.418-.017.697-.035 1.138-.018.257-.018.419-.018.698-.017.232-.017.395-.052.627-.019.256-.019.419-.107.65-.088.186-.177.28-.319.419-.141.162-.247.232-.407.349-.158.114-.319.114-.407.301-.053.117-.09.21-.09.349.019.302.09.348.532.348.46 0 .956.047 1.559 0 .248-.023.407-.093.655-.093.23 0 .371.023.584.023.283.024.46.024.744.07.195.024.337.116.549.116.195 0 .336-.07.531-.092.354-.047.584-.024.956-.024.301 0 .478-.023.78 0 .176 0 .3.047.494.047.249.023.443.186.675 0 .176-.117.246-.28.318-.511.071-.233.071-.396.071-.651-.018-.21-.09-.35-.125-.58-.018-.21-.07-.372-.018-.582.036-.14.16-.185.178-.349.036-.139-.017-.255-.017-.395-.018-.232.07-.44-.054-.604-.053-.093-.125-.164-.212-.185-.141-.024-.23.069-.355.14-.266.208-.3.51-.425.882-.053.209-.053.372-.123.557-.054.094-.106.164-.16.257-.16.255-.23.44-.442.603-.142.116-.266.163-.443.21-.16.046-.283-.024-.443.022-.106.047-.16.094-.266.14-.212.115-.371.164-.618.186-.232 0-.39.024-.62-.093-.16-.07-.249-.186-.373-.325-.123-.116-.213-.21-.283-.395-.088-.186-.088-.348-.106-.557-.035-.233-.07-.373-.07-.605 0-.209.016-.326.035-.534.017-.186.088-.303.07-.488 0-.186-.089-.278-.106-.465-.019-.162 0-.279-.019-.441-.017-.14-.07-.233-.07-.396 0-.185.09-.278.125-.463.07-.257.105-.42.123-.699 0-.278-.035-.464-.088-.72-.054-.185-.143-.301-.16-.488-.017-.163-.035-.279.017-.418.072-.138.213-.138.355-.162.212-.023.354.07.55.162.211.116.3.326.513.441.141.07.23.093.372.14.158.07.283.07.407.21.124.162.088.37.195.557.14.232.247.465.46.441.177-.047.319-.186.336-.418.053-.512 0-.86-.035-1.393-.036-.326-.177-.536-.124-.86.036-.163.106-.256.142-.42.034-.208.034-.37.034-.603 0-.279.09-.581-.088-.743-.088-.07-.177-.094-.283-.094-.23.024-.283.325-.425.558-.106.21-.106.442-.283.581-.088.07-.178.093-.283.14-.177.093-.266.208-.443.278-.195.07-.319.092-.513.092-.09 0-.143-.022-.213-.022-.124-.047-.212-.047-.301-.162-.089-.118-.07-.28-.089-.442-.017-.21-.035-.372-.017-.58.017-.187.088-.303.088-.489.018-.21.018-.348-.018-.558-.018-.139-.088-.233-.106-.371-.053-.21-.106-.325-.088-.535 0-.256.124-.371.176-.604.054-.255.125-.418.125-.673.018-.255-.018-.396-.071-.628-.036-.255-.16-.395-.142-.675 0-.208.018-.347.124-.51.107-.14.212-.187.354-.232.16-.047.266-.024.425 0 .213.022.355.07.549.161.16.095.213.28.372.28.124 0 .177-.092.301-.117.124-.045.213-.092.354-.092.142 0 .248.047.39.092.39.117.584.35.938.604.213.14.39.164.531.396.106.185.09.372.178.557.124.233.23.512.442.512.089 0 .16-.024.23-.093.16-.14.107-.372.107-.628.017-.28-.036-.442-.071-.72zm71.341 12.797c0-.115.018-.207.018-.323 0-.16.018-.276 0-.437-.018-.138-.092-.253-.092-.391s.036-.208.055-.322c.02-.138.092-.231.055-.346-.036-.207-.202-.277-.367-.3-.184 0-.295.139-.405.323-.109.185-.054.369-.146.552-.037.093-.073.138-.11.23-.037.116-.056.208-.092.346-.055.184-.11.323-.202.484-.11.184-.203.322-.368.415-.22.114-.385 0-.625 0-.09-.024-.164-.046-.275-.046-.129 0-.22.068-.349.092-.514.068-.826-.046-1.323-.139-.202-.046-.33-.046-.514-.115-.257-.092-.496-.092-.643-.346-.073-.114-.092-.252-.147-.368-.056-.115-.129-.184-.183-.299-.11-.254-.056-.483-.037-.783 0-.207 0-.347.037-.53.036-.184.11-.276.147-.438.018-.138-.02-.23 0-.368 0-.138.018-.208.018-.346 0-.322-.038-.507-.11-.806-.055-.161-.147-.253-.184-.437-.127-.392-.055-.691-.055-1.106 0-.345.018-.553.055-.897.018-.185.018-.3.055-.461.037-.092.11-.162.128-.254 0-.115-.036-.16-.054-.253-.037-.139-.092-.231-.166-.322-.072-.116-.331-.07-.294-.231.019-.046.056-.069.074-.116.073-.16.11-.276.166-.46.036-.138.073-.253.11-.391.036-.231.018-.392.018-.622.018-.23.036-.415.055-.645V6.39c-.019-.231-.074-.392-.037-.599.037-.208.128-.3.184-.483.073-.23.055-.392.147-.6.073-.184.146-.276.257-.414.092-.116.183-.185.312-.276.129-.116.257-.138.35-.3.054-.093.11-.184.092-.276-.019-.139-.147-.161-.258-.207-.166-.07-.275.068-.46.046-.128 0-.22-.024-.349-.046-.147-.024-.257-.07-.404-.07-.294.023-.44.253-.734.3-.239.022-.386-.023-.643-.023-.166 0-.276.022-.46 0-.182-.046-.293-.139-.496-.185-.164-.022-.293-.069-.459-.046-.165 0-.312-.069-.422.07-.073.137-.055.253-.036.414.018.185.09.3.183.438.092.115.184.16.295.252.146.116.275.139.385.323.073.092.11.208.165.346.055.092.11.161.146.276.037.138 0 .253 0 .415-.018.138-.018.23-.036.346v.76c.018.207.036.368.055.575 0 .23.018.369.018.599.02.345.074.553.02.898-.038.276-.167.415-.221.69-.038.208-.056.347-.056.554.018.23-.018.391.074.552.036.046.074.07.092.116.036.093.018.184.018.3 0 .16-.036.276-.055.46-.037.208-.02.369-.055.6-.037.252-.11.413-.129.69-.018.207-.036.345 0 .552.018.208.073.324.129.53.055.23.128.369.165.622.038.185.092.346.038.553-.02.138-.148.206-.185.346-.036.16-.018.299-.018.459-.018.347 0 .553-.018.899-.019.208 0 .346-.056.553-.055.207-.165.322-.293.483-.129.162-.258.208-.404.346-.147.115-.276.161-.368.323-.092.114-.183.207-.166.368.02.116.074.184.166.253.147.139.294.093.478.115.183.024.311 0 .496 0 .2 0 .33-.046.533-.046.257-.023.421.024.66 0 .184-.046.313-.114.497-.161.147-.023.257-.045.403-.023.129.023.221.093.368.115.147.046.256.07.404.093.57.068.9 0 1.47 0 .404 0 .661.022 1.065 0 .22-.024.35-.07.588-.07.11 0 .183.023.293.046.386.024.625-.023 1.01-.046.313 0 .589.184.846-.068.073-.07.11-.14.166-.231.201-.414-.038-.783 0-1.267zM52.657 3.089c-.16.022-.267.047-.425.092-.124.023-.212.07-.355.116-.193.047-.3.14-.513.14-.194 0-.3-.093-.478-.163-.142-.07-.23-.163-.372-.185-.177-.024-.283 0-.443 0-.336 0-.55.047-.885.07-.123 0-.23-.023-.354.022-.107.048-.16.14-.265.21-.125.045-.213.045-.338.07-.141.045-.23.138-.371.162-.266.023-.444-.14-.709-.21-.124-.022-.212-.07-.353-.092-.248-.047-.39-.14-.639-.163-.14-.022-.247-.069-.389-.047-.106.025-.177.07-.265.093-.106.047-.177.093-.265.117-.16.07-.249.14-.408.14-.301.021-.425-.28-.725-.372-.16-.047-.267-.094-.443-.094-.089 0-.143 0-.213.047-.125.023-.23.07-.301.232-.036.093-.018.186-.018.303.018.162.072.255.107.395.052.163.141.256.141.418 0 .163-.071.231-.071.394 0 .14.071.233.071.396 0 .14-.019.232-.019.371-.016.118-.035.21-.052.325-.018.094-.053.163-.07.28 0 .116-.018.208.035.3.052.117.16.164.283.164.159 0 .23-.164.337-.326.07-.115.106-.231.195-.347.07-.07.159-.094.212-.187.071-.116.053-.255.088-.372.071-.208.16-.324.3-.464.143-.14.267-.186.444-.256.124-.069.248-.069.372-.163.088-.046.106-.139.195-.185.123-.092.23-.117.354-.092.141.022.212.138.32.231.122.094.194.187.3.325.052.07.124.117.177.233.07.163.035.325.088.511.018.116.054.185.088.303.018.116.071.208.09.324.034.257 0 .442-.037.698 0 .069-.016.14-.016.208-.019.14-.037.233-.037.372-.017.279.053.651 0 .767-.052.093.053.187.09.279.017.116.052.209.088.326.035.278 0 .464 0 .743 0 .21.017.348 0 .558l-.054.278c-.106.79.018 1.301-.017 2.091 0 .163-.018.28-.018.442 0 .325.035.534.053.861.036.394.036.65.053 1.044 0 .186.018.302.018.488s-.053.302-.07.488v.326c.017.186.07.302.07.464.019.233 0 .394-.018.605-.017.255 0 .419-.088.65-.089.232-.23.35-.408.488-.106.093-.194.116-.3.21-.124.092-.213.162-.267.348-.017.139-.017.255.036.37.036.14.089.256.213.28.106.047.176-.07.283-.116.213-.046.336-.093.549-.14.23-.023.39-.023.62-.023.3 0 .496.023.796.023.444.024.727-.093 1.17 0 .14.047.23.094.371.117.195.023.337.115.513 0 .071-.047.143-.07.178-.163.07-.185-.07-.302-.16-.464-.177-.326-.46-.28-.69-.535-.23-.256-.355-.441-.496-.812-.107-.304-.177-.49-.177-.838 0-.186.036-.302.052-.488.018-.231.107-.372.09-.58l-.053-.21c-.037-.14-.071-.232-.09-.37 0-.187.09-.303.071-.49-.018-.115-.07-.185-.088-.278-.053-.233-.035-.418-.053-.65 0-.303.036-.511-.018-.813-.017-.141-.088-.234-.106-.373-.053-.325-.035-.557.018-.883.018-.116.053-.185.071-.303.053-.417.017-.696-.018-1.092-.017-.208-.053-.324-.07-.533-.054-.534-.054-.883.017-1.418.018-.139.071-.233.071-.371 0-.163-.035-.255-.053-.396-.036-.395-.018-.65-.018-1.068 0-.534-.071-.86 0-1.371.036-.255-.018-.51.142-.65.087-.093.176-.07.3-.093.16 0 .266.045.408.092.142.047.214.14.336.14.124 0 .195-.047.319-.07.053-.023.106-.092.177-.092.142-.025.213.138.318.231.196.14.354.187.514.395.142.21.23.372.283.605.053.21.037.372.07.58.037.163.02.325.108.442.106.116.23.139.354.116.106-.024.213-.046.248-.185.017-.07 0-.118 0-.186 0-.373-.053-.604 0-.954.053-.325.159-.51.248-.813.07-.278.159-.44.177-.72 0-.257.053-.488-.09-.65-.141-.14-.282 0-.441 0zm17.059 4.228c-.071.133-.107.312-.249.312-.106 0-.16-.089-.23-.2-.126-.157-.126-.335-.143-.557-.018-.223.017-.356 0-.58 0-.155 0-.266-.036-.422-.053-.156-.124-.223-.177-.379-.071-.133-.178-.2-.178-.356 0-.134.036-.223.107-.312.07-.067.159-.067.266-.089.106-.022.196 0 .302-.044.124-.045.195-.178.32-.178.124.022.212.09.283.2.125.155.125.334.143.534.018.223 0 .356-.035.579-.018.29-.09.468-.143.735-.07.29-.088.512-.23.757zm6.18-3.94c-.16-.112-.301.066-.497.088-.39.045-.622.111-1.012.111-.249 0-.409 0-.657-.022-.214-.022-.338-.133-.55-.11-.16 0-.268-.045-.392.066-.089.11-.124.244-.124.422-.019.18 0 .312.088.446.071.112.197.112.302.178.197.089.356.089.515.245.18.178.214.379.285.646.124.4.088.69.036 1.113-.036.29-.107.446-.16.712-.054.245-.09.402-.16.625-.107.31-.249.445-.356.756-.07.244-.107.4-.16.646-.052.289-.124.489-.142.801-.017.134.018.223-.035.357-.035.11-.125.155-.178.266-.107.268 0 .535-.089.824-.053.178-.124.268-.195.446-.053.133-.107.223-.16.379-.053.222-.035.379-.107.578-.034.134-.088.223-.16.335-.07.155-.194.176-.23.333-.036.134.036.245 0 .378-.036.09-.071.18-.142.224-.107.044-.196-.068-.284-.156-.124-.09-.196-.201-.249-.38-.053-.199.107-.355.018-.533-.036-.112-.142-.134-.213-.223-.107-.111-.213-.177-.302-.334-.107-.178-.143-.356-.16-.579-.018-.223.035-.378.053-.624 0-.311.036-.512-.036-.823-.035-.156-.088-.267-.141-.424-.071-.178-.16-.267-.213-.467-.072-.222-.108-.4-.108-.668 0-.29.09-.468.16-.734.09-.334.197-.512.285-.846.071-.223.089-.38.16-.58.035-.134.09-.221.124-.333.053-.112.107-.179.142-.29.053-.179 0-.334.071-.512.054-.178.16-.245.267-.356.142-.134.23-.223.39-.334.178-.134.302-.179.498-.29.142-.067.266-.044.355-.178.09-.112.141-.223.141-.379 0-.178-.141-.222-.23-.378-.07-.133-.088-.29-.196-.356-.124-.111-.247-.044-.39-.044-.195.022-.303.088-.48.11-.195.045-.337.09-.532.112-.356.045-.568.067-.924 0-.213-.023-.337-.09-.55-.134-.196-.022-.32-.044-.516-.044-.337-.022-.55-.022-.888.022-.231.022-.373.133-.603.133-.125 0-.196-.044-.32-.044-.195-.044-.338-.067-.551-.067-.196 0-.32-.022-.516 0-.088.023-.176-.022-.265.067-.108.112-.054.311-.036.49 0 .133.018.245.071.357.035.155.088.266.196.333.088.067.176.022.266.09.107.066.142.177.196.311.088.178.123.334.195.535.07.155.106.266.16.423.053.133.089.244.16.356.052.133.106.2.177.311.107.2.16.334.267.535.053.11.124.178.16.311.053.134.034.246.053.401.035.29.07.446.159.713.071.244.213.378.303.623.106.29.16.49.248.78.053.178.142.266.16.468 0 .177-.072.288-.089.467-.035.244 0 .4-.035.623-.018.156-.054.267-.107.423-.07.246-.125.423-.25.668-.07.135-.141.2-.212.334-.089.156-.16.245-.23.445-.054.179-.054.334-.09.557-.054.156-.035.334-.142.445-.071.044-.16.067-.266.067-.143-.023-.213-.134-.338-.245-.088-.066-.178-.11-.23-.244-.071-.18-.035-.335.017-.513.018-.111.071-.157.107-.267.035-.134.089-.223.089-.356 0-.178-.107-.244-.16-.401-.071-.244-.071-.446-.195-.668-.053-.11-.125-.156-.197-.245-.088-.111-.212-.155-.247-.312-.018-.111.053-.2.017-.334-.017-.111-.107-.156-.142-.267-.053-.156-.09-.267-.071-.423 0-.133.09-.2.106-.334.019-.134-.017-.245-.035-.379-.035-.155-.09-.244-.143-.4-.052-.155-.141-.245-.194-.401-.072-.178-.125-.29-.16-.445-.036-.178-.018-.312-.036-.49-.053-.267-.16-.423-.213-.713-.018-.2.037-.378-.035-.555-.036-.112-.09-.157-.142-.246-.107-.267-.195-.446-.143-.712.018-.134.072-.223.107-.335.036-.133.018-.267.089-.379.089-.133.23-.089.337-.177.071-.09.16-.178.178-.312.018-.156-.107-.245-.142-.4-.036-.178.017-.335-.09-.491-.053-.089-.122-.133-.194-.177-.213-.09-.337.133-.55.177-.25.045-.392.09-.623.09-.177-.023-.267-.045-.444-.09-.088-.022-.16-.066-.266-.089-.302-.066-.497.089-.817.089-.285-.022-.462-.066-.729-.133-.177-.044-.284-.156-.479-.156-.106.023-.23 0-.284.112-.054.133.035.244.07.378.072.222.162.334.285.556.106.179.16.334.32.468.178.178.391.066.568.245.09.09.143.2.196.312.142.244.213.423.337.69.071.133.142.223.195.378.16.38.107.668.214 1.091.088.401.177.647.284 1.047.088.4.177.646.248 1.068.018.179.018.313.054.491.053.155.106.245.177.378.107.222.195.334.285.534.07.156.16.245.194.423.036.156 0 .245 0 .424v.511c.036.29.054.514.16.758.072.134.178.178.232.334.036.111.018.223.036.334.052.312.124.49.23.778.071.223.195.357.266.602.036.134.036.245.054.4.035.157.088.245.142.402.071.267.142.445.195.712.053.178.07.312.106.49.036.156.072.267.125.423.054.156.125.223.178.379.036.2-.036.378.018.556.052.179.124.267.212.4.108.135.125.312.268.357.16.045.265-.066.39-.2.089-.09.124-.2.177-.334.054-.156.072-.267.107-.446.071-.289.089-.467.195-.734.072-.178.142-.267.213-.424.107-.2.196-.333.249-.556.035-.178.017-.334.07-.512.019-.044.054-.09.054-.156.035-.112.018-.223.035-.334.018-.267.036-.423.108-.668.052-.2.088-.357.178-.512.052-.112.106-.156.16-.267.034-.089.016-.179.052-.267.09-.224.16-.401.338-.468.142-.045.266-.045.373.045.16.111.195.289.231.511.018.135-.036.246 0 .38.035.177.107.221.176.378.072.156.108.29.179.445.071.178.088.312.178.467.07.156.16.201.212.335.072.177.018.312.072.49.07.2.178.267.267.467.105.2.16.356.23.579.035.178.07.29.088.468 0 .178-.053.267-.053.422.018.29.072.49.231.669.107.134.214.222.391.222.142 0 .25-.088.356-.222.088-.112.123-.245.177-.424.036-.155.053-.289.089-.466.035-.157.071-.246.107-.424.035-.178.017-.334.07-.512.036-.178.09-.268.124-.423.072-.246.108-.401.16-.646.036-.222.036-.379.09-.579.017-.066.053-.133.07-.2.089-.267.142-.445.196-.757.018-.134.018-.245.071-.4.035-.157.125-.224.177-.38.072-.222.107-.378.142-.623.053-.245.053-.4.125-.646.035-.177.106-.29.142-.468.09-.266.107-.467.178-.757.053-.2.088-.333.16-.512.09-.2.213-.288.283-.49.143-.266.16-.49.231-.823.125-.534.232-.868.302-1.447.018-.2.036-.334.072-.513.035-.245.106-.356.177-.6.053-.246 0-.468.123-.669.054-.066.108-.088.162-.156.07-.134.035-.266.106-.4.071-.111.195-.156.284-.267.178-.179.301-.312.427-.558.106-.177.178-.311.231-.555.035-.201.053-.357.017-.58-.036-.178-.054-.356-.178-.445zM19.29 9.616c-.23.35-.404.535-.749.674-.155.07-.27.093-.423.117-.232.046-.404.186-.616.069-.038-.023-.078-.093-.136-.117-.153-.069-.268.094-.441.048-.193-.024-.307-.14-.443-.28-.115-.093-.173-.185-.25-.3-.25-.49-.019-.932 0-1.488 0-.232.077-.396.02-.604 0-.094-.02-.14-.058-.21-.096-.139-.288 0-.366-.139-.038-.117 0-.232.038-.349.02-.162.116-.232.155-.394.058-.188.038-.326.077-.534.039-.326.02-.535.115-.814.077-.232.135-.372.269-.558.097-.117.192-.21.327-.279.174-.069.309-.069.48-.069.117.023.194.047.29.07.135.023.23.045.366.093.173.046.307.068.48.162.116.069.193.14.288.256.097.116.135.232.211.348.117.163.232.209.347.372.154.233.25.419.308.72.038.162.038.279.038.442.02.185.02.302.059.465.037.231.153.347.172.58.02.116.04.21.04.326-.02.163-.04.28-.097.395-.04.092-.097.116-.135.186-.192.255-.192.534-.366.812zm2.904 7.739c-.191-.024-.326-.024-.518-.095-.154-.068-.27-.139-.385-.3-.135-.187-.154-.373-.211-.629-.02-.185-.02-.301-.04-.463-.038-.21-.095-.35-.153-.56-.076-.347-.153-.533-.193-.882-.038-.279-.019-.464-.038-.767-.038-.325-.057-.534-.134-.86-.077-.371-.096-.626-.309-.906-.095-.138-.211-.186-.325-.278-.097-.093-.232-.093-.232-.233-.02-.115.077-.185.135-.278.097-.092.192-.116.307-.186.173-.116.289-.162.462-.233.115-.07.21-.092.309-.186.114-.116.152-.255.23-.394.134-.186.23-.279.346-.465.154-.232.268-.349.385-.605.076-.185.153-.325.192-.532.038-.234.02-.396.02-.652 0-.303-.02-.488-.077-.79-.04-.349-.097-.58-.213-.907-.095-.255-.173-.417-.307-.627-.154-.256-.27-.395-.462-.604-.172-.186-.289-.325-.48-.487-.405-.35-.674-.536-1.136-.745-.153-.046-.25-.115-.422-.14-.135-.022-.232.025-.385 0-.135-.022-.212-.092-.347-.138-.192-.07-.327-.117-.519-.14-.308-.07-.52-.093-.865-.093-.288 0-.462.048-.73.093-.213.023-.367 0-.579.047-.134.046-.211.161-.365.14-.115 0-.173-.117-.307-.164-.193-.068-.347 0-.559 0-.25 0-.403-.023-.634-.023-.154-.023-.27-.093-.423-.045-.115.068-.193.138-.25.277-.077.14-.04.28 0 .466.038.186.135.302.25.418.115.115.25.115.365.231.096.117.154.233.192.396.039.163-.057.325.02.465.057.093.135.116.173.187.135.231-.058.463-.038.743 0 .255.038.394.057.65.038.325.077.534.077.859 0 .372-.039.583-.039.93-.038.558-.057.883-.057 1.417v.558c0 .442.038.72.057 1.161 0 .558.058.906.02 1.487-.02.304-.077.49-.096.813-.04.49 0 .815 0 1.325 0 .488.096.79.038 1.301-.038.373-.057.605-.212.93-.115.255-.25.395-.461.581-.154.14-.328.14-.442.349-.077.116-.135.232-.135.371.038.325.423.186.673.21.27.023.424-.024.673-.07.27-.024.442-.117.712-.14.135-.023.25-.023.404-.023.153 0 .25.046.404.046.289.023.462.023.77 0 .23 0 .365 0 .596-.023.173-.023.307 0 .48-.092.077-.024.192-.024.212-.14.02-.116-.097-.163-.173-.232-.231-.28-.539-.21-.79-.488-.133-.164-.21-.303-.288-.488-.115-.325-.134-.534-.173-.883-.038-.371.097-.627-.019-.976-.038-.163-.095-.256-.191-.396-.059-.069-.175-.069-.175-.184-.019-.117.059-.187.096-.28.059-.14.155-.209.232-.348.096-.28.038-.511.038-.814 0-.279-.019-.442-.077-.697-.038-.28-.211-.395-.193-.673 0-.14.02-.234.079-.349.114-.233.307-.256.538-.325.23-.07.404-.14.634-.094.29.07.442.21.654.42.23.231.309.44.462.742.115.232.212.372.289.627.134.396.115.674.115 1.116 0 .255-.038.418-.02.675.02.417.173.65.29 1.067.095.35.172.559.287.906.077.233.116.374.213.605.076.163.173.232.249.395.039.117.057.186.096.302.135.256.231.419.423.58.212.187.385.35.635.303.135 0 .212-.07.327-.14.25-.139.424-.255.616-.51.23-.303.269-.559.404-.906.077-.187.327-.372.192-.488-.077-.07-.154-.023-.25-.023zm161.64 1.738c-.526 0-.952-.443-.952-1.009 0-.554.426-1.003.948-1.003h.005c.527 0 .948.45.948 1.008 0 .56-.421 1.01-.948 1.004zm0-2.197h-.004c-.648 0-1.175.529-1.175 1.188 0 .672.527 1.195 1.175 1.195.653 0 1.169-.523 1.169-1.195 0-.66-.516-1.188-1.164-1.188zM181.72 5.008c-.019-.316.04-.542-.098-.813-.06-.137-.117-.228-.216-.316-.218-.228-.415-.295-.712-.364-.216-.068-.375-.068-.592-.068-.177 0-.295.046-.473.068-.138 0-.218.023-.376.023-.216-.023-.335-.158-.571-.203-.199-.023-.337 0-.553-.023-.257-.022-.415-.09-.691-.09-.276.024-.454.113-.73.158-.178.022-.316.045-.493.045-.218 0-.337-.067-.554-.045-.176 0-.295.09-.473.135-.198.046-.296.113-.493.113-.258 0-.414-.135-.671-.203-.237-.045-.376-.067-.612-.113-.217-.022-.336-.09-.553-.09-.216 0-.474 0-.592.113-.079.135-.158.249-.138.408.02.224.237.271.395.428.217.204.393.317.612.521.158.158.295.202.394.406.08.16.08.294.1.475.057.317.057.52.097.836.04.203.08.316.099.52.04.248.08.407.06.68-.04.224-.16.36-.238.586-.058.227-.078.385-.118.611-.04.27-.118.43-.099.679.02.157.099.247.099.406 0 .114-.06.181-.08.293-.019.159-.058.25-.038.408.02.203.197.272.236.475.04.159.079.294.04.45-.04.16-.177.205-.237.362-.1.272-.04.476-.02.77.02.203.08.339.08.565 0 .27-.1.43-.1.702 0 .18.04.315.04.474.02.406-.02.677-.04 1.107-.019.249-.019.407-.019.679-.02.226-.02.384-.06.61-.02.249-.02.406-.118.632-.098.181-.196.272-.355.407-.158.16-.276.226-.454.34-.177.112-.356.112-.454.294-.058.113-.098.202-.098.338.02.294.098.34.59.34.515 0 1.068.046 1.739 0 .277-.023.454-.091.73-.091.256 0 .415.023.65.023.316.022.514.022.83.067.217.024.375.114.611.114.218 0 .377-.067.593-.09.395-.046.651-.024 1.066-.024.335 0 .532-.022.868 0 .197 0 .335.047.553.047.276.022.493.179.75 0 .197-.114.277-.272.355-.498.079-.226.079-.385.079-.634-.02-.203-.099-.338-.139-.564-.018-.204-.077-.361-.018-.566.039-.135.175-.18.196-.338.04-.136-.02-.25-.02-.385-.02-.226.08-.429-.059-.587-.059-.092-.137-.159-.236-.181-.158-.023-.258.067-.395.134-.296.205-.336.499-.474.86-.059.204-.059.362-.138.542-.06.091-.119.16-.177.249-.178.249-.257.428-.494.588-.157.113-.297.159-.493.203-.178.045-.317-.022-.494.023-.12.047-.177.091-.295.136-.237.112-.416.158-.692.181-.256 0-.434.023-.691-.091-.178-.068-.276-.18-.414-.316-.138-.114-.237-.204-.316-.385-.098-.18-.098-.339-.118-.543-.04-.225-.079-.36-.079-.587 0-.204.019-.316.04-.52.02-.18.098-.293.079-.474 0-.182-.1-.272-.119-.453-.02-.157 0-.27-.02-.429-.02-.135-.078-.227-.078-.384 0-.182.098-.272.138-.452.079-.25.117-.408.139-.678 0-.273-.041-.453-.1-.701-.06-.182-.158-.294-.177-.475-.02-.157-.04-.27.02-.408.078-.135.235-.135.394-.158.237-.023.394.069.61.158.238.114.337.316.574.43.159.068.256.09.414.135.178.068.315.068.453.204.14.158.1.362.219.542.157.227.276.453.513.43.196-.045.355-.18.374-.408.059-.497 0-.835-.038-1.355-.041-.315-.199-.52-.14-.836.04-.159.119-.25.159-.408.04-.203.04-.36.04-.587 0-.27.098-.564-.1-.723-.099-.068-.197-.091-.316-.091-.254.023-.316.317-.473.543-.12.203-.12.428-.316.565-.099.067-.197.09-.316.135-.197.091-.295.205-.493.272-.217.068-.355.09-.572.09-.099 0-.159-.022-.237-.022-.139-.045-.236-.045-.336-.159-.099-.112-.078-.27-.099-.43-.019-.202-.04-.361-.019-.564.02-.18.1-.295.1-.476.018-.203.018-.338-.02-.542-.021-.135-.1-.226-.118-.362-.06-.203-.12-.316-.1-.519 0-.249.138-.362.197-.589.06-.247.138-.406.138-.655.021-.249-.02-.384-.079-.61-.038-.248-.178-.384-.156-.656 0-.202.018-.338.137-.497.119-.136.237-.181.394-.226.178-.045.296-.023.474 0 .236.023.395.067.612.159.177.09.237.27.414.27.138 0 .198-.09.336-.113.139-.045.236-.09.395-.09.158 0 .276.045.434.09.434.113.651.34 1.046.589.236.134.434.157.591.384.12.18.1.36.2.542.137.226.255.497.491.497.099 0 .18-.022.257-.09.178-.136.118-.36.118-.611.02-.27-.04-.428-.079-.7zm-11.47 8.793c-.243-.067-.408-.022-.65-.022-.333 0-.52 0-.836.022-.148 0-.24.022-.389.022-.24 0-.37-.044-.612-.044-.28-.021-.445-.021-.743-.021-.296 0-.613-.047-.779.043-.13.069-.223.182-.242.34 0 .158.075.272.167.361.093.09.187.09.298.114.223.068.37.045.556.135.13.069.222.09.316.203.13.16.111.361.147.59.058.247.113.428.095.677 0 .249-.037.407-.111.655-.057.205-.113.34-.205.542-.093.18-.168.317-.297.476-.39.406-.799.248-1.3.248-.278 0-.445-.022-.723-.045-.483-.069-.78-.135-1.244-.294-.353-.113-.557-.18-.891-.361-.26-.159-.445-.205-.668-.453-.11-.135-.167-.249-.26-.406-.111-.205-.204-.34-.315-.589-.056-.159-.112-.27-.15-.45-.054-.136-.091-.25-.129-.386-.037-.158-.074-.271-.11-.43-.038-.18-.02-.315-.038-.497-.019-.181-.055-.293-.074-.473-.02-.16.036-.296-.02-.43-.036-.07-.092-.091-.129-.182-.056-.158-.019-.294 0-.474.037-.135.13-.226.13-.361 0-.114-.074-.182-.093-.296-.074-.271 0-.451 0-.745-.018-.227-.018-.362-.037-.565 0-.182 0-.317-.019-.497-.018-.113-.056-.203-.073-.317-.02-.159-.038-.25-.02-.406.02-.092.037-.159.075-.25.037-.113.112-.18.167-.317.038-.112.074-.18.111-.294.038-.158.038-.27.075-.428.018-.182.093-.272.11-.453.02-.159-.055-.294 0-.429.038-.091.131-.114.187-.204.111-.136.13-.272.204-.452.093-.204.112-.362.222-.588.055-.112.094-.226.186-.316.056-.046.13-.069.186-.113.149-.09.222-.226.371-.339.13-.114.223-.203.353-.294.167-.113.296-.226.483-.316.11-.046.185-.068.277-.114.13-.045.204-.112.335-.136.148-.022.24.046.39.091.166.045.26.113.444.135.168.045.297.024.464.069.187.022.298.067.465.113.315.045.518.022.817.136.13.044.203.09.334.134.167.092.278.16.463.25.075.045.13.09.205.112.13.069.278.023.37.136.075.113.039.226.094.34.055.135.13.204.205.338.073.137.13.227.185.362.075.203.075.362.167.542.11.249.26.362.408.566.093.135.149.248.277.34.132.09.26.203.391.111.112-.067.093-.225.112-.361.036-.203.018-.339.036-.542.019-.317.056-.521.056-.836 0-.34-.037-.52-.037-.86 0-.248.056-.43 0-.701-.037-.135-.055-.225-.111-.339-.112-.158-.26-.158-.428-.249-.241-.134-.408-.158-.667-.27-.13-.068-.223-.137-.372-.204-.11-.045-.186-.09-.296-.135-.278-.136-.408-.295-.687-.407-.317-.114-.502-.18-.816-.227-.225-.022-.372-.045-.576-.045-.576-.045-.891-.045-1.467 0-.185 0-.315.045-.5.045-.13 0-.224-.045-.353 0-.149.047-.205.204-.354.294-.147.067-.277.067-.462.113-.26.068-.427.091-.669.227-.298.135-.464.294-.724.498-.223.157-.353.248-.557.428-.167.136-.26.226-.409.362l-.278.339c-.13.182-.203.294-.333.475-.057.068-.112.112-.167.203-.112.158-.15.294-.242.474-.075.159-.13.273-.223.43-.093.136-.186.227-.26.385-.055.158-.037.316-.093.475-.037.135-.092.225-.11.338-.076.294.018.497-.057.77-.019.112-.055.18-.092.293-.075.249-.112.407-.148.678-.038.181-.075.294-.094.498-.036.248-.019.428 0 .7.019.226.074.362.094.589.018.247.018.428.018.677v.408c0 .248 0 .429.037.677.056.227.13.362.185.588.057.159.093.294.149.452.056.18.13.272.167.474.018.093.018.183.037.271.074.386.223.612.39.928.11.203.204.34.333.52.112.159.206.27.354.43.148.18.26.27.426.451.132.112.223.182.335.34.074.09.112.18.185.27.13.16.26.228.409.34.26.18.427.27.686.452.167.113.278.226.446.318.205.089.334.133.539.179.147.046.24.09.389.113.37.092.612.024 1.002 0 .333 0 .557-.067.891-.067h.426c.26-.023.427-.068.67-.182.111-.043.167-.111.278-.135.148-.045.24-.023.39-.023.166 0 .278.023.445.023.204 0 .315-.045.5-.09.371-.068.595-.204.947-.271.167-.046.26-.046.427-.09.15-.047.297-.023.39-.204.074-.135 0-.272 0-.453-.019-.203-.074-.338-.093-.564-.037-.406-.037-.655 0-1.063.019-.248-.018-.407.074-.633.056-.136.111-.203.205-.339.093-.137.204-.181.278-.362.073-.18.055-.339.073-.541 0-.228.113-.43 0-.611-.073-.092-.165-.092-.277-.137zm13.713 4.289c-.034.029-.083.043-.147.043h-.176v-.325h.176c.064 0 .113.014.147.042.034.028.05.068.05.12 0 .052-.016.092-.05.12zm.218.059c.034-.05.05-.109.05-.178 0-.07-.016-.13-.05-.18-.031-.051-.078-.09-.139-.117-.06-.028-.132-.041-.215-.041h-.401v.931h.214v-.26h.198l.18.26h.23l-.208-.3c.061-.026.108-.065.141-.115zm-29.112-6.812c-.036.34-.148.521-.203.837-.074.316-.167.498-.185.836-.02.204.037.34 0 .543-.038.136-.112.205-.168.34-.092.203-.165.338-.24.564-.037.18-.037.317-.092.52-.13.497-.389.701-.611 1.132-.13.248-.205.427-.335.654-.204.362-.351.587-.647.835-.187.182-.316.296-.519.386-.185.067-.297.091-.482.113-.24.023-.388.023-.63.023-.406 0-.666.044-1.073 0-.26-.045-.445-.023-.686-.18-.166-.093-.277-.137-.37-.342-.074-.156-.055-.293-.074-.473-.019-.204-.019-.362 0-.566.019-.18.111-.293.111-.473.019-.137 0-.226 0-.363l.056-.27c.019-.138.055-.227.037-.386 0-.157-.055-.271-.13-.406-.074-.112-.221-.092-.278-.227-.055-.157-.037-.293.019-.451.038-.137.111-.183.166-.294.056-.136.112-.227.112-.386.018-.202-.074-.315-.093-.495-.037-.296-.074-.497-.074-.814.018-.251.055-.385.074-.611.019-.18.037-.316.055-.497v-.475c-.018-.136-.018-.25-.074-.362-.055-.113-.185-.113-.258-.249-.075-.135-.13-.248-.112-.43.018-.157.148-.18.204-.338.038-.09.074-.181.092-.272.037-.158.074-.294.093-.45.019-.182.019-.318.019-.477.018-.34.092-.542.056-.882-.02-.18-.056-.316-.094-.473-.037-.16-.128-.25-.147-.408-.02-.18 0-.316.055-.475.018-.09.074-.18.11-.27.076-.16.13-.271.205-.408.074-.113.13-.224.24-.271.094-.044.167 0 .26-.022.073-.046.111-.136.203-.158.093-.024.168.045.278.067.13.023.223.07.37.09h.371c.204 0 .352-.045.555-.045.186.024.334.046.501.115.13.066.222.134.333.224.222.181.314.385.537.565.278.248.482.34.778.588.13.113.259.18.37.34.056.113.093.202.13.315.038.091.056.182.092.271.056.092.11.114.167.204.056.114.074.227.112.34.073.18.148.293.202.474.112.272.186.452.242.746.056.249.037.43.093.679.037.203.074.316.11.497.038.18.093.296.113.475.073.36.092.587.054.926zm1.925-2.033c-.036-.272-.091-.43-.147-.68-.13-.496-.186-.812-.407-1.243-.185-.407-.352-.633-.611-.971-.315-.385-.575-.543-.926-.881-.241-.25-.353-.475-.63-.68-.26-.225-.463-.27-.74-.452-.223-.158-.334-.294-.575-.43-.352-.203-.575-.338-.963-.43-.352-.067-.593-.067-.945-.044-.314.023-.519.18-.833.158-.24 0-.388-.09-.629-.135-.223-.046-.37-.091-.593-.114-.352-.022-.556.023-.907.045-.241.046-.408.114-.667.114-.278.023-.444.068-.722 0-.166-.023-.26-.136-.426-.159-.222-.044-.37-.067-.593 0-.13.045-.24.045-.315.16-.093.158-.093.36 0 .497.074.09.185.022.297.067.13.069.222.136.333.226.148.136.204.294.333.452.075.091.148.136.186.226.073.158.019.272.055.43.037.158.111.27.13.452.019.158 0 .27-.019.451-.018.227-.111.362-.093.588.02.159.13.249.149.43.019.181-.037.339-.056.52-.037.385-.147.612-.166.995 0 .294-.02.475.037.769.018.159.092.248.11.384.038.271 0 .474-.018.769-.019.249-.11.429-.074.7.018.225.149.34.186.565.017.159.035.272.017.453-.017.159-.054.272-.11.384-.075.136-.186.181-.259.317-.075.158-.112.294-.094.474.019.204.205.272.26.453.055.249-.018.405 0 .656 0 .294.055.473.074.79 0 .61 0 1.04-.221 1.605-.057.182-.113.316-.223.475-.166.226-.39.18-.556.407-.13.158-.24.293-.26.52-.018.18-.036.362.075.452.11.114.24-.023.389-.023.167 0 .278.045.444.023.148 0 .223-.023.37-.046.242-.044.37-.134.63-.134.167-.024.278 0 .463.021.185.023.315.091.5.113.278.023.444-.044.74-.022.26.022.445.135.705.158.426.045.685 0 1.111 0 .5 0 .814.135 1.277 0 .204-.068.334-.18.556-.249.148-.067.259-.09.406-.135.224-.067.391-.045.576-.18.093-.069.148-.159.24-.226.111-.069.186-.046.297-.114.259-.135.24-.497.48-.657.113-.044.205-.021.316-.111.167-.113.13-.384.296-.566.075-.067.13-.089.204-.158.111-.112.148-.227.24-.34.186-.27.445-.314.594-.654.073-.181.037-.361.111-.567.056-.135.13-.202.203-.338.111-.203.222-.295.278-.52.056-.226 0-.384 0-.633 0-.294-.019-.474 0-.747.019-.156.036-.27.056-.428.018-.339.074-.52.092-.86.011-.238.01-.698.006-.96.011-.117.03-1.022-.044-1.412zm-25.98 8.227c0-.113.02-.202.02-.316 0-.158.02-.271 0-.43-.02-.134-.1-.249-.1-.383 0-.136.04-.204.06-.316.02-.137.1-.226.06-.34-.04-.203-.218-.272-.395-.294-.198 0-.315.136-.434.317-.12.18-.06.361-.159.542-.039.09-.079.136-.117.225-.04.115-.06.204-.099.34-.06.181-.12.317-.217.474-.12.181-.218.317-.395.408-.237.112-.415 0-.671 0-.1-.023-.178-.045-.297-.045-.137 0-.237.067-.374.09-.553.067-.889-.045-1.421-.136-.218-.044-.355-.044-.553-.113-.276-.09-.532-.09-.69-.339-.08-.112-.1-.248-.158-.361-.06-.114-.139-.18-.198-.295-.118-.248-.06-.473-.039-.768 0-.203 0-.339.039-.52.04-.182.118-.271.158-.43.02-.135-.02-.225 0-.361 0-.136.02-.203.02-.339 0-.318-.04-.497-.119-.79-.059-.16-.157-.25-.197-.43-.138-.385-.06-.679-.06-1.085 0-.342.02-.544.06-.883.02-.18.02-.293.059-.451.04-.09.119-.159.138-.25 0-.112-.04-.157-.059-.248-.039-.136-.098-.227-.178-.317-.079-.112-.354-.068-.315-.226.02-.045.059-.068.078-.112.08-.16.119-.272.178-.453.04-.137.08-.248.12-.383.038-.227.019-.385.019-.612.019-.225.039-.407.059-.633v-.77c-.02-.224-.079-.382-.04-.586.04-.204.138-.294.197-.475.08-.225.06-.383.158-.587.08-.182.158-.272.277-.408.098-.112.197-.18.335-.271.139-.112.277-.135.376-.292.058-.093.117-.183.098-.273-.02-.136-.158-.159-.277-.204-.177-.067-.295.068-.493.045-.138 0-.237-.022-.375-.045-.158-.022-.276-.067-.434-.067-.315.023-.474.249-.79.293-.256.023-.414-.022-.69-.022-.178 0-.296.022-.493 0-.199-.045-.317-.136-.534-.181-.177-.023-.315-.067-.493-.045-.177 0-.335-.067-.455.067-.078.137-.058.249-.038.408.02.181.098.294.197.43.098.112.197.157.316.249.158.112.296.134.414.316.079.09.119.204.178.338.06.091.118.16.157.271.04.137 0 .25 0 .408-.02.135-.02.226-.039.338v.746c.02.205.04.362.059.566 0 .226.02.362.02.588.02.339.08.543.02.882-.04.272-.177.406-.236.678-.04.203-.06.34-.06.542.02.226-.02.385.079.542.04.045.079.068.098.114.04.09.02.18.02.294 0 .158-.04.27-.058.452-.04.204-.02.362-.06.588-.04.249-.12.407-.138.679-.02.202-.04.338 0 .541.019.203.079.317.138.52.06.227.137.361.177.612.04.18.1.338.04.54-.02.136-.157.204-.197.34-.039.159-.02.294-.02.453-.019.339 0 .542-.019.881-.021.204 0 .34-.06.542-.06.204-.177.318-.316.475-.138.16-.277.204-.435.34-.157.113-.295.157-.394.316-.099.113-.197.202-.177.362.018.113.078.18.177.248.157.137.316.09.513.113.198.024.335 0 .533 0 .218 0 .355-.045.573-.045.276-.023.454.022.71 0 .198-.046.336-.113.533-.158.158-.023.276-.045.435-.023.137.023.236.09.394.113.157.045.276.068.434.09.612.068.968 0 1.58 0 .433 0 .709.023 1.144 0 .237-.022.374-.068.63-.068.12 0 .198.023.317.046.414.022.67-.023 1.086-.046.335 0 .631.183.907-.067.08-.068.118-.136.178-.226.217-.406-.04-.769 0-1.244zM11.6 13.77c-.237-.072-.401-.024-.638-.024-.328 0-.51 0-.82.024-.145 0-.236.023-.382.023-.236 0-.364-.047-.6-.047-.273-.024-.437-.024-.728-.024-.292 0-.601-.048-.765.048-.128.072-.219.191-.237.358 0 .167.073.288.164.383.09.096.182.096.291.118.219.073.364.048.547.145.127.071.218.094.31.214.126.168.108.382.145.622.054.263.11.454.09.716 0 .263-.036.43-.109.693-.053.215-.108.358-.2.573-.09.192-.164.335-.29.503-.383.43-.784.262-1.276.262-.273 0-.437-.024-.71-.048-.473-.071-.764-.143-1.22-.31-.345-.12-.546-.191-.873-.382-.255-.168-.438-.215-.656-.478-.11-.145-.163-.263-.255-.43-.108-.216-.2-.36-.31-.623-.054-.166-.108-.285-.145-.476-.055-.144-.09-.263-.128-.407-.036-.168-.072-.286-.108-.453-.037-.192-.02-.334-.037-.527-.018-.191-.055-.31-.073-.501-.018-.167.037-.31-.018-.454-.037-.073-.091-.095-.128-.191-.054-.167-.018-.31 0-.501.037-.144.128-.24.128-.383 0-.12-.073-.191-.091-.311-.073-.286 0-.478 0-.788-.018-.24-.018-.382-.037-.597 0-.192 0-.335-.018-.526-.018-.12-.054-.215-.072-.334-.018-.167-.036-.264-.018-.43.018-.096.036-.168.072-.264.036-.118.11-.19.164-.334.036-.12.073-.192.109-.31.037-.168.037-.287.073-.454.018-.191.092-.287.11-.478.017-.168-.056-.31 0-.454.035-.096.126-.119.181-.215.11-.143.128-.287.2-.477.092-.216.11-.383.22-.622.053-.12.09-.239.181-.334.054-.049.127-.072.182-.12.146-.096.219-.24.365-.358.126-.12.218-.215.345-.31.164-.12.292-.24.474-.335.109-.048.182-.073.273-.12.128-.047.2-.12.327-.143.146-.024.238.048.383.096.164.048.255.12.437.143.164.049.29.024.454.07.183.026.291.073.456.12.31.049.51.024.801.144.127.048.2.095.328.143.164.096.273.168.455.263.073.048.128.095.201.12.127.071.272.024.363.144.073.118.037.238.092.358.055.143.128.215.2.358.073.143.127.239.182.383.073.215.073.382.164.573.109.262.255.382.4.597.091.142.145.263.273.358.128.096.256.214.382.12.11-.072.091-.24.11-.382.037-.216.018-.36.037-.574.018-.334.055-.55.055-.884 0-.358-.037-.55-.037-.907 0-.264.054-.455 0-.742-.037-.143-.055-.238-.11-.357-.109-.168-.254-.168-.419-.263-.236-.144-.401-.168-.655-.287-.127-.072-.218-.144-.364-.215-.11-.048-.182-.096-.292-.143-.272-.143-.4-.31-.674-.431-.309-.12-.49-.191-.8-.238-.218-.024-.364-.048-.565-.048-.564-.048-.873-.048-1.438 0-.181 0-.309.048-.49.048-.128 0-.22-.048-.347 0-.146.047-.2.214-.347.31-.145.072-.272.072-.455.119-.254.072-.418.097-.655.24-.292.143-.454.31-.71.525-.219.167-.346.262-.546.454-.163.143-.255.238-.4.382l-.274.358c-.127.191-.2.311-.328.503-.054.07-.109.12-.163.214-.11.167-.146.31-.237.503-.073.167-.127.286-.218.453-.091.143-.183.238-.256.406-.054.168-.036.335-.09.501-.037.144-.091.24-.11.359-.073.31.019.526-.054.812-.019.12-.056.192-.092.311-.072.263-.108.43-.144.717-.038.191-.074.31-.091.525-.038.263-.019.454 0 .742.017.238.072.381.09.62.018.262.018.454.018.716v.431c0 .263 0 .454.037.717.054.24.126.382.182.621.054.167.09.31.145.477.055.191.128.288.164.503.018.094.018.191.037.286.073.407.218.645.382.98.109.215.2.358.327.55.11.166.2.286.347.453.145.192.254.287.419.478.127.12.218.191.327.358.073.096.11.191.182.287.127.167.255.24.4.358.256.191.42.287.674.478.164.12.273.239.438.335.2.095.327.143.527.191.145.047.237.095.383.12.364.095.6.023.983 0 .327 0 .546-.073.874-.073h.419c.254-.024.418-.071.655-.191.109-.047.164-.118.273-.143.145-.048.237-.024.382-.024.164 0 .273.024.438.024.2 0 .308-.048.49-.094.365-.073.584-.217.93-.288.163-.048.254-.048.418-.096.145-.048.291-.022.383-.214.072-.144 0-.289 0-.479-.018-.214-.074-.358-.092-.597-.035-.43-.035-.692 0-1.123.018-.263-.018-.43.074-.668.055-.144.11-.215.2-.359.09-.144.2-.191.272-.382.073-.191.055-.358.073-.574 0-.238.11-.454 0-.645-.073-.095-.164-.095-.272-.143zm130.508-.691c-.053.202-.142.292-.178.496-.107.408-.07.678-.142 1.086-.071.453-.053.769-.213 1.174-.125.295-.249.453-.426.701-.231.34-.426.521-.728.793-.285.248-.462.384-.782.565-.16.09-.267.134-.444.226-.178.09-.303.157-.498.227-.213.067-.374.18-.586.112-.143-.045-.213-.182-.355-.25-.179-.089-.303-.112-.499-.112-.195-.022-.319.067-.514.023-.214-.045-.338-.136-.516-.294-.054-.046-.089-.113-.177-.159-.09-.044-.179-.024-.285-.069-.177-.044-.283-.111-.444-.224-.266-.159-.444-.27-.64-.565-.105-.158-.16-.295-.248-.476-.16-.316-.284-.498-.39-.836-.108-.361-.125-.61-.125-.995-.019-.317.035-.52.017-.836-.017-.363-.124-.565-.16-.926-.035-.385-.017-.633 0-1.019.019-.317.106-.495.106-.79 0-.182.037-.339-.034-.498-.053-.113-.16-.135-.231-.248-.072-.09-.142-.18-.178-.317-.035-.203.017-.34.072-.52.052-.226.16-.34.248-.542.106-.227.213-.385.301-.633.073-.181.09-.294.125-.453.124-.406.142-.655.302-1.017.072-.204.142-.34.267-.52.088-.158.212-.249.302-.43.089-.135.089-.271.195-.406.071-.068.142-.114.213-.159.25-.225.356-.43.622-.632.196-.159.339-.271.568-.385.232-.135.392-.18.64-.226.427-.09.693-.09 1.102 0 .231.022.408 0 .586.158.16.136.16.363.284.543.142.181.249.249.41.384.123.158.212.25.354.407.196.226.337.362.498.633.177.271.213.498.39.746.16.227.284.34.48.498.124.09.23.113.356.226.142.136.23.272.302.474.071.182.106.316.088.52-.017.159-.107.249-.16.43-.053.226-.071.384-.088.611 0 .18-.018.316-.018.52 0 .137.071.248.053.407-.018.09-.053.135-.07.225-.037.204 0 .34.07.542.053.159.16.248.213.407.054.204.071.34.071.543 0 .34-.035.542-.106.86zm2.327-2.238c-.018-.227.036-.361.072-.566.017-.203.07-.339.087-.565 0-.226-.034-.362-.07-.588-.071-.316-.107-.362-.177-.588-.196-.542-.391-.791-.64-1.311-.089-.158-.124-.294-.23-.451-.126-.204-.25-.294-.392-.476-.196-.226-.32-.384-.497-.655-.16-.226-.213-.408-.374-.633-.248-.362-.426-.566-.728-.813-.214-.181-.374-.273-.622-.43-.426-.25-.693-.452-1.154-.566-.214-.045-.338-.067-.55-.09-.214 0-.339-.023-.552-.023-.25 0-.408.046-.658.068-.23 0-.373.045-.603.045-.25 0-.409-.045-.64 0-.213.046-.32.159-.515.226-.195.068-.32.068-.516.113-.213.068-.355.136-.55.226-.196.09-.302.18-.498.295-.266.159-.461.226-.693.452-.213.182-.302.384-.515.587-.106.09-.177.135-.284.226-.178.158-.249.34-.409.543-.089.158-.23.226-.284.407-.035.136.018.25-.035.384-.035.114-.107.158-.16.226-.107.181-.143.316-.231.497-.054.113-.107.203-.142.339-.107.226-.142.385-.231.61-.089.25-.142.407-.214.679-.053.204-.088.362-.142.566-.036.225-.088.361-.106.587-.018.25 0 .408.018.656.017.272.052.451.07.723.018.295.018.498.018.791.018.317.018.52.018.814.018.182 0 .293.036.452.053.476.302.679.48 1.063.106.249.16.406.283.654.106.204.161.363.268.567.176.271.372.339.533.588.105.158.159.27.248.429.142.27.142.543.338.768.106.113.195.18.302.272.16.158.248.248.373.408.212.225.336.404.586.586.23.18.39.271.657.361.266.114.443.159.728.182.16 0 .267-.068.426-.047.09.024.16.092.25.114.266.092.443.092.71.068.124 0 .213-.044.337-.068.32-.022.534-.044.854-.044.373 0 .603.112.976.022.338-.068.551-.249.871-.407.48-.294.764-.497 1.209-.882.497-.43.8-.7 1.19-1.265.266-.384.39-.634.604-1.063.071-.135.089-.27.177-.36.036-.025.089-.047.107-.092.071-.068.053-.181.071-.294.089-.362.195-.542.338-.881.07-.181.16-.294.213-.498.106-.362.106-.61.123-.995v-.655c0-.27.036-.453 0-.725-.034-.225-.141-.337-.159-.563zm-54.568 3.914c-.593-.269-1.316-.389-1.81-.845-.234-.215-.381-.565-.594-.807-.388-.44-1.394-.871-1.967-.992-.89-.19-1.784.385-2.265 1.1-.457.678-.495 1.412-.772 2.155l-.055.157c-.145.44-.335 1.151-.628 1.408-.856.75-.875 2.274-.875 2.274-.027 1.925 2.254 1.768 3.63 1.733 1.235-.031 2.458-.327 3.612-.757.995-.372 1.748-.877 2.606-1.495 1.014-.73 1.807-1.61.81-2.727-.455-.509-1.072-.923-1.692-1.204zm1.865-6.578c-.675-.472-1.56-.396-2.226.587 0 0-.37 1.189-.7 1.39-.902.548-.921 3.111.048 3.595 2.306 1.152 4.499-.992 4.016-3.336-.165-.8-.435-1.745-1.138-2.236zM80.64 12.89c-.145-.522-.946-.97-.946-.97-.356-.069-1.065-.994-1.065-.994-1.407-1.011-2.198.17-2.198.17-.298.574-.299 1.012-.268 1.641.022.416-.03.827.11 1.228.081.232.267.41.354.623.367.91 1.413 1.234 1.413 1.234 1.712.698 2.771-.728 2.771-.728.648-.69-.17-2.204-.17-2.204zm-3.038-3.42c.227-.21-.425-1.513-.425-1.513-.219.206-.302 1.324-.302 1.324.501-.313.727.19.727.19zm3.686.929c.573-.084 1.182.097 1.671-.322.382-.328.516-.907.612-1.379.242-1.185.045-2.47-.602-3.505-.35-.56-1.175-1.581-1.175-1.581-.346-.548-1.097-.658-1.661-.418-.105.044-.198.1-.28.165-.358.28-.547.73-.736 1.149-.155.342-.477.654-.53 1.033-.2 1.431.08 2.862.855 4.084.606.956 1.846.774 1.846.774zm-1.02-8.608c.15-.07.342-.025.423.125.1.188.27.128.27.128.023-.513-.592-1.636-.592-1.636-.53.713-.507 1.723-.507 1.723.167.087.269-.275.406-.34zm3.613 4.225c.313.894.764 1.742 1.317 2.51.34.34 1.015.652 1.504.628.986-.047 2.029-1.362 1.917-2.325-.166-1.422-.78-2.64-1.7-3.72-.222-.259-.659-.355-.943-.555-.374-.263-.78-.586-1.235-.593-.123-.002-.251.019-.382.07-1.463.581-.857 2.909-.478 3.985zm-.798-4.823s-.081-.511.508-.4c0 0 .446.262.357-.015 0 0-.547-.756-1.499-.778 0 0 .047 1.17.394 1.409 0 0 .173-.044.24-.216zm7.834 5.271s-.245-.979-.79-1.215c0 0-.135 1.23.132 1.673 0 0 .014-.773.658-.458z" mask="url(#4dqp3eiqpb)"/>
                </g>
            </g>
        </g>
    </g>
</svg>
