<svg xmlns="http://www.w3.org/2000/svg" width="211" height="51" viewBox="0 0 211 51">
    <g fill="none" fill-rule="evenodd">
        <g fill="#011733">
            <g>
                <path d="M119.188 34.728c0 .41-.04.835-.15 1.203-.464 1.539-2.06 2.842-4.053 2.842-1.66 0-2.984-.946-2.984-2.943 0-3.054 3.362-3.897 7.187-3.877v2.775zm5.998-5.32c0-5.04-2.151-9.471-9.416-9.471-3.729 0-6.692 1.048-8.307 1.98l1.182 4.05c1.476-.933 3.83-1.705 6.057-1.705 3.687-.008 4.29 2.09 4.29 3.434v.318c-8.036-.013-13.113 2.77-13.113 8.444 0 3.465 2.588 6.712 7.082 6.712 2.767 0 5.078-1.105 6.463-2.873h.14s.916 3.839 5.972 2.373c-.263-1.6-.35-3.308-.35-5.358v-7.905zM0 13.076s5.25 21.53 6.088 25.025c.978 4.079 2.74 5.578 7.821 4.569l3.277-13.349c.832-3.318 1.389-5.68 1.923-9.053h.094c.374 3.407.91 5.746 1.594 9.064 0 0 1.333 6.059 2.017 9.242.687 3.18 2.592 5.188 7.569 4.096l7.813-29.594h-6.308L29.221 25.87c-.719 3.723-1.366 6.635-1.87 10.043h-.088c-.457-3.374-1.035-6.169-1.766-9.796l-2.776-13.04h-6.573l-2.968 12.71c-.842 3.863-1.629 6.982-2.13 10.272h-.09c-.513-3.098-1.197-7.019-1.934-10.757 0 0-1.767-9.09-2.385-12.226M50.118 34.728c0 .41-.035.835-.15 1.203-.464 1.539-2.058 2.842-4.05 2.842-1.663 0-2.984-.946-2.984-2.943 0-3.054 3.36-3.897 7.184-3.877v2.775zm5.998-5.32c0-5.04-2.15-9.471-9.415-9.471-3.732 0-6.692 1.048-8.31 1.98l1.185 4.05c1.477-.933 3.829-1.705 6.058-1.705 3.688-.008 4.29 2.09 4.29 3.434v.318c-8.037-.013-13.112 2.77-13.112 8.444 0 3.465 2.585 6.712 7.079 6.712 2.765 0 5.078-1.105 6.465-2.873h.134s.92 3.839 5.98 2.373c-.268-1.6-.354-3.308-.354-5.358v-7.905zM66.127 36.385L66.127 13.074 60.123 13.074 60.123 42.67 66.127 42.67M144.691 13.076V34.91c0 3.005.565 5.117 1.778 6.406 1.055 1.124 2.797 1.854 4.884 1.854 1.779 0 3.527-.337 4.347-.644l-.077-4.697c-.612.151-1.319.272-2.282.272-2.044 0-2.73-1.31-2.73-4.014v-8.35h5.228v-5.663h-5.227v-6.998M129.19 20.439v22.23h6.192V31.286c0-.614.04-1.15.135-1.64.46-2.385 2.282-3.907 4.9-3.907.717 0 1.232.076 1.784.156v-5.82c-.464-.095-.781-.137-1.363-.137-2.313 0-4.942 1.491-6.046 4.694h-.17V20.44M70.332 20.439v22.23h6.036V29.633c0-.61.07-1.26.285-1.819.501-1.313 1.721-2.85 3.667-2.85 2.436 0 3.576 2.06 3.576 5.037v12.67h6.03V29.474c0-.583.08-1.284.252-1.803.495-1.494 1.81-2.709 3.622-2.709 2.47 0 3.654 2.027 3.654 5.526V42.67h6.034V29.577c0-6.908-3.504-9.64-7.457-9.64-1.753 0-3.135.438-4.384 1.207-1.052.646-1.992 1.561-2.814 2.768h-.089c-.955-2.396-3.198-3.975-6.123-3.975-3.756 0-5.443 1.904-6.47 3.522h-.09v-3.02M188.295 17.167c1.19 0 2.175-.621 2.308-1.423L191.78 2.4c0-1.317-1.542-2.4-3.484-2.4-1.936 0-3.479 1.083-3.479 2.4l1.178 13.344c.129.802 1.114 1.423 2.306 1.423M181.09 21.336c.596-1.033.549-2.198-.08-2.713l-10.958-7.693c-1.139-.657-2.847.136-3.82 1.82-.969 1.68-.8 3.558.339 4.218l12.131 5.652c.763.284 1.796-.259 2.391-1.289M195.505 21.331c.6 1.03 1.627 1.573 2.388 1.29l12.136-5.653c1.143-.66 1.306-2.538.334-4.218-.97-1.682-2.678-2.477-3.818-1.82l-10.959 7.693c-.627.515-.668 1.68-.077 2.713M188.295 33.83c1.19 0 2.175.622 2.308 1.423l1.178 13.344c0 1.318-1.542 2.403-3.484 2.403-1.936 0-3.479-1.085-3.479-2.403l1.178-13.344c.129-.801 1.114-1.423 2.306-1.423M195.505 29.669c.6-1.035 1.627-1.573 2.388-1.29l12.136 5.65c1.143.662 1.306 2.54.334 4.222-.97 1.679-2.678 2.476-3.818 1.819l-10.959-7.693c-.627-.517-.668-1.68-.077-2.713M181.09 29.664c.596 1.032.549 2.195-.08 2.713l-10.958 7.69c-1.139.656-2.847-.137-3.82-1.816-.969-1.682-.8-3.563.339-4.224l12.131-5.649c.763-.285 1.796.255 2.391 1.29" transform="translate(-130.000000, -334.000000) translate(130.000000, 334.000000)"/>
            </g>
        </g>
    </g>
</svg>
