<svg xmlns="http://www.w3.org/2000/svg" width="163" height="39" viewBox="0 0 163 39">
    <g fill="none" fill-rule="evenodd">
        <g fill="#011733">
            <g>
                <path d="M132.992 0s3.329 14.425 13.021 25.953c0 0-11.25-.358-15.189-7.995-3.62-7.018-1.073-14.196 2.168-17.958M149.68 29.851c3.676 3.477 8.072 6.425 13.296 8.236 0 0-7.004.58-11.23-1.447-4.225-2.026-8.624-5.44-11.345-5.672-2.72-.232-4.31-.382-5.036-1.117h14.315" transform="translate(-189.000000, -2000.000000) translate(189.000000, 2000.000000)"/>
                <path d="M155.943 30.172c-1.707-4.08-9.93-4.22-9.93-4.22s2.228 2.485 3.667 3.9c0 0 5.019-.143 6.263.32M20.428 12.04h5.017l4.553 11.962 4.4-11.962h5.17l-7.9 18.677h-1.67c-.79 0-1.93-.077-3.087-3.164-1.158-3.087-6.483-15.513-6.483-15.513M41.112 30.717L46.051 30.717 46.051 12.04 41.112 12.04zM46.437 6.792c0 1.577-1.278 2.855-2.856 2.855-1.577 0-2.855-1.278-2.855-2.855s1.278-2.856 2.855-2.856c1.578 0 2.856 1.279 2.856 2.856M85.258 30.717h-5.094V17.983s0-2.702-2.856-2.084c-2.323.502-4.013 1.93-4.013 1.93v12.888h-5.094V12.04s4.477-1.39 4.863 1.775c0 0 2.855-2.393 6.405-2.393 3.55 0 5.789 2.547 5.789 5.171v14.124M59.943 25.97s-1.312.965-3.396.965c-2.083 0-2.7-1.35-2.7-2.392 0-1.197.694-2.625 6.096-2.316v3.743zm4.862 1.525v-9.667c0-2.16-.887-6.521-6.946-6.483-5.788.037-7.949 2.47-7.949 2.47l1.93 3.087s.926-1.544 4.63-1.544c3.705 0 3.242 3.242 3.242 3.242-10.188-.154-10.728 4.09-10.728 6.637 0 2.547 1.93 5.634 5.711 5.634 3.782 0 5.711-1.852 5.711-1.852.155 1.62 2.007 1.698 2.007 1.698h2.933c-.463 0-.54-3.222-.54-3.222zM115.856 25.97s-1.312.965-3.396.965c-2.084 0-2.701-1.35-2.701-2.392 0-1.197.694-2.625 6.097-2.316v3.743zm4.862 1.525v-9.667c0-2.16-.887-6.521-6.946-6.483-5.788.037-7.95 2.47-7.95 2.47l1.93 3.087s.926-1.544 4.63-1.544c3.705 0 3.242 3.242 3.242 3.242-10.187-.154-10.727 4.09-10.727 6.637 0 2.547 1.93 5.634 5.711 5.634 3.782 0 5.711-1.852 5.711-1.852.154 1.62 2.006 1.698 2.006 1.698h2.934c-.463 0-.54-3.222-.54-3.222zM102.623 17.056s-1.66-1.698-4.94-1.698c-3.627 0-5.016 3.55-5.016 6.56s2.238 5.094 5.48 5.094c2.43 0 4.321-1.466 4.321-1.466l1.312 3.627s-2.74 1.93-7.1 1.93c-3.01 0-8.876-2.007-8.876-9.261 0-7.255 4.786-10.386 9.416-10.342 4.13.038 5.75 1.466 5.75 1.466l-.347 4.09M8.973 20.006L11.77 12.2l2.796 7.807H8.973zm4.688-15.221H9.879L0 30.717h5.171l2.084-6.56h8.952l2.624 6.56h5.171L13.661 4.785z" transform="translate(-189.000000, -2000.000000) translate(189.000000, 2000.000000)"/>
            </g>
        </g>
    </g>
</svg>
