<svg width="22" height="22" viewBox="0 0 22 22" fill="none" xmlns="http://www.w3.org/2000/svg">
    <path fill-rule="evenodd" clip-rule="evenodd" d="M0.93934 0.93934C1.52513 0.353553 2.47487 0.353553 3.06066 0.93934L21.0607 18.9393C21.6464 19.5251 21.6464 20.4749 21.0607 21.0607C20.4749 21.6464 19.5251 21.6464 18.9393 21.0607L0.93934 3.06066C0.353553 2.47487 0.353553 1.52513 0.93934 0.93934Z" />
    <path fill-rule="evenodd" clip-rule="evenodd" d="M21.0607 0.93934C20.4749 0.353553 19.5251 0.353553 18.9393 0.93934L0.939341 18.9393C0.353554 19.5251 0.353554 20.4749 0.939341 21.0607C1.52513 21.6464 2.47487 21.6464 3.06066 21.0607L21.0607 3.06066C21.6464 2.47487 21.6464 1.52513 21.0607 0.93934Z" />
</svg>
