<svg xmlns="http://www.w3.org/2000/svg" width="26" height="25" viewBox="0 0 26 25">
    <g>
        <path d="M12.578 0C5.634 0 0 5.6 0 12.5S5.634 25 12.578 25c6.93 0 12.578-5.6 12.578-12.5S19.508 0 12.578 0zm8.308 5.762c1.5 1.817 2.401 4.135 2.429 6.643-.355-.068-3.902-.786-7.476-.339-.082-.176-.15-.366-.232-.556-.219-.515-.464-1.044-.71-1.545 3.957-1.6 5.757-3.905 5.99-4.203zm-8.308-3.918c2.729 0 5.225 1.017 7.121 2.684-.19.271-1.814 2.427-5.634 3.85-1.76-3.213-3.71-5.843-4.01-6.25.804-.19 1.65-.284 2.523-.284zm-4.57 1.003c.286.38 2.196 3.023 3.984 6.169-5.02 1.328-9.455 1.301-9.932 1.301.696-3.308 2.947-6.06 5.948-7.47zm-6.18 9.667v-.326c.464.014 5.675.082 11.037-1.518.313.596.6 1.206.873 1.816-.137.041-.287.082-.423.122-5.539 1.776-8.486 6.63-8.731 7.037-1.705-1.885-2.756-4.393-2.756-7.131zm10.75 10.67c-2.483 0-4.775-.841-6.59-2.251.192-.393 2.375-4.57 8.432-6.67.027-.014.04-.014.068-.028 1.514 3.891 2.128 7.159 2.292 8.094-1.296.556-2.715.854-4.202.854zm5.99-1.831c-.11-.65-.683-3.769-2.088-7.606 3.37-.528 6.316.34 6.684.461-.463 2.97-2.182 5.532-4.597 7.145z" transform="translate(-860.000000, -724.000000) translate(860.156250, 724.000000)"/>
    </g>
</svg>
