<svg xmlns="http://www.w3.org/2000/svg" width="26" height="25" viewBox="0 0 26 25">
    <g fill-rule="nonzero">
        <g>
            <path d="M19.915 0H5.241C2.347 0 0 2.332 0 5.208v14.584C0 22.668 2.347 25 5.24 25h14.675c2.895 0 5.241-2.332 5.241-5.208V5.208C25.156 2.332 22.81 0 19.916 0zM8.385 19.792H5.241V8.333h3.144v11.459zM6.813 7.012c-1.012 0-1.834-.822-1.834-1.837 0-1.015.822-1.837 1.834-1.837 1.013 0 1.834.822 1.834 1.837 0 1.015-.82 1.838-1.834 1.838zm14.15 12.78H17.82v-5.838c0-3.508-4.193-3.243-4.193 0v5.838h-3.144V8.333h3.144v1.839c1.464-2.694 7.338-2.893 7.338 2.579v7.04z" transform="translate(-1022.000000, -724.000000) translate(1022.468750, 724.000000)"/>
        </g>
    </g>
</svg>
