<svg xmlns="http://www.w3.org/2000/svg" xmlns:xlink="http://www.w3.org/1999/xlink" width="57" height="57" viewBox="0 0 57 57">
    <defs>
        <rect id="iv8o0dbmba" width="57" height="57" x="0" y="0" rx="4"/>
    </defs>
    <g fill="none" fill-rule="evenodd">
        <g>
            <g>
                <g transform="translate(-1028.000000, -5874.000000) translate(1028.000000, 5874.000000)">
                    <mask id="3aw0tcy4vb" fill="#fff">
                        <use xlink:href="#iv8o0dbmba"/>
                    </mask>
                    <use fill="#F1F1F1" xlink:href="#iv8o0dbmba"/>
                </g>
                <g fill="#000" fill-rule="nonzero" opacity=".654">
                    <path d="M28.08 25.306c-.509-1.132-2.989-1.88-4.637-2.583-1.648-.702-1.422-1.128-1.482-1.711-.008-.08-.013-.165-.016-.252.565-.483 1.028-1.145 1.327-1.91l.02-.05c.063-.167.12-.34.168-.516.377-.074.598-.471.682-.838.085-.149.261-.515.22-.93-.052-.536-.275-.783-.526-.886v-.093c0-.681-.065-1.661-.194-2.306-.028-.177-.07-.356-.124-.532-.243-.79-.752-1.498-1.432-1.997-.702-.515-1.695-.787-2.577-.787-.881 0-1.874.272-2.576.787-.68.499-1.19 1.208-1.433 1.997-.054.176-.095.355-.123.532-.13.644-.195 1.624-.195 2.306v.085c-.258.099-.491.345-.545.893-.04.416.136.782.221.93.086.374.312.778.702.842.048.177.105.352.17.52l.012.031.006.015c.305.778.78 1.45 1.36 1.934-.004.077-.01.153-.016.224-.06.583.114 1.01-1.534 1.712-1.648.703-4.128 1.451-4.637 2.582-.508 1.131-.305 1.797-.305 1.797h17.767s.205-.666-.304-1.796z" transform="translate(-1028.000000, -5874.000000) translate(1028.000000, 5874.000000) translate(9.000000, 9.000000)"/>
                    <g>
                        <path d="M3.475 19.23l1.737 1.977.659-.599-2.816-3.115L0 20.25l.6.659 1.976-1.797c-.12 7.848 5.272 14.977 13 16.774l.18-.899C8.447 33.31 3.355 26.6 3.475 19.23zM19.71 3.475l-1.977 1.737.599.659 3.115-2.816L18.691 0l-.659.6 1.797 1.976c-7.847-.12-14.976 5.272-16.774 13l.899.18C5.63 8.447 12.34 3.355 19.71 3.475zM35.465 19.71l-1.737-1.977-.659.599 2.816 3.115L39 18.631l-.6-.659-1.976 1.798c.06-7.788-5.332-14.917-13.06-16.715l-.18.899c7.31 1.677 12.401 8.387 12.281 15.756zM19.23 35.465l1.977-1.737-.599-.659-3.115 2.816L20.31 39l.659-.6-1.797-1.976h.359c7.728 0 14.617-5.392 16.415-13l-.899-.18C33.31 30.494 26.6 35.585 19.23 35.465z" transform="translate(-1028.000000, -5874.000000) translate(1028.000000, 5874.000000) translate(9.000000, 9.000000)"/>
                    </g>
                </g>
            </g>
        </g>
    </g>
</svg>
