<svg xmlns="http://www.w3.org/2000/svg" xmlns:xlink="http://www.w3.org/1999/xlink" width="57" height="57" viewBox="0 0 57 57">
    <defs>
        <rect id="xzbmfnzgfa" width="57" height="57" x="0" y="0" rx="4"/>
    </defs>
    <g fill="none" fill-rule="evenodd">
        <g>
            <g>
                <g transform="translate(-1028.000000, -2626.000000) translate(1028.000000, 2626.000000)">
                    <mask id="sv3i7gl9rb" fill="#fff">
                        <use xlink:href="#xzbmfnzgfa"/>
                    </mask>
                    <use fill="#F1F1F1" xlink:href="#xzbmfnzgfa"/>
                </g>
                <g fill="#011733" fill-rule="nonzero" opacity=".748">
                    <g>
                        <path d="M34.779 9.863C34.484 9.45 27.005 0 17.5 0 7.995 0 .516 9.45.221 9.863c-.295.375-.295.9 0 1.274C.516 11.55 7.995 21 17.5 21c9.505 0 16.984-9.488 17.279-9.9.295-.338.295-.862 0-1.237zM17.5 18.413c-4.274 0-7.774-3.563-7.774-7.913s3.5-7.912 7.774-7.912 7.774 3.562 7.774 7.912-3.5 7.913-7.774 7.913zM2.321 10.5c1.105-1.275 3.905-4.237 7.59-6.263C8.547 5.963 7.7 8.137 7.7 10.5s.81 4.537 2.174 6.262C6.226 14.7 3.426 11.775 2.32 10.5zm22.768 6.262c1.364-1.725 2.174-3.9 2.174-6.262 0-2.363-.81-4.537-2.174-6.263 3.648 2.063 6.448 4.988 7.59 6.263-1.105 1.275-3.905 4.2-7.59 6.262z" transform="translate(-1028.000000, -2626.000000) translate(1028.000000, 2626.000000) translate(11.000000, 18.000000)"/>
                        <path d="M17.5 5.963c-.184 0-.332.037-.516.037.295.375.516.862.516 1.425 0 1.275-.995 2.288-2.247 2.288-.774 0-1.474-.413-1.842-1.013-.222.563-.369 1.163-.369 1.8 0 2.512 1.99 4.537 4.458 4.537s4.458-2.025 4.458-4.537c0-2.513-1.99-4.537-4.458-4.537z" transform="translate(-1028.000000, -2626.000000) translate(1028.000000, 2626.000000) translate(11.000000, 18.000000)"/>
                    </g>
                </g>
            </g>
        </g>
    </g>
</svg>
