<svg xmlns="http://www.w3.org/2000/svg" width="57" height="57" viewBox="0 0 57 57">
    <g fill="none" fill-rule="evenodd">
        <g>
            <g transform="translate(-130.000000, -5874.000000) translate(130.000000, 5874.000000)">
                <rect width="57" height="57" fill="#F4F4F4" rx="4"/>
                <g transform="translate(6.000000, 12.000000)">
                    <rect width="11.2" height="7" x="17" fill="#FFD967" rx="1"/>
                    <rect width="11.2" height="7" x="17" y="15" fill="#FFD967" rx="1"/>
                    <rect width="11.2" height="7" x="17" y="27" fill="#FFD967" rx="1"/>
                    <rect width="11.2" height="7" y="15" fill="#FFD967" rx="1"/>
                    <rect width="11.2" height="7" y="27" fill="#FFD967" rx="1"/>
                    <rect width="11.2" height="7" x="34" y="15" fill="#D45F46" rx="1"/>
                    <rect width="11.2" height="7" x="33.8" y="27" fill="#D45F46" rx="1"/>
                    <path stroke="#979797" stroke-width=".5" d="M28 18.5L34 18.5M28 30.5L34 30.5M11 18.5L17 18.5M11 30.5L17 30.5M23 7L23 15M5.5 22L5.5 27M23 22L23 27M39.5 22L39.5 27"/>
                </g>
            </g>
        </g>
    </g>
</svg>
