<svg xmlns="http://www.w3.org/2000/svg" width="57" height="57" viewBox="0 0 57 57">
    <g fill="none" fill-rule="evenodd">
        <g>
            <g transform="translate(-579.000000, -5874.000000) translate(579.000000, 5874.000000)">
                <rect width="57" height="57" fill="#F4F4F4" rx="4"/>
                <g fill="#D52B1E" fill-rule="nonzero">
                    <g>
                        <path d="M21.636 5.33c.124.06.23.162.296.297l.009.02.017.042c.03.081.044.164.042.245v4.592c0 .364-.29.658-.647.658-.358 0-.647-.294-.647-.658v-3.54L17.76 8.483c-.32.163-.708.03-.868-.294-.16-.325-.03-.72.29-.883l2.724-1.385-2.725-1.385c-.32-.163-.449-.558-.29-.883.16-.325.55-.457.869-.294l3.876 1.97zM22 19.066c.002.096-.017.195-.06.288-.031.07-.075.134-.128.189-.055.055-.113.096-.176.127l-3.876 1.971c-.32.163-.708.03-.868-.294-.16-.325-.03-.72.29-.883l2.724-1.385-2.725-1.385c-.32-.163-.449-.558-.29-.883.16-.325.55-.457.869-.294l2.946 1.497v-3.54c0-.364.29-.658.647-.658.357 0 .647.294.647.658v4.592zm-19.906.013l2.725 1.385c.32.163.449.558.29.883-.16.325-.55.457-.869.294l-3.876-1.97c-.124-.062-.23-.163-.296-.298l-.009-.02-.017-.042c-.03-.081-.044-.164-.042-.245v-4.592c0-.364.29-.658.647-.658.358 0 .647.294.647.658v3.54l2.946-1.497c.32-.163.708-.03.868.294.16.325.03.72-.29.883l-2.724 1.385zm-.8-12.093v3.54c0 .364-.29.658-.647.658-.357 0-.647-.294-.647-.658V5.934c-.002-.096.017-.195.06-.288.031-.07.075-.134.128-.189.055-.055.113-.096.176-.127L4.24 3.359c.32-.163.708-.03.868.294.16.325.03.72-.29.883L2.095 5.92l2.725 1.385c.32.163.449.558.29.883-.16.325-.55.457-.869.294L1.294 6.986zM10.7.076C10.789.026 10.891 0 11 0c.109 0 .211.027.301.075l3.87 1.968c.32.163.45.558.29.883-.16.325-.548.457-.868.294l-2.946-1.498v3.541c0 .364-.29.658-.647.658-.357 0-.647-.294-.647-.658v-3.54L7.407 3.22c-.32.163-.708.03-.868-.294-.16-.325-.03-.72.29-.883l3.87-1.968zm.602 24.849c-.09.048-.192.075-.301.075-.109 0-.211-.027-.301-.075l-3.87-1.968c-.32-.163-.45-.558-.29-.883.16-.325.548-.457.868-.294l2.946 1.498v-3.541c0-.364.29-.658.647-.658.357 0 .647.294.647.658v3.54l2.946-1.497c.32-.163.708-.03.868.294.16.325.03.72-.29.883l-3.87 1.968zm.346-13.334v3.54c0 .364-.29.658-.647.658-.357 0-.647-.294-.647-.657V11.59L6.828 9.799c-.32-.163-.449-.558-.289-.883.16-.325.548-.456.868-.294L11 10.45l3.593-1.827c.32-.162.708-.03.868.294.16.325.03.72-.29.883l-3.524 1.792z" transform="translate(18.000000, 16.000000) translate(-0.000000, 0.000000)"/>
                    </g>
                </g>
            </g>
        </g>
    </g>
</svg>
