<svg xmlns="http://www.w3.org/2000/svg" width="128" height="27" viewBox="0 0 128 27">
    <g fill="none" fill-rule="evenodd">
        <g fill="#011733" fill-rule="nonzero">
            <g>
                <path d="M20.237 2.104c0 1.158.945 2.106 2.081 2.106 1.183 0 2.128-.948 2.128-2.106S23.5 0 22.318 0c-1.136 0-2.08.945-2.08 2.103m4.35 4.06h-4.493v14.688h4.493V6.164zm94.368 20.332L128 6.164h-4.758l-3.251 7.861-3.576-7.86h-5.024l6.176 12.705-3.338 7.626h4.727zm-8.185-20.332c-.294-.09-.738-.148-1.183-.148-1.18 0-3.044.472-3.81 2.127V6.164h-4.347v14.688h4.495V14.44c0-2.927 1.624-3.99 3.428-3.99.441 0 .917.029 1.417.146v-4.43zM89.52 11.75c.087-1.096 1.035-2.483 2.924-2.483 2.131 0 2.9 1.359 2.958 2.483h-5.882zm6.207 3.81c-.414 1.155-1.331 1.92-2.955 1.92-1.745 0-3.252-1.179-3.341-2.834h10.226c.031-.09.09-.769.09-1.39 0-4.727-2.81-7.536-7.361-7.536-3.813 0-7.33 3.013-7.33 7.743 0 4.934 3.606 7.83 7.657 7.83 3.724 0 6.058-2.127 6.768-4.668l-3.754-1.065zM85.616 6.164h-4.728l-3.134 9.13-3.4-9.13H69.48l6.028 14.688h4.523l5.586-14.688zM62.415 17.156c-1.686 0-3.313-1.21-3.313-3.665 0-2.48 1.627-3.634 3.313-3.634 1.713 0 3.31 1.155 3.31 3.634 0 2.483-1.597 3.665-3.31 3.665m0-11.436c-4.375 0-7.806 3.22-7.806 7.771s3.43 7.803 7.806 7.803c4.403 0 7.802-3.252 7.802-7.803s-3.4-7.771-7.802-7.771M46.813 9.857c1.741 0 2.63 1.065 2.955 2.186l4.02-1.21c-.652-2.631-3.017-5.113-7.065-5.113-4.316 0-7.744 3.22-7.744 7.802 0 4.551 3.517 7.772 7.892 7.772 3.931 0 6.355-2.541 7.006-5.113l-3.961-1.21c-.324 1.092-1.3 2.185-3.045 2.185-1.861 0-3.43-1.3-3.43-3.634 0-2.365 1.51-3.665 3.372-3.665M25.89 16.684c.117 1.624 1.596 4.61 6.206 4.61 3.93 0 5.851-2.452 5.851-4.965 0-2.159-1.476-3.99-4.52-4.61l-1.952-.383c-.651-.12-1.151-.472-1.151-1.093 0-.769.738-1.272 1.596-1.272 1.359 0 1.98.827 2.097 1.803l3.726-.68c-.148-1.713-1.627-4.374-5.882-4.374-3.282 0-5.647 2.186-5.647 4.875 0 2.069 1.241 3.844 4.375 4.523l1.683.383c1.096.238 1.451.68 1.451 1.214 0 .648-.562 1.269-1.717 1.269-1.534 0-2.244-.976-2.303-1.98l-3.813.68zM5.939 11.25c0 .044.009.09.022.11.012.017.025.048.03.067.004.02.015.035.022.034.02 0 .017-.019-.014-.077-.016-.029-.03-.077-.03-.107-.006-.094-.03-.117-.03-.027m1.014-2.922c.006-.02.005-.032-.009-.05-.015-.021-.017-.03-.012-.05.004-.021.001-.024-.021-.024-.043 0-.074.054-.061.112.009.034.018.043.071.06.031.009.04.008.033-.006-.005-.01-.006-.03-.001-.042m-.2.274c.001-.008-.005-.015-.014-.015-.01 0-.018-.012-.02-.03-.001-.018.005-.027.018-.024.01.005.024.003.031-.001.01-.007.007-.016-.016-.046-.026-.032-.033-.034-.047-.018-.014.02-.015.018-.016-.014-.001-.02-.006-.035-.011-.035-.005 0-.032-.028-.059-.06-.027-.035-.041-.06-.033-.06s.018-.009.022-.022c.003-.013.015-.02.025-.016.02.003.027-.019.019-.058-.012-.052-.074-.052-.133-.003-.063.056-.075.086-.044.139.013.02.025.044.025.05.002.007.025.045.056.084l.052.07-.009.053c-.005.03-.004.067.002.084.023.057.142.11.184.082.016-.011-.002-.115-.022-.133-.008-.006-.012-.018-.01-.026m-.632-.314c-.03-.019-.053-.04-.055-.048 0-.007.006-.008.016-.003.014.007.03-.04.018-.056-.003-.003.006-.016.02-.027l.023-.022-.027-.002c-.015 0-.036.005-.047.013-.011.007-.039.022-.063.031-.04.018-.043.022-.023.043.012.012.034.017.048.013.017-.006.024-.002.02.011-.003.01-.016.018-.028.017-.012 0-.031.007-.042.015-.015.013-.026.01-.046-.017-.025-.032-.026-.035-.009-.05.014-.014.01-.016-.019-.019-.02 0-.038-.01-.04-.017-.005-.051-.077.007-.087.07-.003.016-.01.027-.015.02-.013-.017-.051.136-.042.165.019.05.127.065.189.024.044-.027.084-.024.144.011.055.033.184.049.21.026.061-.079-.093-.162-.145-.198m3.301 2.733l.016.007c.005.002.006-.004.003-.029-.002-.018-.005-.03-.007-.025-.002.003-.003 0-.001-.007.001-.007.001-.023-.001-.036-.005-.026-.001-.05.01-.06.004-.006.004-.013-.004-.025-.007-.009-.011-.023-.01-.03.005-.023-.006-.046-.037-.073-.017-.015-.034-.03-.039-.036-.005-.009-.01-.004-.033.039-.027.048-.028.05-.031.028-.002-.011-.001-.035.002-.052l.003-.038c-.002-.013-.027-.008-.042.01l-.016.02.01.006c.004.004.01.015.01.023.001.008.006.016.012.017.009.001.007.003-.006.008-.013.005-.015.008-.01.017.003.005.003.02.001.028-.002.01-.001.018.001.018.003 0 .006-.007.007-.013.001-.006.012 0 .023.011.01.012.021.022.024.021.006-.001.01.067.007.088-.002.009-.006.016-.01.017-.003.002-.009.011-.012.023-.006.018-.005.02.01.007.014-.01.018-.009.021.01.005.027.034.017.041-.014.002-.01.01-.027.017-.036.016-.024.025-.01.03.038 0 .018.006.035.011.038m-.098.132c.01-.069.01-.082-.002-.055-.007.016-.024.077-.05.164-.01.037-.025.083-.034.101-.015.035-.028.046-.027.027 0-.005-.005-.022-.013-.036-.024-.04-.025-.045-.007-.09l.02-.046.011-.026c.005-.013 0-.018-.012-.016-.01.002-.024-.003-.03-.011-.014-.016-.022-.017-.016-.002.005.011-.007.039-.02.042-.012.005-.027.02-.03.036-.002.007-.01.022-.017.035-.007.013-.014.03-.015.038-.001.01-.008.02-.019.026-.01.007-.014.005-.012-.005.003-.01.003-.021 0-.027-.006-.01-.027.004-.031.021-.002.007-.006.012-.009.013-.008.003-.037.054-.04.07-.001.009-.007.016-.013.018-.008.002-.012.01-.014.022-.001.01-.005.02-.008.02-.003.002-.004-.006-.003-.014.003-.021-.018.011-.03.044-.007.027-.034.077-.05.096-.006.007-.033.029-.062.05-.028.021-.06.048-.069.06-.01.014-.02.025-.023.027-.005 0-.01.008-.013.016-.002.008-.007.013-.01.01-.01-.008-.053.111-.054.149-.001.024-.003.031-.014.042-.008.01-.013.026-.022.08-.006.035-.014.08-.02.1-.005.02-.008.037-.005.04.004.01-.03.095-.042.106-.019.016-.021.028-.006.044.017.02.024.017.066-.025.025-.026.046-.04.07-.047.028-.01.038-.016.047-.033.017-.034.05-.06.14-.12.019-.013.034-.019.037-.014.002.004.01.007.016.006.011-.002.013.065.002.094-.01.025 0 .013.036-.041.037-.056.04-.053.007.008-.023.046-.028.065-.006.027.017-.03.017-.015 0 .02-.009.018-.01.021-.002.014.013-.014.013.005 0 .04-.014.035-.012.05.003.051.007.002.014.006.016.01.002.007.01.001.024-.018.017-.023.018-.024.019-.008 0 .018.001.018.03-.018.016-.02.035-.039.04-.042.008-.003.013-.01.02-.031.014-.033.089-.186.11-.22l.03-.062.03-.079c.01-.025.02-.055.024-.074l.018-.063c.008-.023.011-.047.011-.076 0-.022.002-.05.004-.056.003-.01.002-.018 0-.021-.003-.002-.003-.023 0-.046.004-.023.003-.05-.002-.063-.005-.012-.005-.032-.001-.055l.009-.055c.001-.012.005-.035.01-.053.006-.025.006-.035 0-.04-.005-.009-.005-.024.003-.08m-.002.935c.001-.005-.002-.002-.01.006-.009.01-.012.009-.01-.005.002-.012 0-.016-.003-.012-.003.003 0-.01.005-.03.006-.02.01-.041.009-.045-.002-.014-.005-.008-.011.017-.003.01-.005.025-.005.028.001.013-.014.064-.03.095-.007.018-.015.032-.016.033-.006.002-.01.022-.008.03.002.009 0 .014-.01.036-.009.019-.011.026-.01.03.002.004.044-.072.055-.1.004-.01.01-.019.011-.02.005-.002.025-.041.033-.063m-.11.176c-.004.002-.006-.001-.005-.006 0-.009-.008.006-.029.044-.018.035-.042.073-.06.097-.036.048-.07.098-.078.12-.004.008 0 .014.008.012.018-.001.035-.025.062-.078.017-.035.042-.073.04-.062 0 .003.002 0 .005-.008s.016-.032.028-.053c.026-.045.037-.071.028-.066m-.74-2.302c.013.035.035.087.049.119.018.04.031.084.05.173.014.067.027.12.03.12.01-.001.068.103.076.135.018.078.045.194.077.19.01-.002.01-.006.007-.042 0-.021.002-.06.006-.085.009-.05-.058-.123-.091-.138-.012-.005-.02-.02-.026-.04-.004-.018-.017-.047-.03-.064-.026-.036-.029-.048-.037-.15-.006-.08 0-.118.013-.07.003.013.01.024.015.023.005 0 .029.024.05.054.022.03.046.058.055.063.008.005.016.023.022.045.005.02.01.036.014.036.008-.002.02-.058.017-.074-.002-.008 0-.016.008-.016.006-.001.016-.017.02-.036.01-.03.008-.044-.006-.103-.022-.08-.033-.103-.103-.202-.06-.085-.07-.12-.056-.185.012-.057.047-.07.06-.022.004.014.013.033.02.044.01.013.01.017 0 .018-.023 0-.02.062.003.08.017.012.025-.002.025-.037-.001-.023-.004-.036-.012-.048-.027-.039-.027-.069.002-.092.018-.018.024-.033.02-.05-.006-.016-.004-.019.001-.007.015.027.051 0 .063-.048.012-.047.016-.095.012-.11l-.005-.024c-.002-.006-.002-.031 0-.055.001-.09-.01-.136-.035-.14l-.011-.001.006-.015c.01-.019-.004-.062-.044-.131-.04-.07-.05-.087-.062-.097-.014-.011-.005-.093.012-.103.016-.011.008-.03-.02-.042-.016-.008-.025-.006-.027.007-.001.023-.018.013-.028-.016-.004-.012-.013-.023-.02-.027-.02-.008-.036-.052-.02-.051.005 0 .015-.021.02-.047.007-.03.015-.04.023-.034.012.01.013.013.013.038 0 .04.015.06.027.036.005-.013.016-.016.03-.008.02.01.023.015.03.046.01.04.016.053.033.055.013.002.031.029.03.044-.002.008.023.083.038.12.002.005.012.003.023-.006.018-.013.018-.017.002-.067-.013-.044-.023-.063-.058-.117-.023-.035-.04-.067-.04-.069.011-.013.017-.06.01-.079-.003-.009-.003-.034 0-.055.005-.03.008-.03.024-.016.026.026.034-.004.026-.144-.005-.107-.009-.127-.029-.18-.012-.032-.024-.067-.024-.078-.01-.063-.089-.173-.093-.129-.001.018-.007.021-.012.005-.01-.027-.017-.036-.013-.019.004.018.003.017-.006-.004-.007-.017-.016-.027-.028-.032L8.58 8l.009-.022c.003-.013.009-.037.01-.054.011-.115-.034-.136.029-.107.018.008.031.01.031.005-.001-.016.042.014.048.031.002.009.008.013.02.012.008-.002.02-.002.024 0 .009.002.008 0-.004-.011-.01-.01-.012-.02-.012-.053 0-.034.004-.039.021-.032.016.006.021.011.026.025.013.031.023.038.026.017.002-.01.005-.016.008-.01l-.006-.018c-.005-.015-.006-.025-.002-.024.013.007.03.064.026.097-.003.016-.004.039-.002.051 0 .011-.002.024-.006.03-.01.014 0 .064.024.116.01.024.033.073.053.111l.044.087c.011.025.012-.023 0-.05-.004-.01-.005-.022-.002-.026.003-.002.002-.015-.003-.03s-.006-.027 0-.028c.006-.003.005-.01-.005-.03-.014-.026-.016-.05-.002-.037.003.005.004.002 0-.005-.003-.009-.008-.016-.01-.017-.002 0-.009-.013-.014-.027-.008-.019-.012-.026-.018-.028-.01-.004-.014-.014-.022-.059-.004-.024-.003-.036.002-.033.006.003.01.002.012-.002.001-.004.004-.001.008.007s.007.008.008-.001c.002-.016.012-.013.03.009.005.006.009.008.011.005-.096-.153-.2-.3-.312-.44 0 .003-.003 0-.011-.013l-.003-.005-.012-.015-.005-.003c-.005-.002-.011-.01-.015-.02l-.001-.002-.03-.036c-.014-.01-.031-.02-.057-.032-.06-.028-.029-.018-.053-.05-.021-.028-.073-.053-.063-.031.004.01.001.008-.005-.005-.009-.016-.017-.024-.04-.034l-.042-.02c-.005-.003-.015-.008-.022-.01-.01-.001-.01.002.005.026.016.025.016.027.001.015-.009-.006-.015-.006-.012 0 .002.007-.003.007-.011 0-.009-.008-.033-.02-.054-.028-.029-.011-.039-.012-.039.003 0 .02-.018.008-.06-.039-.019-.02-.02-.023-.012-.02.013.004-.008-.025-.023-.03-.01-.004-.012-.006-.006-.013.005-.005.003-.007-.011-.018-.01-.006-.037-.022-.06-.033-.037-.017-.043-.018-.034-.001.009.017.004.018-.024.01-.02-.007-.046-.02-.06-.032-.013-.011-.048-.03-.08-.04-.03-.01-.072-.028-.093-.038-.026-.015-.033-.016-.025-.004.006.01 0 .016-.019.015-.03.001-.053-.014-.03-.02l.034-.015.04-.017c.015-.006.015-.014 0-.042l-.018-.015-.033-.023c-.012-.01-.037-.02-.055-.024-.037-.007-.082-.031-.085-.043-.005-.023-.058-.045-.08-.033-.008.003-.013.013-.012.02.002.007-.005.01-.012.008-.01-.003-.014 0-.01.005.005.008-.012.007-.036 0-.079-.02-.205-.013-.22.012l-.01.013.02.015c.013.01-.004.013-.055.009-.04-.003-.078-.005-.08-.004-.011.002.033.059.058.073.02.012.025.016.016.019-.006.003-.026-.005-.045-.017-.018-.01-.05-.026-.067-.033-.03-.014-.031-.014-.009.012.022.024.021.024-.007.011-.034-.015-.035-.003-.002.022.018.014.017.015-.005.009-.022-.007-.03-.013-.039-.04-.006-.016-.015-.037-.02-.043-.006-.007-.006-.001-.001.012.005.015.003.024-.004.023-.007-.002-.015.004-.018.01-.006.01-.003.016.016.036.018.02.02.026.02.044-.002.035.016.055.058.061.044.007.076.036.078.069.001.018 0 .018-.009-.005-.01-.028-.042-.051-.066-.047-.012.002-.013.01-.003.034.01.026.009.04-.009.06-.023.03-.085.031-.103.002-.006-.01.001-.013.023-.004.027.011.033.006.043-.03.01-.038.009-.044-.008-.063-.013-.015-.024-.036-.034-.072-.008-.028-.02-.055-.027-.062-.01-.009-.013-.016-.011-.033.002-.03-.016-.053-.042-.057-.018-.003-.022-.007-.018-.017.005-.01.003-.013-.01-.015-.01-.002-.015.003-.012.012.002.008 0 .013-.008.013-.007-.002-.013.01-.013.025 0 .016-.007.036-.016.046-.009.01-.013.02-.008.02.005.003.014.014.017.026.005.012.003.022-.001.02-.005 0 .009.016.033.035.066.057.05.07-.03.024-.037-.022-.095-.048-.129-.06l-.085-.03c-.017-.01-.015-.006.01.014.042.033.052.053.037.072-.009.01-.015.01-.023-.004-.01-.014-.026-.016-.078-.01-.049.007-.07.005-.078-.01-.005-.009-.015-.013-.022-.007-.007.005-.022.01-.036.014-.047.006-.098.035-.1.053-.002.02-.04.022-.067.005-.02-.013-.018-.038.005-.036.019.002.016-.022-.006-.037-.023-.016-.08-.017-.064-.002.007.009.014.025.013.038 0 .013.005.03.012.036.022.021.003.052-.025.038-.015-.007-.039-.004-.058.007-.039.023-.04.025-.02.057.016.024.014.026-.024.016-.023-.005-.052-.016-.064-.022-.016-.01-.022-.006-.02.006.001.01.012.023.023.028.02.01.03.038.01.037-.022-.002-.08-.039-.094-.063-.007-.013-.013-.033-.012-.046.001-.012-.008-.026-.024-.032-.052-.024-.017-.025.073-.001.08.02.095.02.12 0 .018-.013.026-.03.021-.043-.005-.012-.048-.043-.097-.069-.082-.043-.104-.051-.231-.081-.046-.012-.051-.015-.034-.025.02-.013.02-.013-.012-.028-.017-.008-.037-.011-.042-.009-.006.003-.01 0-.012-.01-.001-.01-.007-.011-.016-.006-.008.006-.023.013-.034.014-.011.002-.025.013-.031.022-.007.01-.013.013-.013.007 0-.006.005-.021.013-.032.012-.016.009-.018-.02-.005-.02.009-.04.022-.044.03-.005.007-.018.01-.03.005-.011-.004-.031.002-.045.012-.014.012-.03.015-.04.007-.027-.018-.035-.018-.03 0 .003.007 0 .013-.006.012-.005 0-.021 0-.034.002-.018.001-.02.004-.01.016.023.024-.012.037-.036.015-.017-.014-.02-.014-.014 0 .004.014 0 .015-.015.007-.017-.008-.02-.006-.009.006.008.01.022.013.031.009.036-.018.013.02-.04.06-.032.026-.063.062-.074.09-.01.025-.025.046-.033.046-.007 0-.014.008-.014.017 0 .008-.004.013-.01.008-.004-.005-.02.006-.034.024-.016.018-.034.028-.042.024-.008-.005-.014 0-.015.014 0 .013-.01.024-.018.024-.01 0-.038.013-.061.027-.047.03-.064.08-.04.12.01.018.01.025-.006.043-.016.017-.015.02.008.01.025-.009.025-.008.006.015-.023.026-.019.036.031.05.027.008.049.001.082-.023.024-.02.045-.042.045-.052.001-.013.006-.012.016.002.008.01.014.03.014.042-.001.012.003.022.01.022.005 0 .009.01.009.021-.001.013.008.036.019.052.01.017.018.033.014.038-.002.004 0 .02.005.035.01.03.054.028.054-.001.001-.009.013-.015.028-.015.045 0 .069-.03.064-.082-.004-.04 0-.05.025-.066.017-.012.037-.03.046-.043.013-.02.012-.024-.005-.044-.01-.012-.027-.022-.034-.022-.007 0-.013-.013-.014-.03 0-.05.03-.095.078-.122.055-.03.073-.05.065-.07-.013-.029.04-.062.085-.056.052.007.065.03.034.055-.108.09-.12.103-.113.128.005.014.008.042.009.06 0 .052.05.077.127.065l.091-.014c.032-.006.066.018.056.036-.004.007-.038.014-.079.014-.089.003-.12.014-.119.036 0 .01.01.022.021.027.014.005.02.018.017.039-.005.045-.018.051-.045.023-.042-.043-.074-.007-.071.08.002.043-.002.054-.02.054-.012 0-.022.006-.022.016 0 .021-.048.02-.062-.002-.008-.01-.038-.005-.089.016-.042.018-.084.026-.09.02-.007-.005-.04-.012-.074-.012-.066 0-.1-.027-.087-.065.003-.013.017-.028.028-.033.017-.008.02-.016.011-.032-.007-.014-.008-.031-.003-.04.011-.027-.022-.02-.042.009-.01.013-.024.02-.03.013-.008-.008-.01.005-.008.052.007.12.006.13-.024.13-.082.005-.09.008-.098.044-.006.024-.011.028-.017.013-.004-.015-.015-.007-.039.031-.019.03-.049.057-.068.063-.02.007-.038.022-.043.035-.005.013-.026.036-.047.051-.031.02-.045.022-.06.007-.018-.014-.021-.012-.025.017s-.011.035-.034.035c-.058-.006-.08.001-.083.026-.002.013.006.025.02.025.047-.001.098.077.09.138-.003.025-.011.062-.02.084-.016.039-.02.04-.122.036-.057-.002-.11-.008-.117-.011-.007-.005-.025 0-.041.01-.026.018-.03.029-.036.095-.004.04-.016.096-.03.126-.017.04-.02.058-.012.073.005.01.006.038.003.06-.006.037-.003.04.032.03.03-.01.043-.003.058.023.018.028.028.031.056.016.02-.009.057-.018.082-.018.029-.001.05-.01.056-.027.005-.014.016-.026.025-.026.02 0 .06-.07.06-.104 0-.036.06-.107.11-.13.031-.013.044-.029.05-.063.009-.054.054-.08.094-.052.02.013.04.008.089-.023.034-.022.068-.041.076-.041.008-.002.038.032.066.072.03.042.09.1.135.128.085.052.108.088.091.157-.01.037-.007.035.029-.009.031-.04.035-.05.018-.063-.016-.012-.016-.02-.003-.038.013-.016.021-.016.043 0 .017.013.031.018.036.013.008-.01-.077-.078-.099-.078-.008 0-.017-.008-.016-.016 0-.01-.01-.017-.021-.017-.01 0-.042-.03-.07-.067-.026-.037-.052-.068-.059-.068-.007 0-.012-.018-.011-.04.002-.047.049-.074.059-.034.003.013.015.02.027.015.012-.005.027.009.039.04.011.025.036.053.055.06.018.006.057.03.085.053.039.03.052.054.053.087 0 .029.018.067.053.11.028.037.047.07.04.071-.017.008.043.083.066.083.011.001.014-.01.01-.025-.006-.017.003-.03.024-.042.052-.025.032-.066-.026-.053-.006.001-.008-.009-.005-.022.005-.016.001-.031-.006-.036-.023-.02-.015-.047.01-.034.014.005.03 0 .039-.016.029-.05.118-.017.107.038-.003.014.001.024.01.024.01 0 .015.016.013.043-.002.024.002.042.007.042.006.001.012.013.013.027 0 .015.018.035.039.045l.065.039c.023.015.035.013.05-.01.017-.024.024-.024.057 0 .042.029.092.035.1.012.001-.008.022-.018.045-.02l.04-.007.001.07c.002.038-.007.11-.018.161-.025.109-.064.141-.122.1-.03-.02-.042-.021-.075-.003-.046.025-.075.026-.14.001-.026-.01-.084-.028-.127-.04-.044-.014-.08-.028-.08-.037 0-.007-.016-.018-.035-.023-.049-.017-.11.022-.108.068 0 .02-.008.049-.017.062-.016.024-.024.023-.079-.008-.033-.017-.075-.032-.092-.032s-.038-.014-.045-.03c-.014-.031-.108-.078-.127-.064-.012.009-.133-.055-.133-.069 0-.005.015-.024.032-.042.026-.026.028-.034.014-.059-.014-.022-.013-.032.002-.056.017-.026.017-.028-.003-.017-.013.005-.024.004-.024-.007.001-.012-.017-.015-.047-.008-.028.005-.112.015-.189.02-.099.009-.23.028-.297.098-.016.016-.145.007-.159-.015-.014-.026-.023-.018-.047.038-.014.032-.042.065-.07.083-.057.037-.12.132-.119.184 0 .043-.042.099-.117.145-.047.032-.142.148-.148.185-.002.01-.016.034-.032.054-.016.02-.047.07-.068.11-.038.067-.04.076-.028.103.014.03.013.062-.002.165-.01.06-.054.176-.07.183-.009.005-.01.019-.003.045.007.02.007.058.002.085-.01.036-.005.048.018.057.016.006.028.017.027.026 0 .007.017.046.04.084.023.038.038.089.038.104.005.075.117.16.178.219.034.031.042.032.174-.001.04-.01.09-.01.123 0 .045.012.073.007.147-.026.074-.035.188-.084.268-.035.02.016.036.039.036.051-.002.045.028.06.101.048.061-.01.072-.005.113.033.028.025.042.053.039.069-.006.014-.011.063-.013.106-.002.046-.01.09-.017.1-.019.028.01.08.098.17.077.086.14.196.161.312l.023.113c.01.048.007.066-.018.093-.033.038-.071.166-.063.224.012.08.08.168.13.238.015.02.032.076.04.126.016.1.042.16.076.188.032.024.115.18.104.197-.013.02.02.075.055.09.023.009.038.008.059-.003.014-.01.06-.02.103-.023.124-.01.244-.053.32-.162.022-.028.058-.07.08-.093.03-.032.041-.056.048-.107.01-.063.012-.066.071-.095.058-.03.06-.035.066-.086.004-.031.003-.08-.003-.11-.008-.05-.006-.056.022-.08.018-.013.05-.042.07-.066.02-.024.055-.052.08-.062.024-.01.058-.036.075-.056.033-.035.036-.049.048-.167.01-.098.008-.135-.006-.148-.01-.01-.017-.047-.017-.09.002-.039-.002-.088-.008-.107-.01-.027-.003-.049.033-.116.025-.047.062-.104.085-.13.023-.024.074-.085.116-.134.041-.048.091-.1.113-.112.092-.075.14-.17.168-.289.013-.057.026-.111.031-.122.005-.01.006-.056.004-.1-.005-.076-.008-.08-.027-.067-.011.007-.075.03-.145.05l-.125.036c-.016-.016-.023-.025-.038-.043-.023-.027-.033-.048-.024-.052.018-.01-.077-.12-.149-.175-.039-.03-.06-.06-.077-.108-.012-.039-.039-.085-.059-.103-.026-.024-.042-.059-.056-.117-.011-.056-.031-.099-.056-.127-.02-.024-.04-.057-.044-.073-.003-.014-.02-.057-.04-.092-.02-.036-.047-.09-.061-.122l-.058-.111c-.018-.03-.028-.056-.022-.056.006.002.025.027.042.056.04.07.067.083.062.029-.003-.026 0-.03.007-.014.006.014.038.066.07.116.033.048.06.097.062.107 0 .01.018.03.035.047.04.032.072.096.08.156.003.027.023.057.056.088.028.024.053.055.055.066.001.011.023.051.05.09.026.035.05.083.054.104.008.065.055.192.074.2.008.003.03-.004.048-.018.016-.014.038-.024.047-.024.01 0 .03-.008.044-.016.015-.008.03-.014.033-.012.004 0 .02-.011.033-.027.015-.015.046-.037.071-.05.025-.011.053-.039.064-.06.01-.025.037-.045.063-.052.027-.007.043-.02.04-.034-.002-.014.006-.023.019-.023.012 0 .02-.01.019-.017-.002-.01.007-.026.02-.038.013-.01.02-.023.017-.031-.013-.019-.006-.066.008-.066.006 0 .017-.025.025-.053l.013-.054-.03-.038c-.017-.021-.045-.043-.063-.048-.04-.013-.058-.038-.075-.097l-.013-.047c-.01.023-.016.034-.028.057-.048.092-.147.091-.148-.004 0-.048-.028-.066-.032-.019-.002.036-.004.034-.03-.027-.012-.034-.033-.068-.042-.073-.01-.006-.035-.04-.052-.076-.034-.065-.034-.065-.016-.083.036-.032.064-.02.101.049.038.061.123.16.2.144.01-.01.022-.012.027-.007.005.005.008.002.005-.008-.007-.035.017-.022.036.02.01.023.022.045.029.05.085.034.221.052.309.022.004-.005.026.017.051.047.059.073.11.118.12.105.003-.005.01-.002.01.006.003.01-.005.019-.016.019-.021-.001-.02.003.02.05.047.058.08.054.078-.006 0-.035 0-.035.021.01.012.026.02.054.02.063.019.104.064.21.11.304.022.04.042.082.044.093.003.01.022.05.043.087.02.036.048.092.062.125.034.085.051.086.075.01.03-.089.008-.19-.016-.278-.016-.064-.017-.077-.004-.086.01-.005.015-.014.013-.023-.002-.007.001-.013.006-.013.01-.001.033-.054.055-.142.01-.027.02-.051.026-.051.016 0 .023-.033.014-.066-.004-.017-.002-.029.003-.03l.036-.009c.014-.005.03-.01.036-.01.006 0 .009-.013.007-.03-.007-.042.02-.016.05.05.017.032.039.065.053.076.015.01.025.026.025.04.001.012.006.023.01.023.013 0 .045.08.046.117.001.026.005.037.015.043.024.014.033.01.043-.03l.01-.038c.01.026.014.038.025.063m-.363.432c-.036-.064-.045-.071-.045-.034 0 .038.023.136.038.16.01.018.017.019.031.003.025-.025.019-.053-.024-.129m-1.562 1.66c-.029.04-.033.058-.035.11-.003.088.021.118.077.1.025-.007.05-.018.052-.022.064-.092.113-.24.157-.364.004-.012.012-.03.018-.04.007-.011.011-.03.01-.046-.001-.023 0-.026.016-.022.014.007.016 0 .018-.047.001-.05-.013-.135-.023-.134l-.012.01c-.006.006-.012.022-.014.034-.002.014-.014.037-.027.049-.014.014-.036.04-.048.059-.013.018-.045.043-.07.054-.07.028-.099.078-.093.155.005.054.002.064-.026.104m1.248 2.205c-.03.014-.039.016-.045.01-.003-.002-.015 0-.027.006-.011.003-.02.004-.016 0 .006-.01-.002-.008-.01.002-.003.004-.011.01-.02.014-.01.005-.016.005-.013.003.002-.003-.002-.004-.01-.003-.024.006-.043.002-.034-.006.003-.005.002-.008-.003-.005-.009.005-.031.01-.07.018l-.05.011c-.008.002-.006-.002.005-.016.01-.013.012-.018.007-.016-.003.001-.011.01-.019.02-.01.017-.015.02-.045.031-.023.009-.038.016-.05.029-.02.02-.042.028-.042.014-.001-.006-.006-.007-.011-.002-.01.01-.089.042-.136.056-.029.008-.058.007-.063-.004-.004-.01-.046.009-.07.032-.016.014-.023.016-.078.018-.053 0-.066.002-.094.019-.01.007-.016.01-.018.013l-.002.002c-.01.011-.025.02-.034.024-.06.015-.096.028-.111.039-.01.008-.026.015-.033.017-.008.002-.032.017-.055.034-.022.015-.062.038-.086.048-.026.01-.054.027-.063.035-.01.008-.017.012-.018.01 0-.003-.01.007-.023.022-.028.03-.072.059-.089.054-.01-.003.005-.033.02-.036.005 0 .016-.01.025-.02.016-.016.016-.016.004-.009-.018.01-.029.004-.018-.01.005-.004.012-.01.018-.01.01-.002.054-.045.06-.06.001-.005-.023-.008-.059-.006-.098.005-.189 0-.188-.007 0-.004-.005-.012-.011-.018-.024-.02-.133.007-.14.036-.003.01-.009.013-.025.011-.017 0-.022.002-.023.01 0 .01-.006.013-.025.01-.014-.002-.036.002-.051.008-.015.008-.036.016-.047.018-.054.017-.097.035-.11.05-.016.02-.05.03-.05.016 0-.006-.006-.007-.015-.003-.008.004-.022-.002-.032-.015-.015-.019-.021-.02-.034-.01-.034.029-.06.038-.153.057-.062.011-.116.014-.159.01-.069-.01-.142-.017-.211 0-.006.008-.02.009-.031.004-.028-.011-.178-.014-.205-.003-.041.016-.076.02-.14.012-.04-.005-.07-.014-.069-.02.007-.018-.024-.01-.042.01-.018.02-.019.022-.033 0-.014-.017-.019-.019-.04-.01-.012.007-.029.008-.036.003-.013-.007-.013-.007 0 .011.014.018.014.018-.003.028-.01.005-.024.008-.03.007-.008 0-.016.003-.019.008-.003.005-.016.01-.029.01-.013.002-.024.008-.026.016 0 .01.005.014.029.011.026-.003.023 0-.016.018-.025.011-.046.026-.047.032 0 .006-.019.01-.044.006-.086-.012-.359-.009-.37.04-.001.004.089.05.099.046.004 0 .027 0 .05.002.041.003.043.003.027.014l-.017.011.022.005c.012.002.025.013.025.014-.003.004-.01.006-.02.008.271.049.548.075.833.075 1.04 0 2.003-.338 2.783-.91m-3.978.716c-.01-.011-.018-.025-.02-.032-.004-.023-.08-.049-.123-.045-.014.002-.027.014-.03.025-.003.017-.015.025-.041.024h-.02c.063.02.128.04.192.057h.043c.014-.007.014-.008-.001-.03m-.247-7.65c.014-.005.022-.003.02.003-.003.008.001.015.008.015.008-.001.011.006.009.012-.002.008.007.014.02.016.02-.001.033-.012.059-.054.019-.03.033-.061.033-.07 0-.009.017-.028.04-.044.042-.028.054-.047.04-.059-.006-.005-.002-.01.008-.01.014-.001.016-.006.014-.024-.003-.018.003-.023.037-.033.024-.007.052-.023.065-.037.021-.024.022-.022.009.003-.013.023-.012.026.006.012.012-.008.04-.021.06-.028.021-.004.057-.029.079-.05.02-.02-.132-.034-.126-.034.006 0 .186-.014.186-.026 0-.02.004-.022.015-.008.016.02.13-.004.228-.05.06-.03.067-.035.05-.045-.011-.006-.035-.013-.054-.014-.02-.004-.026-.007-.013-.011.014-.005.02-.014.021-.032 0-.018.004-.021.018-.012.01.006.02.019.02.027.003.018.073.027.077.01.005-.025-.023-.072-.049-.082-.03-.01-.047-.055-.023-.055.009 0 .013.006.01.015-.002.015.043.047.056.037.016-.014.01-.033-.018-.05-.018-.011-.028-.024-.025-.028.003-.005.017 0 .03.01.028.016.085.004.088-.021 0-.009.012-.02.027-.025.011-.003.016-.006.027-.01l-.027-.001c-.031-.002-.031-.033 0-.033.011 0 .021-.004.022-.008.005-.023-.017-.053-.037-.053-.044 0-.038-.022.004-.026 0 .004.002.008.005.008.004 0 .009-.004.013-.01.024 0 .037.006.036.014-.002.01.003.01.012-.003.02-.027.017-.038-.013-.04-.015 0-.027-.009-.028-.018-.002-.01-.01-.014-.023-.008l-.02.01.024-.031c.013-.018.029-.031.035-.031.007 0 .016-.01.02-.022.007-.012.019-.022.029-.022.01 0 .026-.006.035-.013.04-.032.064-.047.11-.063l.049-.018-.049-.013c-.031-.009-.061-.006-.087.005-.021.009-.049.013-.062.01-.012-.005-.04 0-.06.012-.022.01-.041.017-.041.013-.002-.005 0-.008.004-.008.005 0 .017-.01.028-.023.018-.02.016-.023-.03-.015-.032.006-.046.004-.041-.005.004-.009.024-.015.045-.015.02 0 .04-.008.044-.015.005-.009-.006-.015-.028-.015-.02.001-.047-.006-.058-.013-.09-.024-.192-.017-.283-.005-.028.004-.052.014-.055.02-.001.007-.048.014-.101.015-.06.002-.089.008-.074.013.022.008.032.026.016.027-.005 0-.008.006-.01.015 0 .017-.003.016-.065-.001-.07-.02-.08-.018-.08.008 0 .024-.01.028-.038.012-.013-.008-.022-.006-.03.004-.008.012-.013.011-.017 0-.01-.021-.182.025-.192.05-.004.012-.017.019-.04.022-.039.006-.117.042-.137.063-.007.006.001.01.017.007.016-.002.027.001.022.01-.007.014-.027.025-.086.043-.104.035-.131.046-.136.055-.007.014.066.031.08.019.007-.006.008-.002.004.004-.004.009-.024.018-.045.023-.032.006-.034.008-.021.013.009.004.019.014.023.021.005.01.036.008.094-.005.092-.02.154-.01.157.025 0 .01.006.017.012.016.006 0 .013.025.017.053.005.047.003.059-.012.074-.035.036-.033.05.005.038.024-.007.043-.004.057.01.018.023.018.06 0 .043-.006-.004-.022-.007-.037-.007-.016.002-.023-.003-.016-.013.006-.008.003-.01-.005-.005-.009.005-.016.015-.017.023 0 .007-.005.014-.009.014-.005 0-.012.01-.017.022-.01.025.012.038.043.024.01-.003.014-.006.023-.01l-.011-.02c-.01-.018-.01-.018.013-.01.013.003.023.014.02.021 0 .008.007.006.016-.003.016-.017.013-.012-.007.02-.015.025-.031.041-.041.042-.01 0-.034.017-.053.035-.032.031-.036.037-.03.053.005.013.004.02-.007.026-.009.005-.01.018-.003.04.004.019.005.043 0 .056-.01.026-.009.026.028.003.03-.017.03-.017.002.015-.027.033-.028.035-.012.102.017.075.036.093.074.081m-.233 7.323l-.026-.02c-.013-.01-.024-.02-.023-.024.002-.004 0-.007-.005-.009-.004-.001-.01-.013-.014-.026-.003-.018-.01-.026-.023-.034-.01-.005-.018-.014-.018-.02 0-.012-.063-.068-.08-.07-.01-.001-.018-.008-.027-.025-.009-.013-.013-.025-.012-.025.02-.025.033-.033.044-.026.009.005.014 0 .015-.01 0-.022.033-.04.06-.034.01.002.016 0 .014-.007-.002-.005.007-.011.018-.014l.021-.003-.024-.007c-.013-.004-.024-.004-.026 0-.001.001-.011.006-.025.007-.037.005-.082.02-.09.028-.003.006-.02.017-.035.025-.016.01-.027.021-.025.028.003.007.009.011.013.01.006-.002.01.005.016.029.008.026.005.029-.011.024-.024-.006-.026-.011.034.07l.03.042c.007.017-.02.022-.087.01-.065-.01-.072-.013-.087-.032-.014-.018-.019-.02-.028-.016-.006.005-.008.009-.003.01.005.002.011.009.014.015.003.008-.004.007-.024-.004l-.048-.024c-.01-.004-.028-.013-.039-.02-.014-.01-.022-.01-.025-.001-.003.01-.012.01-.054-.01-.028-.013-.053-.026-.056-.03-.004-.006-.02-.013-.038-.018-.017-.006-.034-.015-.038-.02-.004-.005-.017-.009-.028-.008-.098-.022-.197-.067-.285-.114-.015-.01-.021-.01-.018-.004.004.007.02.016.042.026.02.008.04.018.041.023.002.006-.01.003-.029-.007-.018-.009-.028-.012-.02-.007.009.005.02.016.026.022.006.006.014.013.018.014l.015.011c.181.123.373.234.572.33.01.003.015.003.011-.002-.009-.008-.03-.02-.048-.025-.017-.007-.036-.017-.04-.025-.007-.008 0-.007.021.004.071.035.155.066.159.06.004-.003-.007-.012-.034-.023-.048-.022-.112-.068-.103-.077.005-.002.029.008.058.024.06.034.12.056.155.054.015 0 .05.002.078.005.034.003.053 0 .054-.009 0-.008.008-.01.013-.004.006.004.015 0 .022-.012.007-.014.007-.023 0-.025-.007-.001-.014-.007-.015-.01-.002-.007.008-.005.022 0l.024.01m-.318-.124c-.025.005-.021.008.024.018.077.018.078-.005.006-.086-.043-.048-.052-.054-.073-.05-.006 0-.006.007.002.023.007.011.01.024.006.028s0 .008.014.012c.029.008.024.016-.007.012l-.038-.003-.022-.003c-.007-.002-.006.001.002.012.01.01.02.014.039.012.015 0 .031.003.04.01.013.011.013.012.007.015M1.81 9.826c-.004.013.083.038.101.026.006-.005.03-.009.052-.01.022-.002.042-.006.044-.007.003-.003-.007-.023-.02-.042-.029-.04-.117-.06-.11-.025.008.038-.01.067-.037.056-.013-.006-.027-.004-.03.002m-.054-.115c-.01.02-.005.025.03.028.045.004.077-.019.054-.04-.008-.005-.025-.026-.04-.046-.084-.11-.107-.125-.159-.106-.017.008-.04.024-.052.038-.02.023-.02.024.003.014.014-.005.03-.015.039-.023.017-.018.044-.015.037.004-.003.009.003.017.014.018.011 0 .021.008.02.018 0 .008.008.017.02.018.01 0 .017.012.015.026-.002.013.004.025.014.026.014 0 .014.01.005.025m1.389-1.653c-.022.006-.035.001-.038-.015-.002-.013-.01-.02-.019-.013-.017.013.005-.02.043-.063.043-.049 0-.034-.045.014-.021.023-.048.057-.056.073-.011.018-.023.031-.028.031-.004 0-.012.011-.017.024-.006.013-.014.025-.02.025-.004 0-.011.006-.015.016s.022.013.064.011c.057-.002.068 0 .052.018-.034.04-.001.021.051-.03.029-.026.044-.043.035-.038-.014.01-.012.003.003-.025.02-.034.018-.036-.01-.028m-.4-.756c.006-.009.002-.014-.006-.013-.008 0-.01-.004-.007-.013.007-.012-.016-.036-.043-.043-.005 0-.004-.01.003-.019l.008-.015-.019.01c-.008.004-.026.026-.04.046-.014.021-.036.049-.048.06-.021.02-.021.02-.002.01.011-.006.021-.003.021.007.002.013.009.01.04-.012.031-.024.04-.027.052-.015.018.017.032.016.042-.003m-.453 6.31c-.002-.02.003-.033.012-.03.012.002.015.006.01.019-.004.013-.002.017.01.02.015.003.016.004.008.02-.005.012-.012.019-.016.018-.003 0-.008.002-.01.008-.002.004.01.01.026.014.018.003.03.01.029.017-.001.007.008.013.023.016.016.004.02 0 .012-.01-.01-.015-.009-.015.007 0 .01.01.033.018.055.018.041.001.055-.016.019-.023-.026-.005-.098-.061-.105-.08-.002-.008-.015-.021-.028-.03-.019-.01-.022-.015-.01-.012.013.002.013-.003-.003-.033-.023-.038-.025-.056-.004-.052.008.002.014-.01.013-.026 0-.015.008-.034.02-.042.026-.013.023-.053-.005-.058-.048-.01-.072-.083-.029-.09.012-.002.021-.01.022-.02.003-.029.002-.066-.003-.076-.002-.007.002-.01.008-.01.009.002.009 0-.002-.01-.007-.005-.02-.024-.028-.04-.014-.03-.013-.031.031-.016s.047.015.047-.016c.002-.018-.003-.041-.007-.05-.008-.012.001-.017.03-.013.068.01.107.001.123-.032.018-.033.017-.065-.002-.068-.006 0-.014-.014-.016-.028-.004-.014-.018-.034-.031-.044-.013-.01-.026-.025-.028-.034-.002-.008.003-.008.014.004.011.011.046.027.077.036.053.015.061.013.083-.018.013-.019.027-.056.03-.08.008-.058.025-.098.036-.085.005.007.007.017.004.028-.004.009 0 .006.004-.008.006-.013.02-.043.033-.066.015-.03.019-.062.012-.107-.007-.037-.003-.076.005-.09.02-.037.134-.094.179-.091.035.003.079-.028.075-.053-.002-.008.007-.037.018-.067.012-.03.018-.058.016-.061-.003-.004-.002-.033.003-.064.005-.032.003-.1-.002-.15-.01-.07-.008-.1.008-.123.047-.073.106-.154.13-.242.001-.023-.006-.074-.018-.11-.016-.055-.026-.07-.051-.072-.017-.002-.066-.037-.107-.079-.062-.061-.088-.077-.132-.082-.03-.004-.067-.017-.08-.027-.016-.012-.037-.016-.054-.007-.023.01-.027.006-.03-.023-.003-.028-.019-.045-.077-.08l-.072-.043-.024.047c-.013.027-.029.041-.034.034-.006-.007.001-.027.013-.043.027-.035.016-.064-.027-.08-.023-.01-.035-.003-.048.03-.016.039-.017.04-.022.01-.002-.02.006-.057.022-.083.024-.043.025-.05.003-.072-.012-.014-.028-.05-.038-.08-.008-.032-.034-.085-.05-.12-.026-.051-.04-.062-.104-.078-.071-.015-.078-.021-.106-.095-.019-.052-.037-.08-.055-.081-.023-.003-.024-.01-.011-.036.012-.024.01-.035-.01-.045-.012-.007-.023-.025-.023-.04-.002-.025-.009-.026-.052-.01-.034.013-.053.013-.06-.002-.007-.01-.025-.016-.042-.015-.021.003-.034-.007-.04-.031-.003-.02-.013-.038-.02-.038-.007-.001-.014-.007-.014-.015 0-.007-.001-.002-.003.008-.002.012-.011.02-.02.02-.01-.001-.024.005-.035.016-.025.027-.026-.003 0-.039.032-.047.024-.054-.02-.019-.022.018-.045.03-.052.029-.007 0-.018.003-.023.009-.007.007-.016.013-.02.012-.006.002-.013.002-.019.003-.004 0-.012.01-.017.023-.003.012-.025.045-.045.07-.04.046-.04.045-.049.013-.014-.05-.035-.06-.076-.037-.032.02-.039.02-.05-.002-.008-.014-.016-.044-.017-.068-.003-.042 0-.054.041-.15.04-.096.045-.108.04-.136-.006-.023-.02-.031-.063-.034-.078-.005-.077-.005-.058-.029.009-.01.027-.046.039-.076.011-.03.023-.053.025-.048.002.006.013-.011.024-.035.011-.023.03-.056.039-.07.035-.053.033-.064-.012-.057-.05.007-.073.026-.093.076-.014.038-.06.092-.066.076-.002-.004-.017-.003-.034.004-.047.02-.064-.013-.055-.107.005-.068.012-.094.046-.176.021-.053.044-.1.05-.104.006-.005.017-.03.025-.055.018-.054.065-.123.084-.122.007 0 .024-.012.038-.026.028-.03.079-.031.125-.004.024.014.025.014.037-.021.011-.035.014-.036.058-.035.027.001.05.011.053.025.004.014.012.016.028.006.027-.019.04.045.016.089-.01.015-.017.046-.016.067 0 .021-.002.044-.005.05-.006.017 0 .058.011.059.005 0 .018-.017.03-.039.02-.039.031-.083.053-.199.004-.027.011-.058.016-.068.013-.032.06-.098.07-.097.005 0 .025-.017.046-.04.02-.022.041-.04.047-.04.005.001.02-.01.03-.023.012-.012.028-.023.037-.023.01 0 .018-.009.021-.028.004-.016.008-.023.01-.014.004.005.01.003.018-.006.006-.008.008-.016.002-.017-.007 0-.005-.007.008-.02.011-.014.019-.03.018-.038-.001-.024.023-.094.04-.117.011-.014.01-.005-.001.033-.015.046-.015.05.004.024.011-.016.024-.04.027-.053.003-.015.01-.023.021-.023.012 0 .025-.014.04-.04.017-.03.028-.04.045-.04.016 0 .022-.005.018-.015-.004-.008.011-.018.043-.024.04-.01.05-.016.05-.032-.001-.039.047-.1.098-.123.025-.013.056-.03.07-.039l.035-.019.04-.015c.03-.01.031-.01.004.015-.016.015-.031.026-.036.026-.01 0-.028.045-.022.057.003.006.022-.001.042-.018.02-.016.044-.03.055-.034.036-.01.1-.051.109-.073.006-.016.008-.016.007-.001 0 .013.006.014.018.005.014-.011.017-.016.01-.016-.007 0-.007-.014 0-.03.008-.023.003-.021-.027.013-.028.033-.043.04-.065.037-.038-.007-.054-.046-.037-.086.01-.023.008-.032-.004-.034-.015-.002-.012-.005.011-.013.017-.005.035-.021.04-.034.008-.018 0-.024-.034-.023-.046.004-.101.035-.164.095-.027.026-.024.02.013-.021.027-.029.066-.065.086-.077.02-.013.049-.034.066-.047.026-.02.05-.023.116-.017.073.007.089.004.126-.024.023-.017.064-.04.089-.05.04-.014.048-.022.064-.06.016-.04.015-.05-.008-.066-.018-.015-.021-.026-.01-.035.013-.01.015-.014.007-.015-.012-.003-.023-.009-.024-.014-.001-.002-.01-.005-.02-.006-.01-.003-.019-.011-.018-.018 0-.008-.003-.022-.01-.032-.004-.01-.003-.028.004-.04.007-.013.009-.064.005-.114l-.005-.087-.043.048c-.05.057-.096.08-.1.053-.002-.01-.012-.014-.021-.011-.014.007-.014-.001.01-.05.026-.053.026-.056.003-.064-.014-.005-.022-.014-.02-.02.01-.02-.017-.045-.046-.04-.014.002-.04 0-.053-.004-.014-.005-.03-.002-.036.004-.006.008-.023.042-.036.076-.02.054-.028.068-.053.094-.027.03-.027.03-.016.046.01.019-.004.072-.032.112-.009.014-.039.04-.065.056l-.05.032-.017.057c-.025.081-.033.096-.064.116-.025.016-.029.01-.034-.03-.004-.025-.002-.055.003-.065.053-.101.053-.104.01-.101-.022.001-.039-.005-.037-.012.002-.008-.003-.014-.011-.013-.008 0-.02-.013-.027-.03-.008-.018-.028-.029-.05-.028-.03 0-.035-.004-.025-.035.007-.022.005-.04-.005-.042-.018-.009-.004-.036.054-.106.047-.057.112-.113.135-.116.008-.001.016-.008.018-.014.005-.019.044-.047.067-.05.023-.003.139-.117.131-.129-.002-.004.006-.005.02-.002.013.002.023.012.024.018 0 .01.002.009.007-.005.005-.014.015-.022.03-.025.013-.003.036-.015.049-.025l.025-.018-.004-.02c-.004-.02.005-.045.016-.042.003.002.01-.003.017-.012.007-.009.002-.022-.008-.031l-.024-.017c-.003-.001.025-.007.061-.009.052-.004.07-.01.074-.024.008-.023.012-.022.027 0 .006.012.007.027.002.033-.005.005 0 .006.012.001.012-.004.018-.002.014.005-.003.007.005.02.02.027.039.022.02.076-.041.11-.016.009-.023.016-.024.03-.002.014-.01.02-.034.028-.018.007-.039.01-.046.006-.012-.008-.046.018-.06.045-.004.007.02.008.056.002.045-.008.064-.008.065.007.003.01.01.02.017.018.008 0 .01.005.004.011-.014.019.004.053.021.039.008-.007.015-.005.017.003.001.007.012.018.024.023.012.004.027.012.034.015.02.014.023-.025.002-.054-.03-.038-.014-.05.021-.016.027.023.031.025.05.002.018-.022.022-.032.022-.06 0-.02-.005-.033-.011-.033-.006 0-.014-.01-.019-.023-.007-.022-.006-.024.019-.045.026-.022.034-.016.046.03.006.029.03.033.042.007.006-.011.011-.018.013-.013.001.004.02-.009.041-.03l.038-.035c-.013-.002-.019-.004-.03-.007-.016-.003-.028-.012-.026-.021.001-.009-.01-.018-.025-.021-.058-.01-.07-.055-.02-.064.012-.002.012-.005 0-.012-.015-.008-.014-.01 0-.013.012-.002.019-.008.021-.018.002-.008-.006-.01-.02-.003-.014.006-.017.004-.009-.007.011-.015.007-.017-.022-.015-.01 0-.015-.003-.011-.01.01-.02-.026-.034-.043-.018-.01.009-.02.002-.025-.018-.006-.018-.017-.033-.025-.031-.008 0-.01-.005-.004-.011.017-.02-.012-.038-.05-.033-.022.003-.036.01-.043.021-.007.012-.009.013-.005 0 .003-.015-.006-.014-.04-.003-.056.02-.08.038-.096.073-.008.015-.008.026-.004.026.006-.001.007.003.002.011-.01.019-.013.019-.023.002-.004-.007-.002-.02.003-.032l.017-.028c.003-.005.016-.02.03-.029.025-.018.025-.02-.005-.015-.04.007-.072.028-.112.075-.033.036-.034.038-.035.065 0 .021.01.03.043.032.023.003.036.008.028.011-.018.01-.035.035-.022.033.003 0-.006.013-.025.03-.017.017-.034.03-.038.026-.003-.005-.01.001-.016.016-.015.03-.031.038-.032.015-.002-.015 0-.02.015-.033.014-.012.017-.018.01-.03-.008-.011-.013-.01-.034.01-.034.033-.037.032-.021 0 .01-.02.007-.026-.005-.024-.016.002-.011-.017.008-.029.012-.007.009-.072-.003-.07-.005.001.005-.012.023-.03.02-.018.034-.028.04-.024.008.003.079-.047.09-.065.006-.01-.106.018-.122.031-.015.012-.02.02-.027.04-.012.037-.023.05-.049.069-.015.01-.029.024-.04.043-.016.028-.01.042.02.044.002 0 0 .006-.008.014-.006.008-.007.014-.002.013.017-.003-.01.024-.038.037-.019.01-.027.018-.036.038-.01.02-.013.023-.02.019-.006-.003-.004-.012.002-.021.006-.01.01-.023.01-.031-.003-.01 0-.015.004-.015.005 0 .015-.001.023-.004.013-.003.013-.003.012-.02-.002-.03-.02-.03-.054-.005-.027.021-.03.025-.02.023.02-.003.016.01-.012.036-.029.03-.128.037-.138.013-.006-.02-.065-.002-.072.02-.002.005.011.002.029-.008.019-.01.034-.016.032-.012 0 .003-.015.012-.03.02-.022.01-.03.018-.041.037-.008.015-.018.03-.024.035-.006.004-.004 0 .002-.011.019-.029-.01-.033-.077-.016-.04.012-.051.012-.043.002.007-.008.019-.016.027-.02.026-.007.007-.02-.023-.013-.014.002-.038.001-.052-.005-.015-.006-.035-.004-.052.005-.017.009-.027.01-.025.002.002-.01-.002-.008-.013.003-.024.024-.032.024-.028 0 .003-.016.001-.017-.014-.002-.01.01-.031.022-.047.028-.049.018-.098.044-.12.064-.017.016-.025.018-.04.013-.032-.007-.004-.033-.071-.01l-.028.004c-.006 0-.018.001-.027.004l-.018.003-.018.01-.033.024-.055.04c-.04.046-.08.093-.118.14.002 0 .005-.001.008-.005.01-.011-.001.008-.016.028-.004.005-.011.009-.017.01l-.047.06.018-.012c.014-.01.015-.01.004.006-.009.01-.017.023-.02.027-.007.009-.027.025-.044.035l-.1.142c.006-.002.003.004-.008.022-.017.023-.016.025 0 .014.01-.006.017-.006.017 0 0 .005.002.005.006.001.003-.005.012-.012.02-.015.012-.005.01-.003-.013.025-.013.018-.041.047-.062.065-.02.018-.041.04-.047.046-.006.006-.01.01-.01.006.001-.003-.004.001-.014.01l-.012.017.027-.019c.013-.008.037-.028.053-.043.016-.014.033-.029.036-.03.004-.001.01-.008.014-.012.003-.005.019-.02.034-.033.016-.012.037-.031.048-.041.018-.018.02-.02.012-.018-.01.003.009-.021.027-.034.008-.006.018-.015.022-.02.01-.017.061-.06.071-.062.008-.002.008-.001-.003.006-.017.012-.066.064-.057.061.004-.001.002.002-.01.013-.024.024-.001.012.027-.013.013-.013.029-.023.035-.027.008-.002.014-.008.02-.021.013-.022.019-.027.024-.011.002.006-.005.017.014.016.01 0-.007.035-.006.05.001.017.01.015.03-.008l-.01.015c-.02.028-.047.09-.038.089.005-.001.038-.069.04-.08 0-.005.004-.009.008-.01.004 0 .009-.008.014-.018.005-.01.006-.01.002.001-.002.008-.007.02-.011.027l-.016.026c-.004.007-.005.013-.002.012.003 0 .01-.01.016-.022.007-.013.012-.018.013-.016.004.006-.021.047-.03.05-.005 0-.012.008-.018.016-.004.006-.004.009.002.004.005-.004.003.004-.004.02-.008.017-.015.037-.016.046 0 .011.002.008.016-.013.008-.014.012-.023.008-.02-.004.005-.003-.003.001-.016.007-.024.008-.025.02-.028.006-.002.007.002.002.007-.012.012-.02.068-.007.059.005-.004-.003.011-.02.04-.033.049-.033.06 0 .025.014-.015.013-.013-.007.016-.02.026-.022.031-.01.023.008-.006.008.001 0 .02-.006.016-.012.03-.014.032-.015.02-.018.032-.007.03.008-.002.01.005.005.013-.008.013-.015.011-.024-.006-.001-.003-.006 0-.01.007-.01.018.008.108.021.099.007-.005.01-.017.009-.031-.002-.025.008-.058.018-.06.003 0 .002.005-.002.012s-.003.016.002.019c.01.009.006.029-.009.065-.01.025-.016.025-.037.005-.005-.005-.006-.005-.017.03-.01.029-.024.055-.067.126-.05.086-.102.17-.14.263 0 .004-.004.017-.009.027-.016.03-.023.078-.012.068.006-.007.004 0-.004.012s-.02.048-.027.084c-.007.033-.015.067-.018.072-.002.006.001.016.01.02.02.013.02.041-.007.141-.013.05-.023.109-.023.13.001.034 0 .04-.017.056-.02.019-.021.012-.002.088.002.014-.001.036-.007.052-.011.025-.007.133.004.118.01-.012.017-.052.01-.059-.004-.004 0-.034.008-.066.009-.032.016-.062.016-.066l.007-.075.01-.083c0-.008.007-.036.016-.062.02-.049.02-.049.03-.034.007.01.005.034-.005.071-.009.032-.016.09-.016.131 0 .04 0 .079-.004.085-.001.004-.002.044 0 .089.003.092-.005.16-.03.198-.008.014-.015.033-.017.042-.002.026.015.095.03.108.006.007.014.022.018.032.004.011.023.041.044.067.036.045.04.047.068.028.034-.023.043-.013.054.06.007.044.058.102.095.106.008.001.014.008.011.014-.003.008-.001.036.004.063.004.026.004.063-.002.081-.006.021-.008.038-.004.039.025.01.04.038.032.06-.007.024-.006.024.02.034.01.003.023.02.03.036.014.034.035.039.038.008.001-.027.047-.076.055-.06.004.004.005.041.005.079-.002.07-.021.277-.052.289-.003.001-.01.018-.011.042 0 .024-.005.043-.011.042-.015-.003-.031.13-.022.175.004.019.013.034.022.035.02 0 .02.04 0 .067-.024.034-.008.123.032.178.016.022.048.09.071.152.025.062.062.146.082.186.02.04.036.083.036.093-.001.025.06.102.129.16.076.057.12.133.133.228.021.119.045.238.05.36.002.037.006.077.011.087.005.012.007.023.002.029-.005.003-.001.028.01.06.021.06.025.123.016.219-.004.047 0 .075.013.108.009.023.015.049.012.057-.003.008 0 .037.006.064.006.027.01.06.011.073.001.017.004.02.012.02.007-.002.007-.02.004-.037-.004-.021-.001-.033.006-.032.014.002.023.036.033.11l.008.053c.005.032.001.039-.014.029-.011-.007-.027-.005-.034.005-.009.01-.009.017-.001.016.039.002.05.02.065.096 0 .002-.009-.007-.02-.02-.013-.013-.023-.02-.025-.017-.003.003.003.013.011.018.01.009.018.027.023.049.007.032.007.033.012.017.002-.011.007-.02.01-.02.01.003.015.054.006.064-.003.005 0 .008.01.008.012 0 .026.015.051.057.02.031.031.056.025.055-.005-.002-.003.005.003.013.004.008.019.013.03.011.011 0 .02.002.019.008 0 .005.004.011.012.013.007.002.012-.013.01-.031m-.37-6.555l.013.01c.013.013.06-.005.076-.03.007-.011.039-.036.071-.056l.02-.012-.032.03-.033.03.016.003c.023.002.024.006.003.013-.012.004-.022.012-.025.018-.003.008.02.005.052-.004.03-.009.054-.013.05-.006-.003.005-.017.01-.03.012-.013.002-.037.01-.055.02l-.033.018.006.011c.003.007.015.01.026.009.011-.004.018 0 .016.01-.005.017.105-.022.14-.05.014-.012.025-.015.033-.01.025.017.099-.014.083-.034-.002-.003.007-.009.02-.013l.023-.008-.011-.012c-.007-.007-.017-.013-.024-.01-.008 0-.008-.016.002-.045.013-.04.017-.047.034-.062.009-.01.02-.021.023-.027.008-.012-.035.002-.048.018-.006.007-.02.016-.028.018-.014.004-.015.006-.025.034-.014.038-.03.046-.021.011.008-.027-.002-.026-.033 0-.016.013-.02.014-.016.003.004-.01-.003-.01-.025 0-.024.012-.028.012-.02 0 .007-.01.004-.012-.01-.006s-.018.005-.01-.004c.013-.015-.006-.03-.028-.02-.008.003-.027.007-.043.01-.015.002-.04.012-.052.02-.016.01-.025.017-.025.022 0 .006-.012.02-.04.048l-.04.04m.175-.192l.02-.003c.012 0 .027-.008.036-.016.007-.008.012-.01.009-.005-.004.005.006-.002.02-.016.017-.015.025-.02.019-.01-.01.016.035-.011.054-.035.023-.028-.042 0-.104.047l-.054.039m.165-.067c-.024.007-.036.014-.062.041l-.032.032.013-.004.025-.004c.007-.001.019-.007.028-.015.008-.007.015-.007.015-.003 0 .007-.003.01-.013.013-.014.006-.015.007-.014.016.002.007.017.003.057-.02.031-.018.067-.033.08-.035.024-.005.057-.028.072-.05.006-.01-.002-.01-.02-.001-.022.01-.026.007-.022-.008.007-.023.001-.024-.021-.003-.012.01-.015.016-.015.03 0 .015 0 .015-.021.022-.013.003-.026 0-.03-.007-.006-.006-.023-.008-.04-.004m.197.061c.007-.001.006.002-.004.013-.01.01-.018.013-.024.007-.005-.006-.012-.005-.018.003-.006.008-.006.015.001.017.007.001.017.012.025.023.006.015.015.017.022.007.006-.009.019-.017.03-.02.025-.006.05-.043.032-.05-.014-.003-.013-.004.008-.024.018-.017.022-.022.017-.025-.004-.005-.035.004-.068.02-.02.009-.036.033-.02.03m.008-.123c-.002.006.002.01.01.008.007-.002.012.002.01.008-.003.009.008.006.027-.003.028-.013.03-.013.016.007-.014.017-.013.02.003.016.028-.006.055-.03.071-.062.011-.022.008-.024-.019-.017-.022.007-.032.012-.03.02.001.014-.014.017-.02.004-.002-.007-.005-.006-.014.008-.011.017-.013.018-.021.006-.012-.013-.027-.01-.033.005m.222-.06c.014-.002.026.002.027.012 0 .009-.002.018-.005.018s-.007.008-.009.018c-.003.013.022.01.123-.008.071-.015.14-.031.153-.04L3 6.666l-.005-.014c-.005-.01-.037-.007-.11.013-.09.023-.102.025-.107.007-.003-.01-.023-.019-.047-.017l-.051-.001c-.005-.002-.016.003-.022.01-.013.016 0 .024.034.016m.096-.143c.025-.007.028-.007.008.003-.03.018-.03.026-.003.034.017.005.04-.003.11-.04.016-.008.019-.008.009.001-.02.019-.017.026.014.017.014-.004.022-.004.017.002-.005.006-.006.013-.004.014.002.004-.014.009-.035.009-.025.002-.037.007-.033.012.005.007 0 .011-.026.023-.072.034-.041.036.08.009.147-.034.163-.037.143-.046-.014-.006-.014-.008.006-.02.011-.007.023-.018.027-.024.003-.007.018-.015.032-.017.015-.003.038-.016.05-.028.024-.021.024-.021.01-.02-.025.005-.013-.017.011-.023.032-.007.11-.042.167-.075.027-.014.066-.034.087-.042.022-.01.038-.02.035-.025-.002-.004.023-.017.055-.027.03-.009.06-.023.065-.03-.108-.043-.302.021-.404.054-.038.012-.079.031-.09.04-.012.01-.028.015-.04.013-.012-.001-.032.004-.047.013-.014.01-.043.021-.064.028-.043.013-.058.026-.047.04.01.017.044.018.06 0 .006-.009.017-.017.023-.018.01-.002.008 0-.008.014-.012.01-.008.011.017.005.062-.017.096-.021.087-.011-.005.004-.038.015-.07.021-.046.01-.063.016-.066.027-.003.01-.007.012-.014.008-.005-.005-.015-.007-.02-.008-.007.001-.014-.002-.017-.003-.018-.012-.05-.02-.063-.015-.038.012-.05.018-.053.028 0 .004-.01.012-.02.017-.008.004-.02.014-.026.022-.017.022 0 .03.036.018m2.092.546c.002-.008-.067-.079-.079-.079-.003 0-.007.007-.01.015-.002.007-.03.017-.06.023-.031.003-.064.012-.073.019-.011.008-.023.003-.029-.013-.009-.017-.02-.022-.037-.015-.04.017-.05.04-.016.04.026-.001.028.002.015.022-.012.02-.013.024 0 .024.018 0 .017.025-.002.036-.007.004.017.012.053.016.075.008.218-.022.238-.087m-.516.666c-.002-.01.003-.025.012-.032.008-.007.014-.025.013-.04-.003-.035-.079-.033-.093.002-.006.013-.022.025-.034.026-.017 0-.026.01-.03.031-.003.018 0 .036.006.04.007.006.003.015-.015.036-.021.023-.024.029-.012.043.006.008.024.01.038.005l.059-.022c.031-.01.063-.06.056-.09m.262.088c.024-.025.018-.06-.009-.059-.01 0-.023-.017-.028-.04-.005-.021-.016-.044-.026-.049-.01-.005-.018-.024-.02-.04 0-.017-.01-.036-.02-.04-.018-.01-.018-.013 0-.04.035-.05.03-.072-.01-.063-.039.008-.042.003-.012-.028.018-.02.017-.022-.01-.022-.015 0-.034.007-.041.014-.007.006-.024.036-.037.065-.02.043-.022.054-.01.047.01-.007.011.002.005.026-.005.02-.007.026 0 .014.017-.037.029-.022.016.023-.014.042-.012.043.018.034.025-.009.032-.006.03.012-.002.013 0 .025.006.024.005 0 .005.012 0 .025-.005.013-.02.025-.035.025-.023 0-.026.005-.018.027.009.022.007.026-.013.035-.013.005-.025.017-.027.026 0 .008.002.01.007.005.005-.002.025-.002.044.006.029.01.03.013.008.015-.015.002-.04.02-.058.038-.024.027-.027.032-.01.025.012-.007.049-.017.083-.022l.094-.016.047-.008c.008 0 .012-.01.01-.02-.003-.01.005-.027.016-.039m.276-1.603c.002.007.01.015.016.015s.01.006.006.013c-.007.023.052.04.076.023.012-.007.031-.008.042-.003.017.009.012.012-.025.022-.041.011-.043.013-.021.024.016.007.02.011.008.012-.01.002 0 .014.023.028.038.025.042.025.049.002.004-.013.013-.026.02-.025.005 0 .017-.013.025-.03.008-.016.022-.03.03-.029.022 0 .05.03.045.049-.008.023.07.024.083-.002.005-.009.005-.013 0-.01-.004.003-.027-.008-.05-.022-.024-.016-.057-.033-.074-.04-.016-.004-.033-.015-.035-.024-.002-.005-.01-.008-.015-.004-.006.004-.014 0-.017-.009-.005-.017-.043-.023-.045-.007v.024c0 .006-.007.006-.013-.002-.02-.02-.132-.025-.127-.005m.27 0c.029.005.06.014.068.02.02.012.12-.019.11-.035-.009-.014-.114-.032-.12-.02-.002.002-.031.003-.065-.002-.076-.007-.07.02.007.037m1.136.574c.013.003.031.015.04.025.009.012.035.023.06.026.018 0 .027.001.045.003l-.037-.034c-.022-.018-.04-.04-.044-.051-.006-.024.06-.118.08-.115.008 0 .013-.005.013-.012 0-.013.043-.025.14-.038.03-.003.052-.012.049-.02-.005-.015-.06-.023-.079-.01-.009.003-.033.005-.055.003-.068-.007-.15.021-.166.058-.008.018-.02.032-.027.031-.008 0-.01.01-.007.021.003.012 0 .022-.006.021-.006 0-.014.012-.017.028-.003.015-.013.028-.022.026-.026-.002.006.033.033.038m.856-.254c.02.003.034.009.031.013-.005.014.025.033.087.056.054.02.056.02.045-.005-.01-.024-.016-.029-.04-.039-.016-.007-.03-.016-.033-.024-.01-.031-.098-.066-.11-.04-.006.007-.005.015-.002.017.004 0 .003.007-.003.01-.008.006 0 .01.025.012m1.013.514c.02.018.108.046.106.035-.003-.014-.016-.023-.06-.045-.026-.013-.051-.027-.055-.03-.004-.006-.011-.007-.015-.006-.01.004 0 .026.024.046m.772 1.503c-.006-.003-.021-.02-.031-.034-.035-.05-.04-.053-.025-.015.019.049.025.079.019.077-.01-.001-.003.045.01.069.01.018.012.018.011.005 0-.012-.002-.017-.007-.018-.003 0-.006-.005-.006-.01-.002-.014.016-.011.033.006.01.012.015.011.013-.007 0-.011.003-.02.007-.019.018.004-.003-.044-.025-.054m.054.255c-.005-.035-.007-.041-.03-.089l-.029-.051.007.016c.006.01.006.013-.002.007-.01-.01-.006.013.012.065.016.04.022.1.013.125-.005.018-.006.018-.015-.005-.007-.022-.008-.022-.004-.005.014.072.012.084-.012.08-.024-.002-.036.023-.04.086-.003.031.005.058.012.048.003-.007.006 0 .015.033.016.061.029.059.02 0-.006-.042-.008-.048-.02-.063-.016-.02-.018-.038-.004-.025.006.004.008.002.005-.005-.002-.008 0-.014.007-.015.015-.001.019.01.009.026-.006.008-.004.02.002.035.01.02.011.02.013 0 0-.012.004-.017.008-.013.012.015.005-.018-.008-.041-.012-.02-.012-.022-.001-.02.008 0 .014.007.019.025.01.034.023.034.018 0-.004-.022 0-.029.014-.027.01.001.018-.006.018-.015 0-.014.002-.015.008-.002.011.022.01-.003-.004-.046-.021-.07-.026-.09-.032-.124m.029 1.215c-.024-.009-.047-.062-.043-.101.001-.014-.004-.043-.01-.067-.01-.036-.015-.043-.028-.046-.01 0-.015.007-.013.02l.011.057c.005.019.007.036.005.039-.004.003 0 .017.01.044.01.022.019.036.02.031.002-.004.005.003.009.017.003.016.009.024.016.023.006 0 .016.004.02.01.006.007.008.004.006-.006-.003-.01.005-.003.016.013.02.03.02.03.01.002-.006-.02-.016-.032-.03-.036m-.174-.564l-.007.009c-.003.004-.003.026-.001.05.003.033.008.049.02.072l.014.031v-.03c0-.028-.022-.135-.026-.132M8.73 8.094c-.006-.002.018.067.03.086.007.011.036.078.064.15.043.11.05.13.05.117 0-.007.006-.008.013-.002.01.01.008.006-.012-.024-.012-.02-.025-.042-.028-.05-.012-.029-.016-.063-.008-.06.009.001.005-.012-.01-.036-.015-.024-.063-.122-.066-.135-.002-.006-.013-.03-.026-.052-.017-.03-.02-.035-.014-.018.006.014.009.025.007.025m.002 3.02c.013 0 .035.003.047.007.032.009.101.002.104-.011.002-.007-.008-.014-.021-.015-.015 0-.026-.011-.026-.024-.001-.014-.009-.018-.04-.008-.027.008-.043.006-.049-.005-.01-.021-.05-.017-.058.008-.01.023.011.045.043.048m-.13-.384c-.001.008.002.033.007.053.005.022.01.061.01.086 0 .06.044.175.063.167.011-.004.018-.02.032-.068.017-.06.017-.064 0-.116-.01-.03-.014-.06-.01-.073.004-.01.002-.029-.004-.043-.007-.012-.017-.032-.022-.045-.006-.012-.014-.021-.018-.02-.004 0-.02-.032-.035-.071-.016-.04-.061-.074-.069-.074-.008.001-.02-.002-.028-.006-.008-.003-.012 0-.01.01.001.008.04.054.057.1.017.047.03.091.028.1m.367.085c0-.006.006-.023.015-.038.009-.014.02-.04.024-.059.006-.023.013-.035.022-.04.013-.005.023-.031.013-.029-.003 0-.006-.022-.008-.05-.001-.027 0-.05.004-.05.002-.001.004-.008.004-.014 0-.008 0-.014.004-.014.005-.001.007-.01.004-.022-.002-.01 0-.02.005-.023.009 0 .009-.002-.004-.015-.007-.009-.02-.025-.028-.038-.02-.032-.026-.025-.032.03-.003.026-.008.05-.012.05-.005 0-.01.018-.014.039-.011.02-.03.046-.042.056-.013.013-.025.032-.028.045-.003.018-.008.022-.023.019-.016-.003-.022.002-.028.017-.011.032-.02.109-.011.114.003.003.004.024.001.047-.003.033-.001.04.011.037.009-.002.015.002.013.008-.001.007.01.008.025.005.019-.005.03 0 .03.01 0 .013.004.014.016 0 .018-.02.04-.068.039-.086m.18-.179c-.012.018-.046.024-.055.009-.006-.012-.038.043-.044.073-.003.016-.008.033-.012.038-.011.015-.032.104-.028.122.003.01 0 .03-.009.058-.01.032-.01.04-.003.033.006-.005.016-.034.026-.07.008-.034.017-.06.02-.06.002.002.004.008.002.016-.001.007-.003.027-.003.043.001.02.004.023.01.012.014-.023.022-.023.01 0-.01.018-.01.036-.004.034.006-.001.014-.045.013-.062l-.002-.055v-.04l.024-.032c.019-.026.022-.032.014-.032-.006.002-.018.012-.028.024-.016.02-.018.02-.023-.002-.002-.011-.002-.03.004-.044.005-.019.013-.022.04-.022.027 0 .036-.006.048-.026.019-.031.018-.045 0-.017m-.036-.329c-.002-.006-.008-.003-.014.009-.006.013-.01.033-.006.045.003.015.005.017.006.008 0-.01.005-.02.012-.023.009-.005.013 0 .02.026.01.037.021.052.034.05.007-.002.008-.009 0-.03-.008-.021-.008-.026 0-.02.006.002.01 0 .01-.006 0-.017-.033-.119-.038-.117-.002 0-.005.016-.008.036-.006.035-.012.042-.017.023m.912.146c0 2.769-2.244 5.014-5.013 5.014C2.244 15.468 0 13.223 0 10.454c0-2.768 2.244-5.012 5.012-5.012 2.769 0 5.013 2.244 5.013 5.012m-1.963-2.61v.049c.004.055-.013.129-.031.143-.012.01-.012.01.002.013.009.003.021-.008.028-.022.007-.015.015-.027.02-.026.012.002.012-.067-.002-.111l-.017-.046m-6.158-.51l-.037.037-.038.037.014-.003c.009-.002.021-.01.027-.018.007-.008.016-.014.02-.016.006 0 .002.005-.006.016-.009.01-.003.007.013-.009.016-.014.038-.028.048-.033.035-.015.045-.04.012-.028-.022.009-.026.009-.01-.002.028-.023-.01-.01-.071.024l-.05.027.04-.016.038-.016m.138.517l-.018.01c-.009.004-.019.013-.022.02-.012.02-.017.06-.01.076.003.01 0 .034-.008.054-.014.03-.013.033.001.013.013-.017.026-.054.038-.101l.019-.072m-.122-.367c-.005-.007-.007-.005-.01.008-.004.014-.012.023-.043.047l-.036.028.03-.005c.018-.003.039-.012.048-.019l.051-.04c.02-.015.04-.028.044-.029.004 0 .014-.008.02-.016.018-.021-.006-.012-.04.016-.031.025-.053.028-.064.01m.154.807c-.026.026-.104.183-.104.207 0 .029.04-.02.071-.087.024-.053.036-.07.07-.1.049-.047.05-.048.054-.01.003.024 0 .033-.015.05-.011.01-.023.027-.027.036-.004.008.001.006.01-.003.015-.016.019-.013.017.015l-.004.036.036-.055c.02-.03.038-.062.04-.068.002-.007.008 0 .011.012.01.036.033.002.026-.038-.005-.035-.025-.045-.03-.016-.002.007-.007.015-.01.015-.006 0-.006-.006-.003-.014.017-.035-.106-.017-.142.02m.002-.088c.018-.01.03-.014.023-.006-.014.019.005.034.046.034h.035l.013-.042c.008-.024.01-.04.003-.037-.008.004-.013-.002-.014-.012-.004-.04-.03-.035-.107.02l-.082.061c-.017.018.05.004.083-.018m.046.266c-.033.013-.047.038-.021.038.023 0 .113-.047.128-.066.016-.02.003-.018-.107.028m3.988 2.65c.019-.005.042-.01.054-.01.012-.001.018-.007.012-.012-.004-.004.007-.033.024-.064.026-.048.028-.057.01-.064-.036-.014-.09-.009-.102.011-.007.009-.017.047-.022.083-.01.06-.008.064.024.056m.078.432c.002-.02-.003-.037-.008-.042-.006-.004-.013.028-.014.072 0 .042-.003.089-.003.103-.001.011.005.033.013.047.013.02.015.013.02-.051.002-.042 0-.08-.003-.085-.004-.006-.007-.025-.005-.044m12.172-1.097c0 6.023-4.778 10.453-10.84 10.453H1.248v-4.18H7.52c3.465 0 6.251-2.81 6.251-6.273 0-3.464-2.786-6.272-6.25-6.272H1.247V0H7.52c6.062 0 10.84 4.43 10.84 10.454" transform="translate(-806.000000, -1852.000000) translate(806.000000, 1852.000000)"/>
            </g>
        </g>
    </g>
</svg>
