<svg xmlns="http://www.w3.org/2000/svg" width="57" height="57" viewBox="0 0 57 57">
    <g fill="none" fill-rule="evenodd">
        <g>
            <g transform="translate(-579.000000, -4741.000000) translate(579.000000, 4741.000000)">
                <rect width="57" height="57" fill="#F4F4F4" rx="4"/>
                <g>
                    <path fill="#444" d="M2 2H29V11H2z" transform="translate(14.000000, 16.000000)"/>
                    <path fill="#C2A664" d="M0 0H27V9H0z" transform="translate(14.000000, 16.000000)"/>
                    <g fill="#FFF" fill-rule="nonzero">
                        <g>
                            <path d="M5.261 0C6.298 0 7.14.816 7.14 1.823v2.485c.862-.353 1.86-.03 2.33.754.55-.334 1.24-.365 1.82-.082.58.282.966.838 1.02 1.465.23-.094.479-.143.73-.143h.066c.5-.004.982.186 1.338.528.355.342.556.807.557 1.293V14.5c0 .118-.038.232-.109.328l-1.48 2.021v2.586c0 .313-.26.566-.582.566H5.112c-.322 0-.583-.253-.583-.566v-2.597L.37 10.57c-.572-.74-.47-1.783.237-2.405.374-.327.87-.491 1.372-.454.502.037.966.272 1.285.65l.039.053.081.12V1.823C3.383.816 4.224 0 5.261 0z" transform="translate(14.000000, 16.000000) translate(7.000000, 5.000000)"/>
                        </g>
                    </g>
                    <g fill="#000" fill-rule="nonzero">
                        <g>
                            <path d="M13.105 6.302h-.066c-.251 0-.5.049-.73.143-.054-.627-.44-1.183-1.02-1.465-.58-.283-1.27-.252-1.82.082-.47-.784-1.468-1.107-2.33-.754V1.823C7.14.816 6.3 0 5.261 0 4.224 0 3.383.816 3.383 1.823v6.711l-.081-.12-.039-.053c-.319-.378-.783-.613-1.285-.65-.502-.037-.998.127-1.372.454C-.1 8.787-.203 9.829.37 10.57l4.16 6.267v2.597c0 .313.26.566.583.566h7.717c.322 0 .583-.253.583-.566v-2.586l1.48-2.021c.07-.096.108-.21.108-.328V8.123c-.001-.486-.202-.951-.557-1.293-.356-.342-.838-.532-1.338-.528zm.71 8.02l-1.48 2.02c-.07.096-.108.211-.108.329v2.198H5.694V16.67c0-.109-.032-.215-.093-.306L1.33 9.955l-.031-.04c-.166-.206-.192-.487-.064-.717.127-.23.382-.365.65-.343.175.012.339.09.455.218l1.13 1.712c.134.229.413.337.673.262.26-.076.432-.316.414-.579V1.823c0-.382.32-.692.713-.692.394 0 .713.31.713.692v6.866c0 .312.26.565.582.565.322 0 .583-.253.583-.565V5.985c0-.382.319-.691.713-.691.393 0 .712.31.712.691V8.69c0 .312.261.565.583.565.322 0 .582-.253.582-.565V6.608c0-.383.32-.692.713-.692.394 0 .713.31.713.692v2.937c0 .312.26.565.582.565.322 0 .583-.253.583-.565v-.641-.781c0-.38.318-.69.71-.69h.067c.392 0 .71.31.71.69v6.199z" transform="translate(14.000000, 16.000000) translate(7.000000, 5.000000)"/>
                        </g>
                    </g>
                </g>
            </g>
        </g>
    </g>
</svg>
