<svg xmlns="http://www.w3.org/2000/svg" width="57" height="57" viewBox="0 0 57 57">
    <g fill="none" fill-rule="evenodd">
        <g>
            <g transform="translate(-579.000000, -1413.000000) translate(579.000000, 1413.000000)">
                <rect width="57" height="57" fill="#F4F4F4" rx="4"/>
                <g fill="#9AD5E4" fill-rule="nonzero">
                    <g opacity=".475">
                        <path d="M19.614 17.014c-.57-1.25-3.349-2.078-5.195-2.854-1.847-.777-1.594-1.248-1.66-1.893-.01-.088-.016-.182-.02-.278.634-.534 1.153-1.266 1.488-2.111l.023-.056c.07-.184.133-.375.187-.57.424-.082.67-.521.764-.927.096-.164.293-.57.248-1.029-.058-.591-.309-.864-.59-.979v-.102c0-.753-.073-1.837-.218-2.549-.03-.196-.077-.394-.138-.588-.273-.873-.843-1.657-1.605-2.208C12.111.3 10.998 0 10.01 0s-2.1.3-2.887.87c-.762.551-1.332 1.335-1.605 2.208-.06.194-.107.392-.138.588-.145.712-.219 1.795-.219 2.549l.001.094c-.29.109-.551.381-.611.987-.046.46.152.865.247 1.029.096.413.35.86.787.93.054.196.118.389.19.574l.014.036.006.016c.342.86.874 1.602 1.524 2.138-.004.086-.01.169-.018.248-.066.644.128 1.115-1.719 1.892-1.846.777-4.626 1.604-5.195 2.855C-.183 18.264.045 19 .045 19h19.91s.229-.735-.34-1.986z" transform="translate(5.000000, 16.000000) translate(28.000000, 2.000000)"/>
                    </g>
                    <g opacity=".475">
                        <path d="M19.614 17.014c-.57-1.25-3.349-2.078-5.195-2.854-1.847-.777-1.594-1.248-1.66-1.893-.01-.088-.016-.182-.02-.278.634-.534 1.153-1.266 1.488-2.111l.023-.056c.07-.184.133-.375.187-.57.424-.082.67-.521.764-.927.096-.164.293-.57.248-1.029-.058-.591-.309-.864-.59-.979v-.102c0-.753-.073-1.837-.218-2.549-.03-.196-.077-.394-.138-.588-.273-.873-.843-1.657-1.605-2.208C12.111.3 10.998 0 10.01 0s-2.1.3-2.887.87c-.762.551-1.332 1.335-1.605 2.208-.06.194-.107.392-.138.588-.145.712-.219 1.795-.219 2.549l.001.094c-.29.109-.551.381-.611.987-.046.46.152.865.247 1.029.096.413.35.86.787.93.054.196.118.389.19.574l.014.036.006.016c.342.86.874 1.602 1.524 2.138-.004.086-.01.169-.018.248-.066.644.128 1.115-1.719 1.892-1.846.777-4.626 1.604-5.195 2.855C-.183 18.264.045 19 .045 19h19.91s.229-.735-.34-1.986z" transform="translate(5.000000, 16.000000) translate(0.000000, 2.000000)"/>
                    </g>
                    <path d="M37.48 23.283c-.77-1.711-4.522-2.844-7.015-3.907-2.493-1.063-2.152-1.707-2.241-2.589-.013-.12-.02-.25-.026-.381.856-.73 1.556-1.733 2.008-2.89l.031-.076c.096-.251.18-.513.253-.78.572-.112.905-.712 1.032-1.268.128-.225.395-.779.334-1.407-.079-.81-.417-1.184-.796-1.34v-.14c0-1.031-.099-2.514-.294-3.488-.042-.27-.105-.54-.187-.806-.368-1.194-1.138-2.266-2.167-3.021C27.35.411 25.848 0 24.514 0s-2.836.411-3.898 1.19c-1.029.755-1.799 1.827-2.167 3.021-.082.266-.144.537-.186.806-.196.974-.295 2.456-.295 3.487v.13c-.39.149-.743.52-.824 1.35-.062.629.205 1.183.334 1.408.13.565.471 1.177 1.061 1.273.074.268.16.532.256.785l.02.05.009.021c.461 1.177 1.18 2.193 2.056 2.926-.005.117-.013.231-.024.34-.09.881.173 1.526-2.32 2.589s-6.245 2.195-7.014 3.906c-.768 1.711-.461 2.718-.461 2.718h26.878s.31-1.006-.46-2.717z" transform="translate(5.000000, 16.000000)"/>
                </g>
            </g>
        </g>
    </g>
</svg>
